<?xml version="1.0" encoding="utf-8"?>
<!-- Generator: Adobe Illustrator 26.5.0, SVG Export Plug-In . SVG Version: 6.00 Build 0)  -->
<svg version="1.1" xmlns="http://www.w3.org/2000/svg" xmlns:xlink="http://www.w3.org/1999/xlink" x="0px" y="0px"
	 viewBox="0 0 2372.5 1128.4" style="enable-background:new 0 0 2372.5 1128.4;" xml:space="preserve">
<style type="text/css">
	.st0{clip-path:url(#XMLID_00000118370117234317653300000014080933930575527074_);fill:#FFFFFF;}
	.st1{clip-path:url(#XMLID_00000118370117234317653300000014080933930575527074_);fill:#D85041;}
	.st2{opacity:0.12;clip-path:url(#XMLID_00000118370117234317653300000014080933930575527074_);fill:#D85041;}
	.st3{display:none;}
	.st4{display:inline;}
	.st5{fill:#D85041;}
	.st6{display:inline;fill:#D85041;}
	.st7{display:inline;fill:none;stroke:#FFFFFF;stroke-width:2.8138;stroke-miterlimit:10;}
	.st8{clip-path:url(#SVGID_00000069369036609872281740000003520081372103397790_);}
	.st9{fill:none;stroke:#FFFFFF;stroke-width:3.3103;stroke-miterlimit:10;}
	.st10{fill:#FFFFFF;}
	.st11{clip-path:url(#XMLID_00000040557160494752487580000011628853649436845996_);fill:#403F5C;}
	.st12{opacity:0.33;clip-path:url(#XMLID_00000040557160494752487580000011628853649436845996_);fill:#403F5C;}
	.st13{fill:#CEC1B5;}
	.st14{fill:#7C7CA5;}
	.st15{clip-path:url(#XMLID_00000093161563535047762590000009768445122237553798_);fill:#252542;}
	.st16{clip-path:url(#XMLID_00000134245758872572516410000013056594674421025441_);fill:#252542;}
	.st17{clip-path:url(#XMLID_00000051360061656658906860000003044866563869140916_);fill:#252542;}
	.st18{clip-path:url(#XMLID_00000026141680776138382450000017357547752096045444_);fill:#252542;}
	.st19{clip-path:url(#XMLID_00000096024599808241491400000013365779708318767547_);fill:#252542;}
	.st20{clip-path:url(#XMLID_00000098211575699094865850000003748905553788964509_);fill:#252542;}
	.st21{clip-path:url(#XMLID_00000145775442849054076450000004345962696416515751_);fill:#252542;}
	.st22{clip-path:url(#XMLID_00000099623480281172032060000015955200391375483819_);fill:#252542;}
	.st23{clip-path:url(#XMLID_00000039098761149213846720000015019330252219250607_);}
	.st24{fill:#C7C7E5;}
	.st25{clip-path:url(#XMLID_00000121277417854803285670000006852498747914413188_);fill:#252542;}
	.st26{clip-path:url(#XMLID_00000115502863943083816270000013551821920868829631_);fill:#252542;}
	.st27{clip-path:url(#XMLID_00000028327366776850274330000000011051405670983840_);fill:#252542;}
	.st28{clip-path:url(#XMLID_00000046334974959269779440000008287782006665786004_);fill:#252542;}
	.st29{clip-path:url(#XMLID_00000150783520861501816860000005302258558554804414_);fill:#252542;}
	.st30{clip-path:url(#XMLID_00000016783624544302896140000003316044925479643300_);fill:#252542;}
	.st31{fill:#403F5C;}
	.st32{fill:none;stroke:#DCDCEF;stroke-width:1.8726;stroke-miterlimit:10;}
	.st33{clip-path:url(#XMLID_00000021812213577114012030000007693471557477912254_);fill:#252542;}
	.st34{clip-path:url(#XMLID_00000096749987853410901920000013882721418679487641_);fill:#252542;}
	.st35{clip-path:url(#XMLID_00000020365550350645565410000002001241454508607646_);fill:#252542;}
	.st36{clip-path:url(#XMLID_00000160904149950476949480000010578614597015468166_);fill:#252542;}
	.st37{opacity:0.42;clip-path:url(#XMLID_00000053525123427755475130000004368731527286615992_);fill:#252542;}
	.st38{opacity:0.42;fill:#252542;}
	.st39{opacity:0.42;clip-path:url(#XMLID_00000132083771020734116990000002404846105909873839_);fill:#252542;}
	.st40{opacity:0.42;clip-path:url(#XMLID_00000158709187019034551570000001342410742277906822_);fill:#252542;}
	.st41{opacity:0.42;clip-path:url(#XMLID_00000087404112018545724440000003820592322704137405_);fill:#252542;}
	.st42{opacity:0.3;clip-path:url(#XMLID_00000077307725727197903380000007589763588034286741_);fill:#FFFFFF;}
	.st43{opacity:0.67;clip-path:url(#XMLID_00000077307725727197903380000007589763588034286741_);fill:#FFFFFF;}
	.st44{opacity:0.3;clip-path:url(#XMLID_00000005230578734507961550000010770523558581787822_);fill:#FFFFFF;}
	.st45{opacity:0.67;clip-path:url(#XMLID_00000005230578734507961550000010770523558581787822_);fill:#FFFFFF;}
	.st46{clip-path:url(#XMLID_00000137116931777499603640000012979066724145717419_);fill:#252542;}
	.st47{clip-path:url(#SVGID_00000150079474787054943070000018188915131697847183_);}
	.st48{fill:#252542;}
	.st49{fill:#DCDCEF;}
	.st50{opacity:0.41;fill:#7C7CA5;}
	.st51{display:inline;clip-path:url(#XMLID_00000146462921812240392120000010938458905260872077_);fill:#FCA551;}
	.st52{font-family:'Lato-Heavy';}
	.st53{font-size:22px;}
	.st54{font-size:40.9902px;}
	.st55{font-size:27.1031px;}
	.st56{font-family:'MyriadPro-Regular';}
	.st57{font-family:'Lato-Bold';}
	.st58{font-size:19.524px;}
	.st59{letter-spacing:5;}
</style>
<g id="BACKGROUND">
	<g>
		<defs>
			<rect id="XMLID_00000061469661263231717480000006579811130020322967_" width="2372.5" height="1128.4"/>
		</defs>
		<use xlink:href="#XMLID_00000061469661263231717480000006579811130020322967_"  style="overflow:visible;fill:#E7A458;"/>
		<clipPath id="XMLID_00000179615922719694308140000014130178336635118513_">
			<use xlink:href="#XMLID_00000061469661263231717480000006579811130020322967_"  style="overflow:visible;"/>
		</clipPath>
		<polygon style="clip-path:url(#XMLID_00000179615922719694308140000014130178336635118513_);fill:#FFFFFF;" points="-216.3,751.1 
			2633.7,1183.1 2442,1201.9 -277.6,1201.9 		"/>
		<polygon style="clip-path:url(#XMLID_00000179615922719694308140000014130178336635118513_);fill:#D85041;" points="-164.9,298.9 
			2574.1,1189 -295.5,760 		"/>
		<polygon style="opacity:0.12;clip-path:url(#XMLID_00000179615922719694308140000014130178336635118513_);fill:#D85041;" points="
			2632,-555.1 2684.6,1292.4 161.7,-51.7 		"/>
	</g>
</g>
<g id="OBJECTS">
	<g class="st3">
		<g class="st4">
			<path class="st5" d="M1505.2,125.7h100.9c11.9,0,21.5-9.6,21.5-21.5v0c0-11.9-9.6-21.5-21.5-21.5h-100.9
				c-11.9,0-21.5,9.6-21.5,21.5v0C1483.8,116.1,1493.4,125.7,1505.2,125.7z"/>
		</g>
		<g class="st4">
			<path class="st5" d="M1684.7,125.7h108.8c11.9,0,21.5-9.6,21.5-21.5v0c0-11.9-9.6-21.5-21.5-21.5h-108.8
				c-11.9,0-21.5,9.6-21.5,21.5v0C1663.2,116.1,1672.8,125.7,1684.7,125.7z"/>
		</g>
		<path class="st6" d="M1015.6,126.9H951c-1,0-1.8-0.8-1.8-1.8v0c0-1,0.8-1.8,1.8-1.8h64.6c1,0,1.8,0.8,1.8,1.8l0,0
			C1017.4,126.1,1016.6,126.9,1015.6,126.9z"/>
	</g>
	<g class="st3">
		<path class="st6" d="M1237.2,640.8h-210.4c-19.2,0-34.7-15.5-34.7-34.7v0c0-19.2,15.5-34.7,34.7-34.7h210.4
			c19.2,0,34.7,15.5,34.7,34.7v0C1271.9,625.3,1256.4,640.8,1237.2,640.8z"/>
		<path class="st7" d="M1491.4,640.8h-140c-19.2,0-34.7-15.5-34.7-34.7v0c0-19.2,15.5-34.7,34.7-34.7h140
			c19.2,0,34.7,15.5,34.7,34.7v0C1526.1,625.3,1510.6,640.8,1491.4,640.8z"/>
	</g>
	<g>
		<defs>
			<rect id="SVGID_1_" x="276.3" y="0" width="853.5" height="1064.2"/>
		</defs>
		<clipPath id="SVGID_00000064348961398936222990000006341547274864585396_">
			<use xlink:href="#SVGID_1_"  style="overflow:visible;"/>
		</clipPath>
		<g style="clip-path:url(#SVGID_00000064348961398936222990000006341547274864585396_);">
			<g>
				<path class="st9" d="M819.9,488.1c-11.3-68.9,81.6-201.7,2.4-231.2c-5.5-2-4.8,40.4-24.4,69c-25.2,36.8-79,52.8-169.1-55.1
					c-28.9-17.3-94.9-12.7-141.1,24.1c-115.4,91.8,20.4,187.4,29.1,240.8c10.5,64.3-86.5,171-91.7,264.1
					c-9,162,117.4,256.7,325.7,222.7c208.2-34.1,300.3-167.9,236-319C950.8,618.7,830.9,555.9,819.9,488.1z"/>
				<line class="st9" x1="498.4" y1="-370.9" x2="596.8" y2="233.4"/>
			</g>
			<g>
				<path class="st10" d="M587.2,278l-24.7,4c-2.2,0.4-2.5,3.3-0.3,3.8l0,0c2.8,0.8,4.8,2.9,5.2,5.6l1.6,9.6l18.1-3l-1.6-9.6
					c-0.4-2.6,0.8-5.3,3.2-6.9h0C590.6,280.3,589.5,277.7,587.2,278z"/>
				<path class="st10" d="M777.5,1028l24.6-4c2.2-0.4,2.5-3.3,0.3-3.8l0,0c-2.8-0.8-4.8-2.9-5.2-5.6l-1.6-9.6l-18.1,3l1.6,9.6
					c0.4,2.6-0.8,5.3-3.2,6.9l0,0C774.1,1025.7,775.3,1028.3,777.5,1028z"/>
				<g>
					<defs>
						<path id="XMLID_00000180329813102984569870000000740528169533388220_" d="M860.8,503.2c-10.7-65.5,83.1-192.5,4.2-220
							c-5.5-1.9-5.1,38.5-25,65.8c-25.5,35.2-79.3,50.8-168.5-51.1c-28.7-16.2-94.7-11.3-141.1,24c-116,88.3,18.9,178.1,27.2,228.8
							c10,61.1-87.8,163.3-93.6,251.9c-10.2,154.2,115.2,243.3,323.5,209.2c208.2-34.1,301.2-162.1,238.3-305.3
							C990.6,626.4,871.4,567.5,860.8,503.2z"/>
					</defs>
					<use xlink:href="#XMLID_00000180329813102984569870000000740528169533388220_"  style="overflow:visible;fill:#252542;"/>
					<clipPath id="XMLID_00000102546327564016665210000010990976810543070595_">
						<use xlink:href="#XMLID_00000180329813102984569870000000740528169533388220_"  style="overflow:visible;"/>
					</clipPath>
					<path style="clip-path:url(#XMLID_00000102546327564016665210000010990976810543070595_);fill:#403F5C;" d="M776.7,945.4
						c-339,56.1-246.8-250.9-153.8-406.5c31.4-52.5-113.8-113.5-52.5-165.4c61.3-47,121.4,35.3,178.2,62.7
						c25.5,12.3,41.9,37.4,45.3,65.5c6.9,58.1,50.1,106.9,98.7,148.1C1050.9,766.1,989.6,911.2,776.7,945.4z"/>
					<path style="clip-path:url(#XMLID_00000102546327564016665210000010990976810543070595_);fill:#403F5C;" d="M766.8,898.6
						c-65.5,10.7-150,13.9-181-31.7c-19.7-28.9-22.1-80.7-6.9-145.8c14.1-60.4,43-129.7,79.2-190.3c11-18.5-65.1-102,60.5-92.3
						c9.5,0.7,48,1.2,49.3,12.4c11.3,95.8,48.9,178.1,101.4,222.5l1.7,1.4l1.8,1.3c55.4,40.7,82.3,84.3,73.8,119.6
						c-11.2,46.4-80.6,86.6-176.9,102.4C769.7,898.1,766.9,898.6,766.8,898.6z"/>
					
						<rect x="365.4" y="-8.2" transform="matrix(0.8816 0.4719 -0.4719 0.8816 310.6079 -188.9617)" style="opacity:0.33;clip-path:url(#XMLID_00000102546327564016665210000010990976810543070595_);fill:#403F5C;" width="333.2" height="1065.9"/>
					
						<rect x="363.2" y="18.7" transform="matrix(0.8816 0.4719 -0.4719 0.8816 281.4408 -154.7946)" style="opacity:0.33;clip-path:url(#XMLID_00000102546327564016665210000010990976810543070595_);fill:#403F5C;" width="172.3" height="930"/>
				</g>
				<path class="st5" d="M790.7,643.9l79.6-13c15.8-2.6,22.6-21.5,12.1-33.5c-16.6-18.8-35.5-46.4-41.8-79.3
					c-4.7-24.8-4.2-44.4-2.7-60.1c2.4-25.1-19.4-45.8-44.3-41.7l-39,6.4L790.7,643.9z"/>
				<g>
					<path class="st13" d="M801.5,642.1l-145.1,23.7c-6.1,1-11.8-3.1-12.7-9.2L633.6,595c-1-6.1,3.1-11.8,9.2-12.7l145.1-23.7
						c6.1-1,11.8,3.1,12.7,9.2l10.1,61.6C811.7,635.4,807.6,641.1,801.5,642.1z"/>
					<path class="st14" d="M780.8,633.2l-107.6,17.6c-4.4,0.7-8.5-2.3-9.3-6.7l-7.1-43.7c-0.7-4.4,2.3-8.5,6.7-9.3l107.6-17.6
						c4.4-0.7,8.5,2.3,9.3,6.7l7.1,43.7C788.2,628.3,785.2,632.5,780.8,633.2z"/>
					<g>
						<defs>
							<path id="XMLID_00000029723888582060085300000014358110163987432369_" d="M794.3,572.3c-1.6,2.8-5.1,3.7-7.9,2.1
								s-3.7-5.1-2.1-7.9c1.6-2.8,5.1-3.7,7.9-2.1C795,566,795.9,569.5,794.3,572.3z"/>
						</defs>
						<use xlink:href="#XMLID_00000029723888582060085300000014358110163987432369_"  style="overflow:visible;fill:#7C7CA5;"/>
						<clipPath id="XMLID_00000040546359570888573910000012599901677225803938_">
							<use xlink:href="#XMLID_00000029723888582060085300000014358110163987432369_"  style="overflow:visible;"/>
						</clipPath>
						
							<rect x="788.3" y="560.7" transform="matrix(0.8679 0.4967 -0.4967 0.8679 386.8709 -317.0611)" style="clip-path:url(#XMLID_00000040546359570888573910000012599901677225803938_);fill:#252542;" width="2.7" height="16.5"/>
					</g>
					<g>
						<defs>
							<path id="XMLID_00000010289518122304547740000014907609465209017010_" d="M804.3,633c-1.6,2.8-5.1,3.7-7.9,2.1
								s-3.7-5.1-2.1-7.9c1.6-2.8,5.1-3.7,7.9-2.1C804.9,626.7,805.9,630.3,804.3,633z"/>
						</defs>
						<use xlink:href="#XMLID_00000010289518122304547740000014907609465209017010_"  style="overflow:visible;fill:#7C7CA5;"/>
						<clipPath id="XMLID_00000045613666846259308510000003534027744010208700_">
							<use xlink:href="#XMLID_00000010289518122304547740000014907609465209017010_"  style="overflow:visible;"/>
						</clipPath>
						
							<rect x="798.2" y="621.4" transform="matrix(0.8679 0.4967 -0.4967 0.8679 418.3534 -313.972)" style="clip-path:url(#XMLID_00000045613666846259308510000003534027744010208700_);fill:#252542;" width="2.7" height="16.5"/>
					</g>
					<g>
						<defs>
							<path id="XMLID_00000157274863526206922040000016970549170852326041_" d="M651.7,595.6c-1.6,2.8-5.1,3.7-7.9,2.1
								s-3.7-5.1-2.1-7.9c1.6-2.8,5.1-3.7,7.9-2.1C652.3,589.3,653.3,592.8,651.7,595.6z"/>
						</defs>
						<use xlink:href="#XMLID_00000157274863526206922040000016970549170852326041_"  style="overflow:visible;fill:#7C7CA5;"/>
						<clipPath id="XMLID_00000181780230107597214010000011432180586439677363_">
							<use xlink:href="#XMLID_00000157274863526206922040000016970549170852326041_"  style="overflow:visible;"/>
						</clipPath>
						
							<rect x="645.7" y="584" transform="matrix(0.8679 0.4967 -0.4967 0.8679 379.6031 -243.1369)" style="clip-path:url(#XMLID_00000181780230107597214010000011432180586439677363_);fill:#252542;" width="2.7" height="16.5"/>
					</g>
					<g>
						<defs>
							<path id="XMLID_00000172441264012035351440000011734188993399021702_" d="M661.7,656.4c-1.6,2.8-5.1,3.7-7.9,2.1
								s-3.7-5.1-2.1-7.9c1.6-2.8,5.1-3.7,7.9-2.1S663.2,653.6,661.7,656.4z"/>
						</defs>
						<use xlink:href="#XMLID_00000172441264012035351440000011734188993399021702_"  style="overflow:visible;fill:#7C7CA5;"/>
						<clipPath id="XMLID_00000025438031791962936170000002952851549310948500_">
							<use xlink:href="#XMLID_00000172441264012035351440000011734188993399021702_"  style="overflow:visible;"/>
						</clipPath>
						
							<rect x="655.6" y="644.8" transform="matrix(0.8679 0.4967 -0.4967 0.8679 411.1029 -240.0537)" style="clip-path:url(#XMLID_00000025438031791962936170000002952851549310948500_);fill:#252542;" width="2.7" height="16.5"/>
					</g>
				</g>
				<g>
					<path class="st13" d="M779,504.5L634,528.2c-6.1,1-11.8-3.1-12.7-9.2l-10.1-61.6c-1-6.1,3.1-11.8,9.2-12.7l145.1-23.7
						c6.1-1,11.8,3.1,12.7,9.2l10.1,61.6C789.2,497.8,785.1,503.5,779,504.5z"/>
					<path class="st14" d="M758.3,495.5l-107.6,17.6c-4.4,0.7-8.5-2.3-9.3-6.7l-7.1-43.7c-0.7-4.4,2.3-8.5,6.7-9.3L748.6,436
						c4.4-0.7,8.5,2.3,9.3,6.7l7.1,43.7C765.7,490.7,762.7,494.8,758.3,495.5z"/>
					<g>
						<defs>
							<path id="XMLID_00000156586520539428722710000008099080756445494670_" d="M771.8,434.6c-1.6,2.8-5.1,3.7-7.9,2.1
								c-2.8-1.6-3.7-5.1-2.1-7.9s5.1-3.7,7.9-2.1C772.4,428.3,773.4,431.9,771.8,434.6z"/>
						</defs>
						<use xlink:href="#XMLID_00000156586520539428722710000008099080756445494670_"  style="overflow:visible;fill:#7C7CA5;"/>
						<clipPath id="XMLID_00000127014041001987569590000014536923715382472637_">
							<use xlink:href="#XMLID_00000156586520539428722710000008099080756445494670_"  style="overflow:visible;"/>
						</clipPath>
						
							<rect x="765.8" y="423" transform="matrix(0.8679 0.4967 -0.4967 0.8679 315.5482 -324.0721)" style="clip-path:url(#XMLID_00000127014041001987569590000014536923715382472637_);fill:#252542;" width="2.7" height="16.5"/>
					</g>
					<g>
						<defs>
							<path id="XMLID_00000124875496341409040180000000484012425847730827_" d="M781.8,495.4c-1.6,2.8-5.1,3.7-7.9,2.1
								c-2.8-1.6-3.7-5.1-2.1-7.9c1.6-2.8,5.1-3.7,7.9-2.1C782.4,489.1,783.3,492.6,781.8,495.4z"/>
						</defs>
						<use xlink:href="#XMLID_00000124875496341409040180000000484012425847730827_"  style="overflow:visible;fill:#7C7CA5;"/>
						<clipPath id="XMLID_00000111895588758183824370000001922239263608327606_">
							<use xlink:href="#XMLID_00000124875496341409040180000000484012425847730827_"  style="overflow:visible;"/>
						</clipPath>
						
							<rect x="775.7" y="483.8" transform="matrix(0.8679 0.4967 -0.4967 0.8679 347.0358 -320.984)" style="clip-path:url(#XMLID_00000111895588758183824370000001922239263608327606_);fill:#252542;" width="2.7" height="16.5"/>
					</g>
					<g>
						<defs>
							<path id="XMLID_00000049219702636619967980000009057041826469489848_" d="M629.2,458c-1.6,2.8-5.1,3.7-7.9,2.1
								c-2.8-1.6-3.7-5.1-2.1-7.9s5.1-3.7,7.9-2.1C629.8,451.7,630.8,455.2,629.2,458z"/>
						</defs>
						<use xlink:href="#XMLID_00000049219702636619967980000009057041826469489848_"  style="overflow:visible;fill:#7C7CA5;"/>
						<clipPath id="XMLID_00000070081694623649943960000017009467802323212952_">
							<use xlink:href="#XMLID_00000049219702636619967980000009057041826469489848_"  style="overflow:visible;"/>
						</clipPath>
						
							<rect x="623.2" y="446.4" transform="matrix(0.8679 0.4967 -0.4967 0.8679 308.2745 -250.14)" style="clip-path:url(#XMLID_00000070081694623649943960000017009467802323212952_);fill:#252542;" width="2.7" height="16.5"/>
					</g>
					<g>
						<defs>
							<path id="XMLID_00000099641476194199052780000014689211874024470450_" d="M639.1,518.7c-1.6,2.8-5.1,3.7-7.9,2.1
								c-2.8-1.6-3.7-5.1-2.1-7.9c1.6-2.8,5.1-3.7,7.9-2.1C639.8,512.4,640.7,515.9,639.1,518.7z"/>
						</defs>
						<use xlink:href="#XMLID_00000099641476194199052780000014689211874024470450_"  style="overflow:visible;fill:#7C7CA5;"/>
						<clipPath id="XMLID_00000122719435835955686880000009595095709760615340_">
							<use xlink:href="#XMLID_00000099641476194199052780000014689211874024470450_"  style="overflow:visible;"/>
						</clipPath>
						
							<rect x="633.1" y="507.1" transform="matrix(0.8679 0.4967 -0.4967 0.8679 339.7588 -247.0517)" style="clip-path:url(#XMLID_00000122719435835955686880000009595095709760615340_);fill:#252542;" width="2.7" height="16.5"/>
					</g>
				</g>
				<g>
					<defs>
						<polygon id="XMLID_00000016780427385786480260000009413597611184029313_" points="738,415.5 643,432.3 525.9,-379.1 
							591.7,-389.9 						"/>
					</defs>
					<use xlink:href="#XMLID_00000016780427385786480260000009413597611184029313_"  style="overflow:visible;fill:#403F5C;"/>
					<clipPath id="XMLID_00000001646746217469623210000007393627131493810604_">
						<use xlink:href="#XMLID_00000016780427385786480260000009413597611184029313_"  style="overflow:visible;"/>
					</clipPath>
					<g style="clip-path:url(#XMLID_00000001646746217469623210000007393627131493810604_);">
						
							<rect x="529.6" y="-325.5" transform="matrix(0.9869 -0.1614 0.1614 0.9869 59.7245 87.9186)" class="st24" width="82.7" height="3.7"/>
					</g>
					<g style="clip-path:url(#XMLID_00000001646746217469623210000007393627131493810604_);">
						
							<rect x="537.1" y="-266.1" transform="matrix(0.9869 -0.1614 0.1614 0.9869 50.2325 89.9012)" class="st24" width="82.7" height="3.7"/>
					</g>
					<g style="clip-path:url(#XMLID_00000001646746217469623210000007393627131493810604_);">
						
							<rect x="546.7" y="-207" transform="matrix(0.9869 -0.1614 0.1614 0.9869 40.8278 92.2344)" class="st24" width="82.7" height="3.7"/>
					</g>
					<g style="clip-path:url(#XMLID_00000001646746217469623210000007393627131493810604_);">
						
							<rect x="557.7" y="-156.3" transform="matrix(0.9869 -0.1614 0.1614 0.9869 32.7848 94.6749)" class="st24" width="82.7" height="3.7"/>
					</g>
					<g style="clip-path:url(#XMLID_00000001646746217469623210000007393627131493810604_);">
						
							<rect x="559.3" y="-102.4" transform="matrix(0.9869 -0.1614 0.1614 0.9869 24.1487 96.5185)" class="st24" width="93.7" height="4"/>
					</g>
					<g style="clip-path:url(#XMLID_00000001646746217469623210000007393627131493810604_);">
						
							<rect x="567" y="-55.3" transform="matrix(0.9869 -0.1614 0.1614 0.9869 16.6607 98.376)" class="st24" width="93.7" height="4"/>
					</g>
					<g style="clip-path:url(#XMLID_00000001646746217469623210000007393627131493810604_);">
						
							<rect x="573.9" y="-13.2" transform="matrix(0.9869 -0.1614 0.1614 0.9869 9.9515 100.0406)" class="st24" width="93.7" height="4"/>
					</g>
					<g style="clip-path:url(#XMLID_00000001646746217469623210000007393627131493810604_);">
						
							<rect x="581.2" y="31.5" transform="matrix(0.9869 -0.1614 0.1614 0.9869 2.8228 101.8085)" class="st24" width="93.7" height="4"/>
					</g>
					<g style="clip-path:url(#XMLID_00000001646746217469623210000007393627131493810604_);">
						
							<rect x="587.8" y="71.8" transform="matrix(0.9869 -0.1614 0.1614 0.9869 -3.587 103.3993)" class="st24" width="93.7" height="4"/>
					</g>
					<g style="clip-path:url(#XMLID_00000001646746217469623210000007393627131493810604_);">
						
							<rect x="593.8" y="109" transform="matrix(0.9869 -0.1614 0.1614 0.9869 -9.5173 104.8699)" class="st24" width="93.7" height="4"/>
					</g>
					<g style="clip-path:url(#XMLID_00000001646746217469623210000007393627131493810604_);">
						
							<rect x="599.8" y="145.5" transform="matrix(0.9869 -0.1614 0.1614 0.9869 -15.3279 106.3121)" class="st24" width="93.7" height="4"/>
					</g>
					<g style="clip-path:url(#XMLID_00000001646746217469623210000007393627131493810604_);">
						
							<rect x="596.5" y="178.8" transform="matrix(0.9869 -0.1614 0.1614 0.9869 -20.7106 106.9161)" class="st24" width="102.5" height="4.2"/>
					</g>
					<g style="clip-path:url(#XMLID_00000001646746217469623210000007393627131493810604_);">
						
							<rect x="602" y="212.7" transform="matrix(0.9869 -0.1614 0.1614 0.9869 -26.1018 108.2535)" class="st24" width="102.5" height="4.2"/>
					</g>
					<g style="clip-path:url(#XMLID_00000001646746217469623210000007393627131493810604_);">
						
							<rect x="606.6" y="241.1" transform="matrix(0.9869 -0.1614 0.1614 0.9869 -30.6323 109.3769)" class="st24" width="102.5" height="4.2"/>
					</g>
					<g style="clip-path:url(#XMLID_00000001646746217469623210000007393627131493810604_);">
						
							<rect x="611.6" y="271.4" transform="matrix(0.9869 -0.1614 0.1614 0.9869 -35.447 110.5719)" class="st24" width="102.5" height="4.2"/>
					</g>
					<g style="clip-path:url(#XMLID_00000001646746217469623210000007393627131493810604_);">
						
							<rect x="615.6" y="296.2" transform="matrix(0.9869 -0.1614 0.1614 0.9869 -39.4005 111.5528)" class="st24" width="102.5" height="4.2"/>
					</g>
					<g style="clip-path:url(#XMLID_00000001646746217469623210000007393627131493810604_);">
						
							<rect x="619.9" y="322.1" transform="matrix(0.9869 -0.1614 0.1614 0.9869 -43.5339 112.5783)" class="st24" width="102.5" height="4.2"/>
					</g>
					<g style="clip-path:url(#XMLID_00000001646746217469623210000007393627131493810604_);">
						
							<rect x="624" y="347" transform="matrix(0.9869 -0.1614 0.1614 0.9869 -47.4877 113.559)" class="st24" width="102.5" height="4.2"/>
					</g>
					<g style="clip-path:url(#XMLID_00000001646746217469623210000007393627131493810604_);">
						
							<rect x="627.6" y="369.2" transform="matrix(0.9869 -0.1614 0.1614 0.9869 -51.0218 114.4358)" class="st24" width="102.5" height="4.2"/>
					</g>
					<g style="clip-path:url(#XMLID_00000001646746217469623210000007393627131493810604_);">
						
							<rect x="631.3" y="391.7" transform="matrix(0.9869 -0.1614 0.1614 0.9869 -54.6158 115.3268)" class="st24" width="102.5" height="4.2"/>
					</g>
					<g style="clip-path:url(#XMLID_00000001646746217469623210000007393627131493810604_);">
						<path class="st24" d="M606.7-128.4c-0.5-2.8-3-4.6-5.8-4.2c-2.8,0.5-4.6,3-4.2,5.8c0.5,2.8,3,4.6,5.8,4.2
							C605.3-123.1,607.2-125.6,606.7-128.4z"/>
					</g>
					<g style="clip-path:url(#XMLID_00000001646746217469623210000007393627131493810604_);">
						<path class="st24" d="M622.5-31.8c-0.5-2.8-3-4.6-5.8-4.2c-2.8,0.5-4.6,3-4.2,5.8c0.5,2.8,3,4.6,5.8,4.2
							C621.1-26.4,623-29,622.5-31.8z"/>
					</g>
					<g style="clip-path:url(#XMLID_00000001646746217469623210000007393627131493810604_);">
						<path class="st24" d="M636.3,52.5c-0.5-2.8-3-4.6-5.8-4.2c-2.8,0.5-4.6,3-4.2,5.8c0.5,2.8,3,4.6,5.8,4.2
							C634.9,57.9,636.8,55.3,636.3,52.5z"/>
					</g>
					<g style="clip-path:url(#XMLID_00000001646746217469623210000007393627131493810604_);">
						<path class="st24" d="M670,258.2c-0.5-2.8-3-4.6-5.8-4.2c-2.8,0.5-4.6,3-4.2,5.8c0.5,2.8,3,4.6,5.8,4.2
							C668.5,263.5,670.4,260.9,670,258.2z"/>
					</g>
					<g style="clip-path:url(#XMLID_00000001646746217469623210000007393627131493810604_);">
						<g>
							<path class="st24" d="M676.1,159.3c-0.5-2.8-3-4.6-5.8-4.2c-2.8,0.5-4.6,3-4.2,5.8c0.5,2.8,3,4.6,5.8,4.2
								S676.5,162,676.1,159.3z"/>
						</g>
						<g>
							<path class="st24" d="M629.8,166.9c-0.5-2.8-3-4.6-5.8-4.2s-4.6,3-4.2,5.8c0.5,2.8,3,4.6,5.8,4.2S630.2,169.6,629.8,166.9z"
								/>
						</g>
					</g>
				</g>
				<g>
					<g>
						<g>
							<defs>
								<path id="XMLID_00000038371621397560072080000017947922107355158443_" d="M438.1-574.5c3.1-0.5,7.9-12.7,15.1-18.6
									c7.1-5.9,19.8-6.1,19.2-9.8c-0.6-3.6-12.1,0.7-20.5-2.6c-8.8-3.4-17.8-13.9-21-13.3c-6.2,1-9.7,11.8-7.7,24
									C425.2-582.5,431.9-573.4,438.1-574.5z"/>
							</defs>
							<use xlink:href="#XMLID_00000038371621397560072080000017947922107355158443_"  style="overflow:visible;fill:#403F5C;"/>
							<clipPath id="XMLID_00000045609374400420673990000000108364122415097516_">
								<use xlink:href="#XMLID_00000038371621397560072080000017947922107355158443_"  style="overflow:visible;"/>
							</clipPath>
							
								<rect x="417.2" y="-598.8" transform="matrix(0.9869 -0.1614 0.1614 0.9869 100.344 64.7581)" style="clip-path:url(#XMLID_00000045609374400420673990000000108364122415097516_);fill:#252542;" width="63.1" height="27.1"/>
						</g>
						<g>
							<defs>
								<path id="XMLID_00000099636856072848877270000002970865028508813184_" d="M449-507.8c3.1-0.5,7.9-12.7,15.1-18.6
									c7.1-5.9,19.8-6.1,19.2-9.8c-0.6-3.6-12.1,0.7-20.5-2.6c-8.8-3.4-17.8-13.9-21-13.3c-6.2,1-9.7,11.8-7.7,24
									C436.1-515.9,442.8-506.8,449-507.8z"/>
							</defs>
							<use xlink:href="#XMLID_00000099636856072848877270000002970865028508813184_"  style="overflow:visible;fill:#403F5C;"/>
							<clipPath id="XMLID_00000149349986179342068480000015976567702314541492_">
								<use xlink:href="#XMLID_00000099636856072848877270000002970865028508813184_"  style="overflow:visible;"/>
							</clipPath>
							
								<rect x="428.1" y="-532.1" transform="matrix(0.9869 -0.1614 0.1614 0.9869 89.7306 67.3913)" style="clip-path:url(#XMLID_00000149349986179342068480000015976567702314541492_);fill:#252542;" width="63.1" height="27.1"/>
						</g>
						<g>
							<defs>
								<path id="XMLID_00000181770467584579546000000014198051028884397957_" d="M459.9-441.2c3.1-0.5,7.9-12.7,15.1-18.6
									c7.1-5.9,19.8-6.1,19.2-9.8c-0.6-3.6-12.1,0.7-20.5-2.6c-8.8-3.4-17.8-13.9-21-13.3c-6.2,1-9.7,11.8-7.7,24
									C447-449.3,453.7-440.2,459.9-441.2z"/>
							</defs>
							<use xlink:href="#XMLID_00000181770467584579546000000014198051028884397957_"  style="overflow:visible;fill:#403F5C;"/>
							<clipPath id="XMLID_00000106147872510055019610000008942579705406562990_">
								<use xlink:href="#XMLID_00000181770467584579546000000014198051028884397957_"  style="overflow:visible;"/>
							</clipPath>
							
								<rect x="439" y="-465.5" transform="matrix(0.9869 -0.1614 0.1614 0.9869 79.1161 70.0238)" style="clip-path:url(#XMLID_00000106147872510055019610000008942579705406562990_);fill:#252542;" width="63.1" height="27.1"/>
						</g>
					</g>
					<g>
						<g>
							<defs>
								<path id="XMLID_00000152263817082031019500000010262672967959047059_" d="M612.1-602.9c-3.1,0.5-11.5-9.5-20.2-12.8
									c-8.6-3.3-20.7,0.6-21.4-3.2c-0.6-3.6,11.7-3.2,18.6-9c7.3-6.1,12.5-18.8,15.7-19.3c6.2-1,12.9,8.1,14.9,20.3
									C621.8-614.7,618.4-603.9,612.1-602.9z"/>
							</defs>
							<use xlink:href="#XMLID_00000152263817082031019500000010262672967959047059_"  style="overflow:visible;fill:#403F5C;"/>
							<clipPath id="XMLID_00000034050035394012261110000003520831509320404644_">
								<use xlink:href="#XMLID_00000152263817082031019500000010262672967959047059_"  style="overflow:visible;"/>
							</clipPath>
							
								<rect x="567.1" y="-623.3" transform="matrix(-0.9869 0.1614 -0.1614 -0.9869 1090.9952 -1308.098)" style="clip-path:url(#XMLID_00000034050035394012261110000003520831509320404644_);fill:#252542;" width="63.1" height="27.1"/>
						</g>
						<g>
							<defs>
								<path id="XMLID_00000035499406575249471790000005884537421452349869_" d="M623-536.3c-3.1,0.5-11.5-9.5-20.2-12.8
									c-8.6-3.3-20.7,0.6-21.4-3.2c-0.6-3.6,11.7-3.2,18.6-9c7.3-6.1,12.5-18.8,15.7-19.3c6.2-1,12.9,8.1,14.9,20.3
									C632.7-548,629.3-537.3,623-536.3z"/>
							</defs>
							<use xlink:href="#XMLID_00000035499406575249471790000005884537421452349869_"  style="overflow:visible;fill:#403F5C;"/>
							<clipPath id="XMLID_00000086683072818605760970000005850145779859345070_">
								<use xlink:href="#XMLID_00000035499406575249471790000005884537421452349869_"  style="overflow:visible;"/>
							</clipPath>
							
								<rect x="578" y="-556.6" transform="matrix(-0.9869 0.1614 -0.1614 -0.9869 1123.408 -1177.4481)" style="clip-path:url(#XMLID_00000086683072818605760970000005850145779859345070_);fill:#252542;" width="63.1" height="27.1"/>
						</g>
						<g>
							<defs>
								<path id="XMLID_00000019645624392850167370000011182872067754922889_" d="M633.9-469.6c-3.1,0.5-11.5-9.5-20.2-12.8
									c-8.6-3.3-20.7,0.6-21.4-3.2c-0.6-3.6,11.7-3.2,18.6-9c7.3-6.1,12.5-18.8,15.7-19.3c6.2-1,12.9,8.1,14.9,20.3
									S640.2-470.7,633.9-469.6z"/>
							</defs>
							<use xlink:href="#XMLID_00000019645624392850167370000011182872067754922889_"  style="overflow:visible;fill:#403F5C;"/>
							<clipPath id="XMLID_00000080887901865577853900000008360478096719806389_">
								<use xlink:href="#XMLID_00000019645624392850167370000011182872067754922889_"  style="overflow:visible;"/>
							</clipPath>
							
								<rect x="588.9" y="-490" transform="matrix(-0.9869 0.1614 -0.1614 -0.9869 1155.8213 -1046.7975)" style="clip-path:url(#XMLID_00000080887901865577853900000008360478096719806389_);fill:#252542;" width="63.1" height="27.1"/>
						</g>
					</g>
					<path class="st31" d="M546.7-661.5l-64.8,10.6c-16,2.6-25.5,19.2-20,34.4c26.6,73.7,27.2,152,26.3,180.2
						c-0.2,7.1,2.5,13.9,7.4,19c30.6,31.9,30.3,38.2,30.3,38.2l32.9-5.4l32.9-5.4c0,0-2.3-5.8,16.5-45.8c3-6.4,3.4-13.7,0.9-20.4
						c-9.8-26.5-34.2-100.8-32.5-179.2C577-651.5,562.7-664.2,546.7-661.5z"/>
				</g>
				<path class="st24" d="M592.3-386.3l-65.1,10.6c-2.2,0.4-4.2-1.1-4.6-3.3l0,0c-0.4-2.2,1.1-4.2,3.3-4.6l65.1-10.6
					c2.2-0.4,4.2,1.1,4.6,3.3l0,0C595.9-388.7,594.5-386.6,592.3-386.3z"/>
				<g>
					<line class="st32" x1="518.4" y1="-466.5" x2="704.4" y2="794.1"/>
					<line class="st32" x1="515.2" y1="-544.2" x2="725.9" y2="793.3"/>
					<line class="st32" x1="514.7" y1="-611.6" x2="744.8" y2="791.6"/>
					<line class="st32" x1="570.9" y1="-475.1" x2="797.9" y2="778.8"/>
					<line class="st32" x1="547" y1="-549" x2="781.2" y2="785.7"/>
					<line class="st32" x1="525.1" y1="-613.8" x2="763.2" y2="788.6"/>
				</g>
				<g>
					<g>
						<path class="st14" d="M567-474.5c1.3,8,8.9,13.4,16.9,12.1c8-1.3,13.4-8.9,12.1-16.9c-1.3-8-8.9-13.4-16.9-12.1
							C571.1-490,565.7-482.5,567-474.5z"/>
						
							<ellipse transform="matrix(0.4553 -0.8904 0.8904 0.4553 795.0616 197.6226)" class="st14" cx="559" cy="-550.9" rx="14.7" ry="14.7"/>
						<path class="st14" d="M523.9-613.1c1.3,8,8.9,13.4,16.9,12.1c8-1.3,13.4-8.9,12.1-16.9c-1.3-8-8.9-13.4-16.9-12.1
							C528-628.7,522.6-621.1,523.9-613.1z"/>
					</g>
					<g>
						
							<ellipse transform="matrix(0.5018 -0.865 0.865 0.5018 654.8938 207.5479)" class="st14" cx="507.6" cy="-464.8" rx="14.7" ry="14.7"/>
						
							<ellipse transform="matrix(0.5549 -0.8319 0.8319 0.5549 674.4719 177.1637)" class="st14" cx="502.8" cy="-541.7" rx="14.7" ry="14.7"/>
						
							<ellipse transform="matrix(0.7283 -0.6853 0.6853 0.7283 554.7382 179.429)" class="st14" cx="503.6" cy="-609.8" rx="14.7" ry="14.7"/>
					</g>
				</g>
				<g>
					<path class="st14" d="M822.7,780.1L676.5,804c-8.6,1.4-16.7-4.4-18.1-13v0c-1.4-8.6,4.4-16.7,13-18.1l146.2-23.9
						c8.6-1.4,16.7,4.4,18.1,13l0,0C837.1,770.6,831.3,778.7,822.7,780.1z"/>
					<g>
						<defs>
							
								<ellipse id="XMLID_00000005988670324196692310000009148351065844901566_" transform="matrix(0.8862 -0.4632 0.4632 0.8862 -288.2057 402.1542)" cx="674.7" cy="787.9" rx="9.4" ry="9.4"/>
						</defs>
						<use xlink:href="#XMLID_00000005988670324196692310000009148351065844901566_"  style="overflow:visible;fill:#CEC1B5;"/>
						<clipPath id="XMLID_00000073685151785987230610000013520310484868344241_">
							<use xlink:href="#XMLID_00000005988670324196692310000009148351065844901566_"  style="overflow:visible;"/>
						</clipPath>
						
							<rect x="673.1" y="773.7" transform="matrix(0.812 0.5837 -0.5837 0.812 586.3988 -246.1453)" style="clip-path:url(#XMLID_00000073685151785987230610000013520310484868344241_);fill:#252542;" width="4.3" height="26.9"/>
					</g>
					<g>
						<defs>
							<path id="XMLID_00000108283235233670326020000007461196614527954848_" d="M827.6,769.6c-3,4.2-8.9,5.2-13.1,2.1
								c-4.2-3-5.2-8.9-2.1-13.1c3-4.2,8.9-5.2,13.1-2.1C829.7,759.5,830.6,765.4,827.6,769.6z"/>
						</defs>
						<use xlink:href="#XMLID_00000108283235233670326020000007461196614527954848_"  style="overflow:visible;fill:#CEC1B5;"/>
						<clipPath id="XMLID_00000057149761449794326150000004577317526266817441_">
							<use xlink:href="#XMLID_00000108283235233670326020000007461196614527954848_"  style="overflow:visible;"/>
						</clipPath>
						
							<rect x="818.3" y="749.9" transform="matrix(0.812 0.5837 -0.5837 0.812 599.8631 -335.3932)" style="clip-path:url(#XMLID_00000057149761449794326150000004577317526266817441_);fill:#252542;" width="4.3" height="26.9"/>
					</g>
				</g>
				<g>
					<path class="st14" d="M802.3,702.5l-126.1,34.3c-7.4,2-15-2.4-17-9.8v0c-2-7.4,2.4-15,9.8-17L795,675.7c7.4-2,15,2.4,17,9.8
						l0,0C814,692.8,809.7,700.5,802.3,702.5z"/>
					<g>
						<defs>
							<path id="XMLID_00000051346551458547075590000010283682838366692491_" d="M680.3,726.9c-2.3,4-7.3,5.4-11.3,3.1
								c-4-2.3-5.4-7.3-3.1-11.3c2.3-4,7.3-5.4,11.3-3.1C681.2,717.8,682.6,722.9,680.3,726.9z"/>
						</defs>
						<use xlink:href="#XMLID_00000051346551458547075590000010283682838366692491_"  style="overflow:visible;fill:#CEC1B5;"/>
						<clipPath id="XMLID_00000098909353986105215860000009904787896127454875_">
							<use xlink:href="#XMLID_00000051346551458547075590000010283682838366692491_"  style="overflow:visible;"/>
						</clipPath>
						
							<rect x="671.6" y="710.2" transform="matrix(0.8679 0.4967 -0.4967 0.8679 447.6028 -239.1724)" style="clip-path:url(#XMLID_00000098909353986105215860000009904787896127454875_);fill:#252542;" width="3.8" height="23.7"/>
					</g>
					<g>
						<defs>
							<path id="XMLID_00000018228717703781318010000009705323613206041240_" d="M805.6,692.8c-2.3,4-7.3,5.4-11.3,3.1
								c-4-2.3-5.4-7.3-3.1-11.3c2.3-4,7.3-5.4,11.3-3.1C806.5,683.8,807.9,688.8,805.6,692.8z"/>
						</defs>
						<use xlink:href="#XMLID_00000018228717703781318010000009705323613206041240_"  style="overflow:visible;fill:#CEC1B5;"/>
						<clipPath id="XMLID_00000127016238002509382840000001784546583734418353_">
							<use xlink:href="#XMLID_00000018228717703781318010000009705323613206041240_"  style="overflow:visible;"/>
						</clipPath>
						
							<rect x="796.9" y="676.1" transform="matrix(0.8679 0.4967 -0.4967 0.8679 447.1998 -305.8936)" style="clip-path:url(#XMLID_00000127016238002509382840000001784546583734418353_);fill:#252542;" width="3.8" height="23.7"/>
					</g>
				</g>
				<g>
					<g>
						<defs>
							
								<ellipse id="XMLID_00000031202715225119403220000004018769842660654504_" transform="matrix(0.9999 -1.306949e-02 1.306949e-02 0.9999 -4.9468 7.143)" cx="544" cy="382.1" rx="23.4" ry="23.4"/>
						</defs>
						<use xlink:href="#XMLID_00000031202715225119403220000004018769842660654504_"  style="overflow:visible;fill:#CEC1B5;"/>
						<clipPath id="XMLID_00000010292854782000850100000008640527645015317925_">
							<use xlink:href="#XMLID_00000031202715225119403220000004018769842660654504_"  style="overflow:visible;"/>
						</clipPath>
						
							<polyline style="opacity:0.42;clip-path:url(#XMLID_00000010292854782000850100000008640527645015317925_);fill:#252542;" points="
							542.1,370.4 569.6,365.9 573.4,389.2 545.9,393.7 542.1,370.4 						"/>
					</g>
					
						<ellipse transform="matrix(0.5751 -0.8181 0.8181 0.5751 -81.4018 607.3718)" class="st38" cx="544" cy="382.1" rx="14.2" ry="14.2"/>
					<path class="st14" d="M555.7,380.2c1.1,6.4-3.3,12.5-9.7,13.5c-6.4,1.1-12.5-3.3-13.5-9.7c-1.1-6.4,3.3-12.5,9.7-13.5
						C548.6,369.4,554.6,373.7,555.7,380.2z"/>
					<path class="st10" d="M552.1,380.7c0.7,4.5-2.3,8.7-6.8,9.4c-4.5,0.7-8.7-2.3-9.4-6.8s2.3-8.7,6.8-9.4
						C547.2,373.3,551.4,376.3,552.1,380.7z"/>
				</g>
				<g>
					<g>
						<defs>
							
								<ellipse id="XMLID_00000109005127797026180340000000703741202970049717_" transform="matrix(0.2387 -0.9711 0.9711 0.2387 13.6751 1390.7684)" cx="893.8" cy="686.7" rx="23.4" ry="23.4"/>
						</defs>
						<use xlink:href="#XMLID_00000109005127797026180340000000703741202970049717_"  style="overflow:visible;fill:#CEC1B5;"/>
						<clipPath id="XMLID_00000102507005546436378440000018385347164550217899_">
							<use xlink:href="#XMLID_00000109005127797026180340000000703741202970049717_"  style="overflow:visible;"/>
						</clipPath>
						
							<polyline style="opacity:0.42;clip-path:url(#XMLID_00000102507005546436378440000018385347164550217899_);fill:#252542;" points="
							891.9,675 919.3,670.5 923.2,693.8 895.7,698.3 891.9,675 						"/>
					</g>
					
						<ellipse transform="matrix(5.469164e-02 -0.9985 0.9985 5.469164e-02 159.3009 1541.5906)" class="st38" cx="893.8" cy="686.7" rx="14.2" ry="14.2"/>
					<path class="st14" d="M905.5,684.8c1.1,6.4-3.3,12.5-9.7,13.5c-6.4,1.1-12.5-3.3-13.5-9.7c-1.1-6.4,3.3-12.5,9.7-13.5
						C898.3,674,904.4,678.3,905.5,684.8z"/>
					<path class="st10" d="M901.9,685.3c0.7,4.5-2.3,8.7-6.8,9.4c-4.5,0.7-8.7-2.3-9.4-6.8c-0.7-4.5,2.3-8.7,6.8-9.4
						C897,677.9,901.2,680.9,901.9,685.3z"/>
				</g>
				<g>
					<g>
						<defs>
							
								<ellipse id="XMLID_00000149364756730852203200000014079768195374636172_" transform="matrix(0.8749 -0.4842 0.4842 0.8749 -245.1772 543.8712)" cx="930.3" cy="746.6" rx="23.4" ry="23.4"/>
						</defs>
						<use xlink:href="#XMLID_00000149364756730852203200000014079768195374636172_"  style="overflow:visible;fill:#CEC1B5;"/>
						<clipPath id="XMLID_00000063610366113131735610000017373843738474339213_">
							<use xlink:href="#XMLID_00000149364756730852203200000014079768195374636172_"  style="overflow:visible;"/>
						</clipPath>
						
							<polyline style="opacity:0.42;clip-path:url(#XMLID_00000063610366113131735610000017373843738474339213_);fill:#252542;" points="
							928.4,734.9 955.8,730.5 959.6,753.7 932.2,758.2 928.4,734.9 						"/>
					</g>
					
						<ellipse transform="matrix(0.5751 -0.8181 0.8181 0.5751 -215.4966 1078.2288)" class="st38" cx="930.3" cy="746.6" rx="14.2" ry="14.2"/>
					
						<ellipse transform="matrix(0.9399 -0.3415 0.3415 0.9399 -199.0231 362.5658)" class="st14" cx="930.3" cy="746.6" rx="11.8" ry="11.8"/>
					<path class="st10" d="M938.4,745.3c0.7,4.5-2.3,8.7-6.8,9.4c-4.5,0.7-8.7-2.3-9.4-6.8c-0.7-4.5,2.3-8.7,6.8-9.4
						C933.4,737.8,937.7,740.8,938.4,745.3z"/>
				</g>
				<g>
					<g>
						<defs>
							
								<ellipse id="XMLID_00000023271170173263565940000000371783069095887022_" transform="matrix(0.4092 -0.9124 0.9124 0.4092 -162.9682 1360.5485)" cx="969.1" cy="806.1" rx="23.4" ry="23.4"/>
						</defs>
						<use xlink:href="#XMLID_00000023271170173263565940000000371783069095887022_"  style="overflow:visible;fill:#CEC1B5;"/>
						<clipPath id="XMLID_00000039844303496419790450000007584596832571613844_">
							<use xlink:href="#XMLID_00000023271170173263565940000000371783069095887022_"  style="overflow:visible;"/>
						</clipPath>
						
							<polyline style="opacity:0.42;clip-path:url(#XMLID_00000039844303496419790450000007584596832571613844_);fill:#252542;" points="
							967.2,794.5 994.7,790 998.5,813.3 971,817.8 967.2,794.5 						"/>
					</g>
					<path class="st38" d="M983.1,803.8c1.3,7.7-4,15-11.7,16.3c-7.7,1.3-15-4-16.3-11.7c-1.3-7.7,4-15,11.7-16.3
						C974.6,790.9,981.8,796.1,983.1,803.8z"/>
					<path class="st14" d="M980.8,804.2c1.1,6.4-3.3,12.5-9.7,13.5c-6.4,1.1-12.5-3.3-13.5-9.7c-1.1-6.4,3.3-12.5,9.7-13.5
						C973.7,793.4,979.7,797.8,980.8,804.2z"/>
					
						<ellipse transform="matrix(0.322 -0.9467 0.9467 0.322 -106.1023 1464.0819)" class="st10" cx="969.1" cy="806.1" rx="8.2" ry="8.2"/>
				</g>
			</g>
		</g>
	</g>
	<path class="st10" d="M343.9,635.3c-3.4,19.6-14.5,36.6-14.5,36.6c-1.8,3.4-6.9,4.2-11.3,1.9c-4.4-2.4-6.4-7-4.6-10.4
		c1.8-3.4,6.9-4.2,11.3-1.9c0.9,0.5,1.7,1.1,2.4,1.8c8.2-13.8,13.5-34.7,13.5-34.7s22.7,2.4,34.2,7.5c-3.4,19.6-15.6,42.2-15.6,42.2
		c-1.8,3.4-6.9,4.2-11.3,1.9c-4.4-2.4-6.4-7-4.6-10.4c1.8-3.4,6.9-4.2,11.3-1.9c0.9,0.5,1.7,1.1,2.4,1.8
		c8.2-13.8,11.6-29.7,11.6-29.7S349,635.2,343.9,635.3z"/>
	<g>
		<g>
			<defs>
				<circle id="XMLID_00000142895576686736589170000008076002601840800400_" cx="209.3" cy="663.6" r="67"/>
			</defs>
			<use xlink:href="#XMLID_00000142895576686736589170000008076002601840800400_"  style="overflow:visible;fill:#CEC1B5;"/>
			<clipPath id="XMLID_00000068670119991680146650000010122911377506984067_">
				<use xlink:href="#XMLID_00000142895576686736589170000008076002601840800400_"  style="overflow:visible;"/>
			</clipPath>
			
				<rect x="71" y="606.9" transform="matrix(0.6791 -0.7341 0.7341 0.6791 -421.9464 334.3333)" style="opacity:0.3;clip-path:url(#XMLID_00000068670119991680146650000010122911377506984067_);fill:#FFFFFF;" width="200.8" height="85.6"/>
			
				<rect x="96.7" y="649.7" transform="matrix(0.6791 -0.7341 0.7341 0.6791 -423.8891 357.6692)" style="opacity:0.3;clip-path:url(#XMLID_00000068670119991680146650000010122911377506984067_);fill:#FFFFFF;" width="200.8" height="27.8"/>
			
				<rect x="51.1" y="608.7" transform="matrix(0.6791 -0.7341 0.7341 0.6791 -417.5799 315.0254)" style="opacity:0.67;clip-path:url(#XMLID_00000068670119991680146650000010122911377506984067_);fill:#FFFFFF;" width="200.8" height="52.7"/>
		</g>
		
			<ellipse transform="matrix(0.7071 -0.7071 0.7071 0.7071 -407.9348 342.3906)" class="st10" cx="209.3" cy="663.6" rx="20.1" ry="20.1"/>
		
			<ellipse transform="matrix(0.7071 -0.7071 0.7071 0.7071 -407.9348 342.3906)" class="st5" cx="209.3" cy="663.6" rx="13.9" ry="13.9"/>
	</g>
	<g>
		<g>
			<defs>
				<circle id="XMLID_00000106129792341005971330000001984884988394332862_" cx="142.3" cy="505" r="40.4"/>
			</defs>
			<use xlink:href="#XMLID_00000106129792341005971330000001984884988394332862_"  style="overflow:visible;fill:#CEC1B5;"/>
			<clipPath id="XMLID_00000142890140936296852950000012369105227168532622_">
				<use xlink:href="#XMLID_00000106129792341005971330000001984884988394332862_"  style="overflow:visible;"/>
			</clipPath>
			
				<rect x="58.8" y="470.8" transform="matrix(0.6791 -0.7341 0.7341 0.6791 -326.2237 247.0463)" style="opacity:0.3;clip-path:url(#XMLID_00000142890140936296852950000012369105227168532622_);fill:#FFFFFF;" width="121.2" height="51.7"/>
			
				<rect x="74.3" y="496.6" transform="matrix(0.6791 -0.7341 0.7341 0.6791 -327.3965 261.1331)" style="opacity:0.3;clip-path:url(#XMLID_00000142890140936296852950000012369105227168532622_);fill:#FFFFFF;" width="121.2" height="16.8"/>
			
				<rect x="46.8" y="471.9" transform="matrix(0.6791 -0.7341 0.7341 0.6791 -323.5879 235.3911)" style="opacity:0.67;clip-path:url(#XMLID_00000142890140936296852950000012369105227168532622_);fill:#FFFFFF;" width="121.2" height="31.8"/>
		</g>
		
			<ellipse transform="matrix(0.2298 -0.9732 0.9732 0.2298 -381.856 527.492)" class="st10" cx="142.3" cy="505" rx="12.1" ry="12.1"/>
		<circle class="st5" cx="142.3" cy="505" r="8.4"/>
	</g>
	<g>
		<path class="st10" d="M294.4,496.2c0,0-12.6-24.5-35.4-30c0,0,16.1,37.5,19.8,67.7c-1.8-0.2-3.7-0.2-5.7,0.2
			c-9.3,1.5-15.9,8.6-14.8,15.8s9.7,11.9,19,10.4c9.3-1.5,15.9-8.6,14.8-15.8c0,0-5.5-34.8-17.1-57.4
			C275,487.1,287.4,490.7,294.4,496.2z"/>
	</g>
	<g>
		<defs>
			<path id="XMLID_00000109000011889355742430000018068302871456078468_" d="M301.8,367.9c-27.8,18.4-27.4,35.8,33.5,56.8
				c3,1,5.5-0.7,5.7-3.8C345.4,356.6,329.5,349.5,301.8,367.9z"/>
		</defs>
		<use xlink:href="#XMLID_00000109000011889355742430000018068302871456078468_"  style="overflow:visible;fill:#403F5C;"/>
		<clipPath id="XMLID_00000023269934241659398820000011164540268088044458_">
			<use xlink:href="#XMLID_00000109000011889355742430000018068302871456078468_"  style="overflow:visible;"/>
		</clipPath>
		<path style="clip-path:url(#XMLID_00000023269934241659398820000011164540268088044458_);fill:#252542;" d="M286.4,365.7
			c0,0,19.6,48.4,76,42.8c56.5-5.6-16.5,75.4-16.5,75.4l-82.4-55.1l-3.2-46.2L286.4,365.7z"/>
	</g>
	<g>
		<defs>
			<rect id="SVGID_00000033365198556720825510000000834485953439342756_" x="0.4" y="743.6" width="515.6" height="384.8"/>
		</defs>
		<clipPath id="SVGID_00000024713451705269461900000001185099024770514872_">
			<use xlink:href="#SVGID_00000033365198556720825510000000834485953439342756_"  style="overflow:visible;"/>
		</clipPath>
		<g style="clip-path:url(#SVGID_00000024713451705269461900000001185099024770514872_);">
			<g>
				<path class="st48" d="M150.4,920.1L150.4,920.1c-1.5-1.5-1.8-3.7-0.9-5.5l6.5-13l12.9,12.9l-13,6.5
					C154.1,921.9,151.9,921.5,150.4,920.1z"/>
				<g>
					<g>
						<path class="st49" d="M254.2,824l-1.4-1.4l3.7-3.7c1.2-1.2,2.7-1.9,4.3-2l3.2-0.2c1.7-0.1,3.2-1.4,3.5-3l1.6-7.1
							c0.2-0.7,0-1.4-0.5-1.9l-1.5-1.5l-1.5-1.5c-0.5-0.5-1.2-0.7-1.9-0.5l-7.1,1.6c-1.7,0.4-2.9,1.9-3,3.5l-0.2,3.2
							c-0.1,1.6-0.8,3.1-2,4.3l-3.7,3.7l-1.4-1.4c-0.8-0.8-2.3-0.8-3.2,0.2l-38.8,38.8l5.4,5.4l5.4,5.4l38.8-38.8
							C255,826.3,255,824.8,254.2,824z"/>
						<path class="st50" d="M252.2,822l-0.6-0.6l3.7-3.7c1.2-1.2,2.5-2.1,3.7-2.6l2.4-1c1.2-0.5,2.7-1.8,3.4-3.1l3.1-5.7
							c0.3-0.6,0.4-1,0.1-1.3l-0.7-0.7l-0.7-0.7c-0.2-0.2-0.7-0.2-1.3,0.1l-5.7,3.1c-1.3,0.7-2.6,2.1-3.1,3.4l-1,2.4
							c-0.5,1.2-1.4,2.5-2.6,3.7l-3.7,3.7l-0.6-0.6c-0.4-0.4-1.5,0-2.4,1l-38.8,38.8l2.5,2.5l2.5,2.5l38.8-38.8
							C252.1,823.4,252.6,822.4,252.2,822z"/>
						
							<rect x="200.6" y="857.1" transform="matrix(0.7071 0.7071 -0.7071 0.7071 669.4318 102.2104)" class="st49" width="21.4" height="4.2"/>
					</g>
					<path class="st31" d="M158.2,912.3L158.2,912.3c-5.5-5.5-5.5-14.3,0-19.8l41.7-41.7l19.8,19.8L178,912.3
						C172.5,917.8,163.7,917.8,158.2,912.3z"/>
					<path class="st48" d="M163.5,907.5L163,907c-2.8-2.8-2.8-7.4,0-10.2l41.5-41.5l10.7,10.7l-41.5,41.5
						C170.9,910.3,166.3,910.3,163.5,907.5z"/>
					
						<rect x="215.7" y="846.3" transform="matrix(0.7071 0.7071 -0.7071 0.7071 664.4838 90.2604)" class="st14" width="15.2" height="1.9"/>
					
						<rect x="228.9" y="833.1" transform="matrix(0.7071 0.7071 -0.7071 0.7071 659.0161 77.06)" class="st14" width="15.2" height="1.9"/>
				</g>
			</g>
			<g>
				<path class="st48" d="M156,919.3c-32.7,38.5-186.9,230.1-94.1,256.9c120.4,31.2,160.1-170.1,269.1-160.9
					c36.3,3.7,66.7,27.4,92.7,51.3c26.1,24.6,48.9,52.4,70.5,80.8c-37-46.8-80.9-101.6-137.4-124.4c-37.2-14-69.2-3.3-98,22.2
					c-58.4,49.5-103.3,155.5-194.7,136.3c-1-0.3-4-1-5-1.3c-1.2-0.4-3.7-1.3-4.9-1.7c-1.8-0.9-4.7-2-6.3-3.1
					c-53.8-31.8,14.7-137.6,38.5-174.1c19.9-29.9,41.4-58.6,64.4-86.3C150.7,914.8,156,919.3,156,919.3L156,919.3z"/>
			</g>
		</g>
	</g>
	<polygon class="st10" points="334.3,558 338.5,565.3 352.2,562.2 341.2,574.5 342.6,588.9 329.6,585.4 315,596.6 321.2,581 
		314.8,575.2 327.1,569.4 	"/>
	<g class="st3">
		<defs>
			<path id="XMLID_00000060022116839806569490000011253716880119980724_" d="M107.8,62.1c-37.1,8-43.9,26.6,12,74.1
				c2.7,2.3,6.1,1.6,7.7-1.7C158.8,68.2,144.9,54.1,107.8,62.1z"/>
		</defs>
		
			<use xlink:href="#XMLID_00000060022116839806569490000011253716880119980724_"  style="display:inline;overflow:visible;fill:#FFFFFF;"/>
		<clipPath id="XMLID_00000101080564318215029760000005575390653017045437_" class="st4">
			<use xlink:href="#XMLID_00000060022116839806569490000011253716880119980724_"  style="overflow:visible;"/>
		</clipPath>
		<path style="display:inline;clip-path:url(#XMLID_00000101080564318215029760000005575390653017045437_);fill:#FCA551;" d="
			M117.5,71.8c-6.2,10.7-10.9,21.3-13.5,31.9l9.9-5.3l-4.7,20.2c7.3-10.9,13.2-21.8,16.8-32.6l-10.9,5.8L117.5,71.8z"/>
	</g>
</g>
<g id="TEXTS" class="st3">
	<g class="st4">
		<g>
			<g>
				<text transform="matrix(1 0 0 1 956.5626 114.1978)" class="st10 st52 st53">Home</text>
				<text transform="matrix(1 0 0 1 1192.3652 114.1978)" class="st10 st52 st53">Lessons</text>
				<text transform="matrix(1 0 0 1 1078.0103 114.1978)" class="st10 st52 st53">Shop</text>
				<text transform="matrix(1 0 0 1 1334.085 114.1978)" class="st10 st52 st53">About us</text>
				<text transform="matrix(1 0 0 1 1529.6453 110.8828)" class="st10 st52 st53">Login</text>
				<text transform="matrix(1 0 0 1 1703.1541 110.8828)" class="st10 st52 st53">Sign Up</text>
			</g>
		</g>
	</g>
	<g class="st4">
		<g>
			<g>
				<path class="st10" d="M989.5,443.6l2-109.9h15.1l19.4,89.2l19.5-89.2h14.9l2,109.9h-12.3l-1.2-79.8l-18.6,79.8h-8.7l-18.5-79.8
					l-1.2,79.8H989.5z"/>
				<path class="st10" d="M1107.7,444.8c-8,0-14.1-1.6-18.3-4.7c-4.3-3.2-7.1-7.6-8.7-13.4c-1.5-5.7-2.3-12.5-2.3-20.2v-72.9h14.7
					v73.5c0,4.7,0.3,9,1,12.9c0.6,3.9,2,7,4.1,9.2c2.1,2.3,5.3,3.4,9.6,3.4c4.3,0,7.6-1.1,9.6-3.4c2.1-2.3,3.4-5.3,4.1-9.2
					c0.6-3.9,1-8.2,1-12.9v-73.5h14.5v72.9c0,7.7-0.8,14.4-2.3,20.2c-1.5,5.7-4.4,10.2-8.6,13.4
					C1121.8,443.2,1115.7,444.8,1107.7,444.8z"/>
				<path class="st10" d="M1179,444.8c-6.3,0-11.6-1.4-15.8-4.1c-4.2-2.7-7.4-6.5-9.6-11.3c-2.2-4.8-3.4-10.4-3.8-16.7l13.6-3.7
					c0.3,3.9,0.9,7.6,1.8,11.3c1,3.6,2.5,6.6,4.7,8.9c2.2,2.3,5.2,3.5,9.1,3.5c4,0,7-1.1,9-3.3c2-2.2,3.1-5.4,3.1-9.6
					c0-5-1.1-9-3.4-12c-2.3-3-5.1-6.1-8.5-9.2l-18.5-16.3c-3.6-3.2-6.3-6.6-8-10.4c-1.7-3.8-2.6-8.4-2.6-13.9
					c0-8.1,2.3-14.3,6.9-18.7c4.6-4.4,10.9-6.6,18.9-6.6c4.3,0,8.2,0.6,11.5,1.7c3.3,1.1,6.1,2.9,8.3,5.2c2.2,2.4,4,5.3,5.3,8.9
					c1.3,3.6,2.2,7.8,2.6,12.6l-13,3.5c-0.3-3.6-0.8-6.9-1.6-10c-0.8-3-2.2-5.5-4.3-7.3c-2-1.9-5-2.8-8.8-2.8c-3.8,0-6.8,1-8.9,3.1
					c-2.1,2-3.2,5-3.2,9c0,3.3,0.6,6.1,1.7,8.3c1.1,2.2,3,4.4,5.5,6.6l18.6,16.3c4.2,3.6,7.8,7.9,11,13c3.2,5,4.7,11,4.7,17.8
					c0,5.4-1.1,10.1-3.4,14c-2.3,3.9-5.4,6.9-9.3,9C1188.7,443.8,1184.1,444.8,1179,444.8z"/>
				<path class="st10" d="M1218,443.6V333.7h15.1v109.9H1218z"/>
				<path class="st10" d="M1278.4,444.8c-7.8,0-13.8-1.6-18.1-4.9c-4.3-3.3-7.3-7.6-9-13.2c-1.7-5.5-2.5-11.7-2.5-18.5v-38.8
					c0-7.4,0.8-13.9,2.5-19.4c1.7-5.5,4.7-9.8,9-12.8c4.3-3,10.3-4.5,18.1-4.5c6.9,0,12.3,1.3,16.4,3.8c4,2.5,6.9,6.2,8.7,10.9
					c1.8,4.7,2.6,10.4,2.6,17v8.7h-14.5v-7.7c0-4.1-0.2-7.7-0.6-10.8c-0.4-3.1-1.5-5.5-3.3-7.3c-1.8-1.7-4.8-2.6-9.1-2.6
					c-4.3,0-7.5,0.9-9.5,2.8c-2,1.9-3.3,4.5-3.9,7.9c-0.6,3.4-0.9,7.4-0.9,11.9v43.6c0,5.5,0.5,9.9,1.4,13.1
					c0.9,3.2,2.4,5.5,4.5,6.9c2.1,1.4,4.9,2,8.4,2c4.2,0,7.1-0.9,9-2.8c1.8-1.9,2.9-4.4,3.4-7.7c0.5-3.3,0.7-7.1,0.7-11.4v-8.1h14.5
					v8.1c0,6.7-0.8,12.6-2.4,17.7c-1.6,5.1-4.4,9.1-8.4,11.9C1291.3,443.4,1285.7,444.8,1278.4,444.8z"/>
				<path class="st10" d="M1377.8,444.8c-6.3,0-11.6-1.4-15.8-4.1c-4.2-2.7-7.4-6.5-9.6-11.3c-2.2-4.8-3.4-10.4-3.8-16.7l13.6-3.7
					c0.3,3.9,0.9,7.6,1.8,11.3c1,3.6,2.5,6.6,4.7,8.9c2.2,2.3,5.2,3.5,9.1,3.5c4,0,7-1.1,9-3.3c2-2.2,3.1-5.4,3.1-9.6
					c0-5-1.1-9-3.4-12c-2.3-3-5.1-6.1-8.5-9.2l-18.5-16.3c-3.6-3.2-6.3-6.6-8-10.4c-1.7-3.8-2.6-8.4-2.6-13.9
					c0-8.1,2.3-14.3,6.9-18.7c4.6-4.4,10.9-6.6,18.9-6.6c4.3,0,8.2,0.6,11.5,1.7c3.3,1.1,6.1,2.9,8.3,5.2c2.2,2.4,4,5.3,5.3,8.9
					c1.3,3.6,2.2,7.8,2.6,12.6l-13,3.5c-0.3-3.6-0.8-6.9-1.6-10c-0.8-3-2.2-5.5-4.3-7.3c-2-1.9-5-2.8-8.8-2.8c-3.8,0-6.8,1-8.9,3.1
					c-2.1,2-3.2,5-3.2,9c0,3.3,0.6,6.1,1.7,8.3c1.1,2.2,3,4.4,5.5,6.6l18.6,16.3c4.2,3.6,7.8,7.9,11,13c3.2,5,4.7,11,4.7,17.8
					c0,5.4-1.1,10.1-3.4,14c-2.3,3.9-5.4,6.9-9.3,9C1387.5,443.8,1382.9,444.8,1377.8,444.8z"/>
				<path class="st10" d="M1443.6,444.8c-7.8,0-13.8-1.6-18.1-4.9c-4.3-3.3-7.3-7.6-9-13.2c-1.7-5.5-2.5-11.7-2.5-18.5v-38.8
					c0-7.4,0.8-13.9,2.5-19.4c1.7-5.5,4.7-9.8,9-12.8c4.3-3,10.3-4.5,18.1-4.5c6.9,0,12.3,1.3,16.4,3.8c4,2.5,6.9,6.2,8.7,10.9
					c1.8,4.7,2.6,10.4,2.6,17v8.7h-14.5v-7.7c0-4.1-0.2-7.7-0.6-10.8c-0.4-3.1-1.5-5.5-3.3-7.3c-1.8-1.7-4.8-2.6-9.1-2.6
					c-4.3,0-7.5,0.9-9.5,2.8c-2,1.9-3.3,4.5-3.9,7.9c-0.6,3.4-0.9,7.4-0.9,11.9v43.6c0,5.5,0.5,9.9,1.4,13.1
					c0.9,3.2,2.4,5.5,4.5,6.9c2.1,1.4,4.9,2,8.4,2c4.2,0,7.1-0.9,9-2.8c1.8-1.9,2.9-4.4,3.4-7.7c0.5-3.3,0.7-7.1,0.7-11.4v-8.1h14.5
					v8.1c0,6.7-0.8,12.6-2.4,17.7c-1.6,5.1-4.4,9.1-8.4,11.9C1456.4,443.4,1450.8,444.8,1443.6,444.8z"/>
				<path class="st10" d="M1485.9,443.6V333.7h15.3v47.5h28.2v-47.5h15.3v109.9h-15.3v-51.4h-28.2v51.4H1485.9z"/>
				<path class="st10" d="M1590.1,444.8c-7.4,0-13.3-1.4-17.8-4.3c-4.4-2.9-7.6-7-9.5-12.4c-1.9-5.4-2.8-11.7-2.8-18.9v-41.7
					c0-7.2,1-13.5,2.9-18.7c1.9-5.2,5.1-9.2,9.5-11.9c4.4-2.8,10.3-4.1,17.7-4.1c7.4,0,13.3,1.4,17.6,4.2c4.3,2.8,7.5,6.8,9.4,11.9
					c1.9,5.2,2.9,11.4,2.9,18.6v41.8c0,7.1-1,13.4-2.9,18.7c-1.9,5.3-5.1,9.5-9.4,12.4C1603.4,443.3,1597.5,444.8,1590.1,444.8z
					 M1590.1,432.7c4.1,0,7.1-0.8,9.2-2.5c2.1-1.7,3.5-4,4.2-7.1c0.7-3,1.1-6.6,1.1-10.7v-48.2c0-4.1-0.4-7.6-1.1-10.5
					c-0.7-2.9-2.1-5.2-4.2-6.8c-2.1-1.6-5.2-2.4-9.2-2.4s-7.2,0.8-9.3,2.4c-2.1,1.6-3.6,3.8-4.3,6.8c-0.7,2.9-1.1,6.4-1.1,10.5v48.2
					c0,4.1,0.4,7.6,1.1,10.7c0.7,3,2.1,5.4,4.3,7.1C1582.9,431.9,1586,432.7,1590.1,432.7z"/>
				<path class="st10" d="M1663.3,444.8c-7.4,0-13.3-1.4-17.8-4.3c-4.4-2.9-7.6-7-9.5-12.4c-1.9-5.4-2.8-11.7-2.8-18.9v-41.7
					c0-7.2,1-13.5,2.9-18.7c1.9-5.2,5.1-9.2,9.5-11.9c4.4-2.8,10.3-4.1,17.7-4.1c7.4,0,13.3,1.4,17.6,4.2c4.3,2.8,7.5,6.8,9.4,11.9
					c1.9,5.2,2.9,11.4,2.9,18.6v41.8c0,7.1-1,13.4-2.9,18.7c-1.9,5.3-5.1,9.5-9.4,12.4C1676.5,443.3,1670.7,444.8,1663.3,444.8z
					 M1663.3,432.7c4.1,0,7.1-0.8,9.2-2.5c2.1-1.7,3.5-4,4.2-7.1c0.7-3,1.1-6.6,1.1-10.7v-48.2c0-4.1-0.4-7.6-1.1-10.5
					c-0.7-2.9-2.1-5.2-4.2-6.8c-2.1-1.6-5.2-2.4-9.2-2.4s-7.2,0.8-9.3,2.4c-2.1,1.6-3.6,3.8-4.3,6.8c-0.7,2.9-1.1,6.4-1.1,10.5v48.2
					c0,4.1,0.4,7.6,1.1,10.7c0.7,3,2.1,5.4,4.3,7.1C1656.1,431.9,1659.2,432.7,1663.3,432.7z"/>
				<path class="st10" d="M1708.3,443.6V333.7h15.3v98.9h28.1v11H1708.3z"/>
			</g>
		</g>
		<text transform="matrix(1 0 0 1 988.9932 517.0964)" class="st10 st52 st54">For beginners and advanced alike</text>
		<g>
			<g>
				<text transform="matrix(1 0 0 1 1053.665 614.8831)" class="st10 st52 st55">Sign up today</text>
			</g>
			<g>
				<text transform="matrix(1 0 0 1 1382.8994 614.8831)" class="st10 st56 st55">Sign in</text>
			</g>
		</g>
	</g>
	<g class="st4">
		<g>
			<g>
				<g>
					<path class="st10" d="M173.5,111.4V93.5l-10.9-32.8h6.6l7.8,24.5l7.6-24.5h6.6l-10.9,32.8v17.9H173.5z"/>
					<path class="st10" d="M208.9,112c-3.7,0-6.5-0.7-8.4-2.2c-2-1.5-3.3-3.5-4-6.2c-0.7-2.6-1.1-5.7-1.1-9.3V60.8h6.8v33.9
						c0,2.2,0.1,4.2,0.4,5.9c0.3,1.8,0.9,3.2,1.9,4.3c1,1,2.5,1.6,4.4,1.6c2,0,3.5-0.5,4.4-1.6c1-1,1.6-2.5,1.9-4.3
						c0.3-1.8,0.4-3.8,0.4-5.9V60.8h6.7v33.6c0,3.5-0.4,6.6-1.1,9.3c-0.7,2.6-2,4.7-4,6.2C215.4,111.3,212.6,112,208.9,112z"/>
					<path class="st10" d="M229.8,111.4V60.8H240c3.4,0,6.2,0.4,8.4,1.3c2.2,0.9,3.8,2.3,4.9,4.3c1.1,2,1.6,4.6,1.6,7.8
						c0,2-0.2,3.7-0.6,5.3c-0.4,1.6-1.1,3-2,4.1c-0.9,1.1-2.1,1.9-3.6,2.4l7.2,25.4H249l-6.6-23.8h-5.5v23.8H229.8z M236.9,82.6h2.7
						c2,0,3.6-0.2,4.9-0.8c1.3-0.5,2.2-1.4,2.8-2.6c0.6-1.2,0.9-2.9,0.9-5.1c0-3-0.5-5.1-1.6-6.4c-1.1-1.3-3.2-2-6.4-2h-3.1V82.6z"
						/>
					<path class="st10" d="M262.6,111.4V60.8h6.9v50.7H262.6z"/>
				</g>
			</g>
			<text transform="matrix(1 0 0 1 165.3512 138.4237)" class="st10 st57 st58 st59">Guitar</text>
		</g>
	</g>
</g>
</svg>
