<?xml version="1.0" encoding="UTF-8"?>
<svg xmlns="http://www.w3.org/2000/svg" xmlns:xlink="http://www.w3.org/1999/xlink" viewBox="0 0 500 500">
  <defs>
    <style>
      .cls-1 {
        fill: #f48351;
      }

      .cls-2 {
        fill: url(#Degradado_sin_nombre_36-2);
      }

      .cls-3 {
        fill: #fcb086;
      }

      .cls-4 {
        fill: #fff;
      }

      .cls-5 {
        fill: #c6c5b6;
      }

      .cls-6 {
        fill: #d9d9d9;
        mix-blend-mode: multiply;
      }

      .cls-7 {
        fill: #e07b36;
      }

      .cls-8 {
        fill: #ff9929;
      }

      .cls-9 {
        fill: #03708e;
      }

      .cls-10 {
        fill: #f98755;
      }

      .cls-11 {
        fill: #ffa05f;
      }

      .cls-12 {
        fill: #d36e2a;
      }

      .cls-13 {
        clip-path: url(#clippath-2);
      }

      .cls-14 {
        fill: url(#Degradado_sin_nombre_15);
      }

      .cls-15 {
        isolation: isolate;
      }

      .cls-16 {
        clip-path: url(#clippath-6);
      }

      .cls-17 {
        fill: #e59a55;
      }

      .cls-18 {
        clip-path: url(#clippath-7);
      }

      .cls-19 {
        clip-path: url(#clippath-1);
      }

      .cls-20 {
        clip-path: url(#clippath-4);
      }

      .cls-21 {
        fill: #ffd19f;
      }

      .cls-22 {
        fill: #e26433;
      }

      .cls-23 {
        fill: #ffb973;
      }

      .cls-24 {
        clip-path: url(#clippath);
      }

      .cls-25 {
        fill: #f7aa5e;
      }

      .cls-26 {
        fill: #0a3d60;
      }

      .cls-27 {
        fill: none;
      }

      .cls-28 {
        clip-path: url(#clippath-3);
      }

      .cls-29 {
        fill: #d35929;
      }

      .cls-30 {
        fill: #dd8a37;
      }

      .cls-31 {
        fill: #ef6a4b;
      }

      .cls-32 {
        clip-path: url(#clippath-5);
      }

      .cls-33 {
        fill: url(#Degradado_sin_nombre_36);
      }

      .cls-34 {
        fill: url(#Degradado_sin_nombre_26);
      }

      .cls-35 {
        fill: #1695cc;
      }

      .cls-36 {
        fill: #001d2d;
      }

      .cls-37 {
        fill: #f6f6e9;
      }
    </style>
    <linearGradient id="Degradado_sin_nombre_26" data-name="Degradado sin nombre 26" x1="192.05" y1="267.08" x2="194.05" y2="264.23" gradientUnits="userSpaceOnUse">
      <stop offset="0" stop-color="#f48351"/>
      <stop offset="1" stop-color="#e94e0c"/>
    </linearGradient>
    <clipPath id="clippath">
      <path class="cls-27" d="M205.69,248.5c.17,1-.74,2.78-3.16,3.46-2.42,.68-3.73-.11-4.42-.88s.22-4.76,2.64-5.44,4.77,1.87,4.94,2.86Z"/>
    </clipPath>
    <clipPath id="clippath-1">
      <path class="cls-27" d="M192.29,250.55c-.34,.95-2.01,2.05-4.45,1.46-2.44-.6-3.19-1.93-3.41-2.94s2.53-4.03,4.97-3.44c2.44,.6,3.23,3.97,2.9,4.92Z"/>
    </clipPath>
    <linearGradient id="Degradado_sin_nombre_36" data-name="Degradado sin nombre 36" x1="171.22" y1="112.84" x2="169" y2="110.17" gradientUnits="userSpaceOnUse">
      <stop offset="0" stop-color="#ffd19f"/>
      <stop offset="1" stop-color="#ffa05f"/>
    </linearGradient>
    <linearGradient id="Degradado_sin_nombre_36-2" data-name="Degradado sin nombre 36" x1="389.86" y1="115.38" x2="393.71" y2="111.44" xlink:href="#Degradado_sin_nombre_36"/>
    <linearGradient id="Degradado_sin_nombre_15" data-name="Degradado sin nombre 15" x1="333.42" y1="337.12" x2="336.73" y2="332.77" gradientUnits="userSpaceOnUse">
      <stop offset="0" stop-color="#ffa05f"/>
      <stop offset="1" stop-color="#ff7933"/>
    </linearGradient>
    <clipPath id="clippath-2">
      <path class="cls-27" d="M321.48,318.43c-.16,.91,.67,2.55,2.88,3.18,2.21,.63,3.42-.09,4.05-.79,.63-.7-.18-4.36-2.4-5-2.21-.63-4.38,1.69-4.54,2.6Z"/>
    </clipPath>
    <clipPath id="clippath-3">
      <path class="cls-27" d="M334.75,320.09c.31,.87,1.84,1.89,4.08,1.36,2.24-.54,2.94-1.76,3.14-2.68s-2.3-3.71-4.54-3.17c-2.24,.54-2.98,3.62-2.68,4.5Z"/>
    </clipPath>
    <clipPath id="clippath-4">
      <path class="cls-27" d="M404.7,98.13c-.03,1.01-1.29,2.57-3.8,2.74-2.51,.17-3.63-.87-4.15-1.76-.52-.89,1.18-4.61,3.69-4.79,2.51-.17,4.29,2.8,4.25,3.81Z"/>
    </clipPath>
    <clipPath id="clippath-5">
      <path class="cls-27" d="M390.1,97.74c-.42,.92-2.17,1.88-4.56,1.08-2.38-.8-3.02-2.19-3.16-3.21-.14-1.02,2.85-3.81,5.24-3.02,2.38,.8,2.9,4.22,2.48,5.14Z"/>
    </clipPath>
    <clipPath id="clippath-6">
      <path class="cls-27" d="M178.06,91.33c.5,.88,.23,2.86-1.83,4.31-2.05,1.45-3.55,1.14-4.46,.64s-1.38-4.56,.67-6.01c2.05-1.45,5.12,.17,5.61,1.05Z"/>
    </clipPath>
    <clipPath id="clippath-7">
      <path class="cls-27" d="M164.2,98.18c0,1.01-1.21,2.61-3.71,2.86-2.5,.25-3.66-.75-4.2-1.63-.54-.88,1.04-4.65,3.54-4.9,2.5-.25,4.37,2.66,4.37,3.67Z"/>
    </clipPath>
  </defs>
  <g class="cls-15">
    <g id="BACKGROUND">
      <rect class="cls-17" width="500" height="500"/>
    </g>
    <g id="OBJECTS">
      <g>
        <g>
          <path class="cls-23" d="M162.65,262.6H39.95s7.97-9.63,29-13.48c21.03-3.85,20.4-13.48,45.89-15.89,25.5-2.41,47.81,29.38,47.81,29.38Z"/>
          <path class="cls-23" d="M437.46,103.05h-155.7s14.07-9.59,43.48-14.07c29.41-4.48,34.53-11.66,61.29-11.66s50.93,25.73,50.93,25.73Z"/>
        </g>
        <g>
          <path class="cls-4" d="M59.17,265.92c0-6,4.88-10.89,10.89-10.89s10.89,4.88,10.89,10.89-4.88,10.89-10.89,10.89-10.89-4.88-10.89-10.89Zm1.1,0c0,5.4,4.39,9.79,9.79,9.79s9.79-4.39,9.79-9.79-4.39-9.79-9.79-9.79-9.79,4.39-9.79,9.79Z"/>
          <path class="cls-4" d="M424.35,126.92c0-6,4.88-10.89,10.89-10.89s10.89,4.88,10.89,10.89-4.88,10.89-10.89,10.89-10.89-4.88-10.89-10.89Zm1.1,0c0,5.4,4.39,9.79,9.79,9.79s9.79-4.39,9.79-9.79-4.39-9.79-9.79-9.79-9.79,4.39-9.79,9.79Z"/>
          <path class="cls-4" d="M395.65,349.79c0-4.2,3.42-7.62,7.62-7.62s7.62,3.42,7.62,7.62-3.42,7.62-7.62,7.62-7.62-3.42-7.62-7.62Zm1.1,0c0,3.59,2.92,6.52,6.52,6.52s6.52-2.93,6.52-6.52-2.92-6.52-6.52-6.52-6.52,2.93-6.52,6.52Z"/>
          <path class="cls-4" d="M254.15,78.17c0-4.2,3.42-7.62,7.62-7.62s7.62,3.42,7.62,7.62-3.42,7.62-7.62,7.62-7.62-3.42-7.62-7.62Zm1.1,0c0,3.59,2.92,6.52,6.52,6.52s6.52-2.92,6.52-6.52-2.92-6.52-6.52-6.52-6.52,2.92-6.52,6.52Z"/>
          <path class="cls-4" d="M49.88,240.8c0,1.79,1.45,3.24,3.24,3.24s3.24-1.45,3.24-3.24-1.45-3.24-3.24-3.24-3.24,1.45-3.24,3.24Z"/>
          <circle class="cls-4" cx="251.68" cy="96.59" r="3.24"/>
          <path class="cls-4" d="M68.37,343.72c0,1.79,1.45,3.24,3.24,3.24s3.24-1.45,3.24-3.24-1.45-3.24-3.24-3.24-3.24,1.45-3.24,3.24Z"/>
          <circle class="cls-4" cx="403.79" cy="293.1" r="3.24"/>
        </g>
      </g>
      <g>
        <ellipse class="cls-6" cx="247.14" cy="406.45" rx="189.3" ry="15.13"/>
        <g>
          <path class="cls-4" d="M264.74,342.59h-60.25l-11.98,55.53h-58.07l11.98-55.53h-53.72v-55.89h65.69l10.16-47.55h-52.63v-55.9h64.24l11.61-53.72h58.07l-11.61,53.72h60.25l11.61-53.72h58.07l-11.61,53.72h45.01v55.9h-56.62l-10.16,47.55h43.55v55.89h-55.53l-11.98,55.53h-58.07l11.98-55.53Zm22.14-103.44h-60.25l-10.16,47.55h60.25l10.16-47.55Z"/>
          <g>
            <path class="cls-26" d="M179.61,231.28c.17-.23,.33-.42,.47-.63,1.55-2.3,3.65-3.53,6.11-4.14,2.71-.67,5.45-.76,8.22-.3,3.48,.57,6.96,.69,10.44,.72,.84,0,1.69,.04,2.52,.23,2.89,.66,4.45,3.48,3.79,6.73-.28,1.37-.86,2.54-1.69,3.54-.44,.54-.9,1.05-1.35,1.58,1.83,2.5,1.7,5.03,.46,7.55-1.41,2.84-3.41,5.04-5.89,6.56-3.07,1.89-6.3,3.4-9.84,3.94-1.66,.26-3.33,.32-5.02,.06-3.18-.49-6.29-1.26-9.34-2.61-2.85-1.26-4.93-3.38-6.26-6.5-1.16-2.71-1.75-5.56-1.49-8.54,.23-2.64,1.05-4.93,2.82-6.62,1.41-1.34,3-2.12,4.95-1.68,.35,.08,.71,.07,1.09,.11Z"/>
            <path class="cls-1" d="M243.92,271.49c-5.26,1.88-10.77,8.73-10.9,12.42-5.61,2.84-10.41,6.72-15.6,10.24-.35-.5-.68-.86-.9-1.28-.75-1.43-1.51-2.86-2.19-4.31-1.96-4.18-3.84-8.39-5.85-12.55-.77-1.6-1.75-3.12-2.74-4.62-.62-.94-1.59-1.6-2.76-1.79-1.66-.27-3.34-.43-5.02-.6-.8-.08-1.61-.09-2.45-.13v-4.16c.59-.13,1.12-.26,1.65-.36,4.66-.85,7.58-3.53,8.83-7.74,.14-.47,.27-.96,.38-1.46,2.59-2.11,4.5-4.62,4.08-7.79-.31-2.29-2.08-3.83-4.38-3.22-.04-.2-.08-.4-.13-.6-.53-2.38-1.4-4.65-2.68-6.76-4.54-7.53-14.35-9.45-21.42-4.09-4.54,3.44-6.44,8.53-6.31,13.96-3.04-.24-4.4,2.08-3.67,4.58,.93,3.17,3.85,4.79,7.21,5.8,.53,.16,.86,.37,1.13,.8,1.42,2.26,3.24,4.17,5.56,5.64,.26,.17,.53,.5,.57,.79,.23,1.53,.4,3.06,.61,4.76-.63,.04-1.04,.07-1.44,.1-3.19,.21-6.39,.46-9.59,.62-3.89,.2-6.57,2.05-8.4,5.21-2.45,4.25-4.72,8.57-6.73,13.02-2.8,6.2-5.18,12.5-5.79,19.31-.63,7-1.51,13.97-1.77,21-.12,3.28-.23,6.54,.63,9.76,.57,2.14,4.01,7.83,6.63,5.38,2.62-2.45,2.85-8.94,.94-12.43-2.09-3.82-.57-6.36-.14-8.04,.43-1.68,3.75-12.55,4.39-19.77,.64-7.22,6.62-13.72,9.78-18.27,.12-.18-1.62,31.6-2.2,35.49-1.28,8.44-1.8,14.26-2.17,22.22-.21,4.4-.37,10.09-.34,14.49,0,1.22-.23,2.35-.74,3.5-2.12,4.77-4.24,9.54-5.95,14.46-2.21,6.38-3.85,12.85-4.5,19.53-.13,1.33-.16,2.67-.33,3.99-.22,1.7-.17,1.85,1.54,2.49,.21,.08,.42,.17,.64,.23,4.95,1.5,10.03,2.32,15.2,2.74,.76,.06,1.56-.02,2.32-.14,.8-.14,1.06-.62,.79-1.34-.12-.32-.3-.64-.55-.88-1.12-1.07-2.19-2.21-3.43-3.14-2.25-1.69-4.56-3.31-7.38-4.28,.18-.46,.32-.87,.49-1.25,1.41-3.23,2.87-6.44,4.24-9.68,2.31-5.49,4.55-11,6.87-16.49,1.17-2.76,2.24-5.51,2.65-8.51,.71-5.12,1.71-10.21,2.63-15.31,1.09-6.08,2.52-12.09,4.23-18.04,.3-1.04,.32-1.03,1.61-.9,.16,1.2,.31,2.43,.48,3.66,.51,3.85,1.02,7.7,1.55,11.54,.4,2.86,.87,5.71,1.22,8.58,.27,2.23,.41,4.47,.6,6.7,.32,3.74,.66,7.47,.95,11.21,.17,2.24,.19,4.48,.41,6.71,.47,4.76,1.03,9.51,1.56,14.26,.5,4.42,1.53,8.75,2.6,13.07,.19,.78,.57,1.14,1.43,1.27,5.49,.82,10.94,.71,16.36-.47,.57-.12,1.34-.11,1.48-.75,.15-.7-.55-1.06-1.1-1.33-1.33-.67-2.67-1.33-4.06-1.87-2.19-.84-4.43-1.57-6.73-2.37-.11-1.29-.26-2.61-.32-3.94-.2-4.61-.52-9.22-.5-13.83,.02-4.79-.5-9.56-.18-14.35,.34-5.08,.57-10.17,.6-15.25,.04-5.78-.09-11.56-.35-17.33-.22-5.01-3.21-37.03-2.9-36.32,1.6,3.68,3.39,7.27,5.75,10.57,.51,.71,1.04,1.43,1.65,2.06,.72,.75,1.61,1,2.73,.74,1.5-.35,2.88-.89,4.05-1.82,1.44-1.14,2.86-2.29,4.22-3.51,3.84-3.46,7.64-6.96,11.44-10.45,1.06-.97,2.11-1.95,3.16-2.93,1.39-1.29,6.41-4.24,9.81-9.09,3.4-4.85,2.2-9.23-3.06-7.36Z"/>
            <path class="cls-34" d="M189.47,264.06s-.62,4.55,6.03,4.8v-4.16s-2.82,.31-6.03-.64Z"/>
            <path class="cls-26" d="M183.57,236.83s5.39,4.26,13.33,4.67c7.94,.41,.67-6.52,.67-6.52,0,0,4.71,1.94,8.5,9.15,.09-.21,.06-.76,0-.97-.54-2.43-1.26-4.44-2.56-6.6-4.64-7.69-14.64-9.64-21.85-4.17-4.63,3.51-6.26,8.7-6.13,14.24,0,0,7-3.07,8.04-9.81Z"/>
            <path class="cls-31" d="M191.5,255.96c-.07,2.25-1.94,4.01-4.19,3.94-2.25-.07-4.01-1.94-3.94-4.19,.07-2.25,1.94-4.01,4.19-3.94,2.25,.07,4.01,1.94,3.94,4.19Z"/>
            <path class="cls-31" d="M202.43,251.4c-2.25-.07-4.12,1.7-4.19,3.94-.07,2.25,1.7,4.12,3.94,4.19,1.33,.04,2.52-.57,3.29-1.53,.19-.45,.36-.91,.51-1.39,.14-.45,.26-.93,.37-1.41-.14-2.07-1.8-3.74-3.92-3.8Z"/>
            <path class="cls-29" d="M191.1,255.9c.1-.15,.26-.3,.31-.49,.03-.1,0-.36-.28-.36-.85,0-1.51,.62-1.65,1.43-.02,.12-.08,.41,.23,.46,.31,.05,.48-.37,.8-.52,1.1,.82,2.35,1.65,3.73,1.94,1.42,.3,2.83,.33,4.21-.21,.73-.28,2.01-.77,1.83-1.35-.1-.31-1.8,.99-3.95,1.12-1.82,.11-4-.85-5.23-2.03Z"/>
            <path class="cls-29" d="M174.36,248.27c-.31-.09-.44,.39-.13,.48,1.87,.56,3.41,1.78,4.37,3.42-1.01,.59-1.63,1.67-1.61,2.85,0,.32,.5,.32,.49,0-.02-1.01,.5-1.89,1.35-2.4,.2,.4,.38,.82,.51,1.25,.09,.3,.57,.18,.48-.13-.78-2.65-2.81-4.69-5.45-5.47Z"/>
            <path class="cls-35" d="M214.32,288.55c-1.96-4.18-3.84-8.39-5.85-12.55-.77-1.6-1.75-3.12-2.74-4.62-.62-.94-1.59-1.6-2.76-1.79-1.66-.27-3.34-.43-5.02-.6-.6-.06-1.2-.08-1.82-.1-.33,.38-.74,.7-1.2,.9-.98,.44-2.11,.4-3.18,.32-1.66-.12-3.35-.37-4.83-1.11-.62,.04-1.02,.07-1.42,.1-3.19,.21-6.39,.46-9.59,.62-3.89,.2-6.57,2.05-8.4,5.21-2.45,4.25-4.72,8.57-6.73,13.02-.05,.1-.09,.21-.14,.31,3.11,1.4,6.22,2.79,9.33,4.19,1.88-2.87,3.98-5.43,5.46-7.56,.1-.15-1.11,22.32-1.85,31.77,6.07,.21,12.15,.27,18.22,.32,4.75,.04,9.5,.07,14.23-.28-.92-10.74-2.09-23.9-1.89-23.44,.37,.84,.75,1.68,1.14,2.51,3.35-1.85,6.46-4.14,9.24-6.77-.07-.15-.15-.3-.22-.45Z"/>
            <path class="cls-26" d="M191.83,316.98c-6.08-.05-12.15-.11-18.22-.32,0-.06,0-.12,.01-.17-.14,1.87-.27,3.26-.37,3.89-1.28,8.44-1.8,14.26-2.17,22.22-.21,4.4-.37,10.09-.34,14.49,0,1.22-.23,2.35-.74,3.5-2.12,4.77-4.24,9.54-5.95,14.46-2.14,6.18-3.74,12.45-4.43,18.91,2.95,.01,5.9-.01,8.86-.08,.12-.31,.23-.61,.35-.89,1.41-3.23,2.87-6.44,4.24-9.68,2.31-5.49,4.55-11,6.87-16.49,1.17-2.76,2.24-5.51,2.65-8.51,.71-5.12,1.71-10.21,2.63-15.31,1.09-6.08,2.52-12.09,4.23-18.04,.3-1.04,.32-1.03,1.61-.9,.16,1.2,.31,2.43,.48,3.66,.51,3.85,1.02,7.7,1.55,11.54,.4,2.86,.87,5.71,1.22,8.58,.27,2.23,.41,4.47,.6,6.7,.32,3.74,.66,7.47,.95,11.21,.17,2.24,.19,4.48,.41,6.71,.47,4.76,1.03,9.51,1.56,14.26,.31,2.74,.84,5.45,1.44,8.14,2.85-.16,5.7-.42,8.53-.79-.1-1.23-.24-2.48-.3-3.74-.2-4.61-.52-9.22-.5-13.83,.02-4.79-.5-9.56-.18-14.35,.34-5.08,.57-10.17,.6-15.25,.04-5.78-.09-11.56-.35-17.33-.15-3.43-1.6-19.51-2.4-29.09,.38,4.61,.92,10.72,1.39,16.21-4.73,.35-9.49,.32-14.23,.28Z"/>
            <g>
              <path class="cls-35" d="M179.14,401.68c-1.12-1.07-2.19-2.21-3.43-3.15-2.25-1.69-4.56-3.31-7.38-4.28,.05-.13,.09-.25,.14-.37-2.95,.07-5.9,.09-8.86,.08l-.07,.62c-.13,1.33-.16,2.67-.33,3.99-.22,1.7-.17,1.85,1.54,2.49,.21,.08,.42,.17,.64,.23,4.95,1.5,10.03,2.32,15.2,2.74,.76,.06,1.56-.02,2.32-.14,.8-.14,1.06-.62,.79-1.34-.12-.32-.3-.64-.55-.88Z"/>
              <path class="cls-35" d="M218.61,398.52c-1.33-.67-2.67-1.33-4.06-1.87-2.19-.84-4.43-1.57-6.73-2.37l-.02-.2c-2.83,.37-5.68,.63-8.53,.79,.37,1.65,.76,3.29,1.17,4.93,.19,.78,.57,1.14,1.43,1.27,5.49,.82,10.94,.71,16.36-.47,.57-.12,1.34-.11,1.48-.75,.15-.7-.55-1.06-1.1-1.33Z"/>
            </g>
            <path class="cls-37" d="M179.14,401.68c-1.12-1.07-2.19-2.21-3.43-3.15-.6-.45-1.21-.9-1.83-1.33-2.08,.34-4.08,1.2-5.73,2.5-.17,.13-.34,.27-.55,.3-.15,.02-.3-.02-.44-.05-2.63-.66-5.25-1.31-7.88-1.97-.02,.19-.03,.39-.05,.58-.22,1.7-.17,1.85,1.54,2.49,.21,.08,.42,.17,.64,.23,4.95,1.5,10.03,2.32,15.2,2.74,.76,.06,1.56-.02,2.32-.14,.8-.14,1.06-.62,.79-1.34-.12-.32-.3-.64-.55-.88Z"/>
            <path class="cls-37" d="M218.61,398.52c-1.33-.67-2.67-1.33-4.06-1.87-.88-.34-1.78-.65-2.67-.96-1.32,.88-2.43,2.08-3.19,3.48-.04,.08-.09,.17-.17,.22-.09,.06-.2,.06-.3,.06-2.65-.02-5.3-.15-7.94-.34,.06,.23,.11,.46,.16,.7,.19,.78,.57,1.14,1.43,1.27,5.49,.82,10.94,.71,16.36-.47,.57-.12,1.34-.11,1.48-.75,.15-.7-.55-1.06-1.1-1.33Z"/>
            <path class="cls-36" d="M187.94,324.2c2.8-.02,5.59,.14,8.38,.46,.32,.04,.31-.46,0-.49-2.79-.32-5.57-.47-8.38-.46-.32,0-.32,.5,0,.49h0Z"/>
            <path class="cls-36" d="M189.93,324c.34-2.06,.43-4.12,.26-6.21-.03-.32-.52-.32-.49,0,.16,2.04,.09,4.05-.24,6.07-.05,.31,.43,.45,.48,.13h0Z"/>
            <path class="cls-36" d="M191.87,324.06c.38-2.13,.35-4.26,.28-6.41-.01-.32-.51-.32-.49,0,.07,2.1,.11,4.19-.26,6.28-.06,.31,.42,.45,.48,.13h0Z"/>
            <path class="cls-36" d="M174.19,322.4c.94-.51,1.91-1.06,2.61-1.89,.72-.87,.95-1.96,1.14-3.04,.05-.31-.42-.45-.48-.13-.19,1.1-.41,2.2-1.2,3.04-.65,.69-1.5,1.15-2.32,1.6-.28,.15-.03,.58,.25,.43h0Z"/>
            <path class="cls-36" d="M202.73,317.59c.23,1.87,1.45,4.02,3.42,4.4,.31,.06,.44-.42,.13-.48-1.73-.33-2.85-2.27-3.05-3.92-.04-.31-.53-.32-.49,0h0Z"/>
            <path class="cls-36" d="M167.46,392.11c-1.96,0-3.93,0-5.89,0-.32,0-.32,.49,0,.49,1.96,0,3.93,0,5.89,0,.32,0,.32-.49,0-.49h0Z"/>
            <path class="cls-36" d="M167.64,390.5c-1.37,.02-2.74,.04-4.12,.06-.32,0-.32,.5,0,.5,1.37-.02,2.74-.04,4.12-.06,.32,0,.32-.5,0-.49h0Z"/>
            <path class="cls-36" d="M206.74,392.45c-1.89,.19-3.78,.26-5.68,.2-.32,0-.32,.49,0,.49,1.9,.06,3.79-.01,5.68-.2,.31-.03,.32-.53,0-.5h0Z"/>
            <path class="cls-36" d="M205.92,391.31c-1.44,.06-2.88,.09-4.33,.07-.32,0-.32,.49,0,.5,1.44,.02,2.89,0,4.33-.07,.32-.01,.32-.51,0-.49h0Z"/>
            <g>
              <path class="cls-37" d="M203.02,279.26c-.03,1.34,.11,2.68,.25,4.02,.36,3.45,.71,6.9,1.07,10.36,.32,.71,.64,1.43,.97,2.13,3.35-1.85,6.46-4.14,9.24-6.77-.07-.15-.15-.3-.22-.45-1.96-4.18-3.84-8.39-5.85-12.55-.77-1.6-1.75-3.12-2.74-4.62-.37-.57-.89-1.02-1.49-1.34-.31,1.8-.57,3.61-.83,5.42-.18,1.26-.36,2.52-.39,3.79Z"/>
              <path class="cls-37" d="M176.77,274.82c-.15-1.72-.48-3.42-.94-5.09-3.84,.22-6.49,2.06-8.31,5.2-2.45,4.25-4.72,8.57-6.73,13.02-.05,.1-.09,.21-.14,.31,3.11,1.4,6.22,2.79,9.33,4.19,1.87-2.84,3.95-5.39,5.42-7.51,1.25-3.19,1.65-6.69,1.35-10.11Z"/>
            </g>
            <path class="cls-9" d="M186.42,315.52c4.85,.07,9.69-.09,14.52-.5,.32-.03,.32-.52,0-.5-4.83,.4-9.67,.57-14.52,.5-.32,0-.32,.49,0,.49h0Z"/>
            <path class="cls-9" d="M198.38,313.28c-1.97,.25-3.95,.33-5.93,.25-.32-.01-.32,.48,0,.5,1.99,.09,3.96,0,5.93-.25,.31-.04,.32-.54,0-.49h0Z"/>
            <path class="cls-9" d="M175.88,284.19c.56-1.85,.97-3.72,1.24-5.63,.04-.31-.43-.45-.48-.13-.27,1.91-.69,3.78-1.24,5.63-.09,.31,.39,.44,.48,.13h0Z"/>
            <path class="cls-9" d="M176.29,284.86c.92-1.19,1.7-2.46,2.34-3.82,.13-.29-.29-.54-.43-.25-.62,1.32-1.37,2.57-2.26,3.72-.19,.25,.15,.6,.35,.35h0Z"/>
            <g>
              <g>
                <path class="cls-4" d="M205.69,248.5c.17,1-.74,2.78-3.16,3.46-2.42,.68-3.73-.11-4.42-.88s.22-4.76,2.64-5.44,4.77,1.87,4.94,2.86Z"/>
                <g class="cls-24">
                  <path class="cls-35" d="M205.59,247.81c.46,1.63-.49,3.33-2.12,3.78-1.63,.46-3.33-.49-3.78-2.12s.49-3.33,2.12-3.78,3.33,.49,3.78,2.12Z"/>
                </g>
              </g>
              <g>
                <path class="cls-4" d="M192.29,250.55c-.34,.95-2.01,2.05-4.45,1.46-2.44-.6-3.19-1.93-3.41-2.94s2.53-4.03,4.97-3.44c2.44,.6,3.23,3.97,2.9,4.92Z"/>
                <g class="cls-19">
                  <path class="cls-35" d="M192.87,249.82c-.4,1.65-2.06,2.66-3.71,2.25-1.65-.4-2.65-2.06-2.25-3.71,.4-1.65,2.06-2.65,3.71-2.25,1.65,.4,2.65,2.06,2.25,3.71Z"/>
                </g>
              </g>
              <path class="cls-22" d="M193.52,252.42c.15,1.25,1.1,2.27,2.45,2.38,1.39,.11,2.33-.64,2.31-1.47s-1.09-1.31-1.33-1.88c-.53-1.23-.53-3.43-1.74-3.35-1.21,.08-1.84,3.07-1.69,4.32Z"/>
              <path class="cls-26" d="M197.82,243.46c2.38-.54,4.71-.34,6.95,.67,.68,.3,1.11-.76,.44-1.07-2.4-1.08-4.98-1.32-7.54-.74-.72,.16-.56,1.31,.16,1.14h0Z"/>
              <path class="cls-26" d="M193.06,242.01c-2.55-.57-5.16-.32-7.53,.77-.67,.31-.28,1.4,.39,1.09,2.21-1.02,4.58-1.25,6.95-.72,.72,.16,.92-.98,.2-1.14h0Z"/>
            </g>
          </g>
          <g>
            <g>
              <g>
                <path class="cls-21" d="M132.61,175.21c.62-2.42,1.2-4.71,1.78-6.99,.96-3.79,1.79-7.62,2.89-11.37,2.17-7.43,4.53-14.81,7.49-21.98,1.34-3.25,3.02-6.33,4.9-9.29,2.6-4.09,6.36-6.7,10.79-8.45,.14-.05,.32-.01,.48,0,.08,0,.16,.05,.28,.08,.47,1.52,.16,3.05-.1,4.57-.6,3.47-1.89,6.74-3.03,10.06-4.77,13.88-9.92,27.62-15.81,41.07-1.05,2.39-2.02,4.81-3.17,7.15-1.5,3.07-1.81,3.38-5.23,3.32-4.49-.07-8.97-.12-13.46-.21-.69-.02-1.62,.21-2-.57-.44-.92,.37-1.54,.95-2.03,.93-.78,1.93-1.52,3-2.08,2.46-1.31,5.06-2.24,7.81-2.74,.72-.13,1.42-.31,2.42-.53Z"/>
                <path class="cls-26" d="M161.21,117.21c-.12-.04-.2-.08-.28-.08-.16-.01-.34-.06-.48,0-4.43,1.76-8.19,4.36-10.79,8.45-1.88,2.97-3.56,6.04-4.9,9.29-2.96,7.17-5.32,14.54-7.49,21.98-1.1,3.75-1.93,7.58-2.89,11.37-.55,2.19-1.11,4.39-1.7,6.71,1.16,.27,2.3,.65,3.4,1.1,1.37,.56,2.7,1.22,4,1.91,.75-1.67,1.45-3.36,2.18-5.03,5.89-13.45,11.03-27.19,15.81-41.07,1.14-3.31,2.43-6.58,3.03-10.06,.26-1.52,.57-3.05,.1-4.57Z"/>
              </g>
              <path class="cls-35" d="M175.89,74.09c.31-.17,.66-.39,1.03-.55,2.33-.98,4.8-.42,6.35,1.6,.68,.89,1.25,1.94,1.57,3.01,1.74,5.77,.63,10.97-3.41,15.47-3.61,4.02-8.2,6.43-13.4,7.61-4.52,1.02-9.06,1.05-13.54-.37-.47-.15-.94-.29-1.38-.49-1.56-.73-3.12-1.33-4.92-1.04-.6,.1-1.29-.14-1.89-.36-1.73-.65-2.24-1.49-2.15-3.36,.02-.41,.09-.81,.15-1.37-.46-.08-.9-.21-1.35-.23-1.42-.06-2.73-.52-3.94-1.2-.61-.35-1.18-.88-1.6-1.46-.64-.87-.62-1.87,.06-2.73,.55-.7,1.19-1.35,1.86-1.93,4.07-3.53,8.05-7.15,11.55-11.27,2.6-3.06,5.91-5.1,9.81-6.13,4.07-1.06,7.96-.49,11.56,1.58,1.3,.75,2.3,2.01,3.64,3.22Z"/>
              <path class="cls-21" d="M161.27,182.02c-.91-.39-1.89-.39-2.83-.14-.5,.14-1.01,.55-1.34,.97-1.26,1.6-2.46,3.25-3.65,4.91-.52,.73-1.01,1.49-1.44,2.27-3.45,6.2-6.88,12.41-10.33,18.61-2,3.6-3.09,7.53-4.29,11.43-1.89,6.16-3.68,12.34-5.57,18.5-1.34,4.36-2.81,8.69-4.15,13.05-.29,.93-.8,1.6-1.57,2.09-1.86,1.17-3.69,2.42-5.65,3.41-2.76,1.4-5.61,2.61-8.43,3.87-1.29,.58-2.68,.73-4.07,.61-1.92-.17-2.76-1.43-2.13-3.23,.29-.83,.7-1.68,1.26-2.35,1.55-1.89,3.15-3.74,4.85-5.5,1.75-1.82,3.58-3.58,5.49-5.23,.94-.81,1.4-1.74,1.63-2.88,1.03-5.03,2.03-10.07,3.1-15.09,1.77-8.29,3.62-16.56,5.96-24.72,2.55-8.91,6.85-16.89,12.33-24.3,2.42-3.28,4.72-6.65,7.1-9.97,.66-.93,1.43-1.78,2.1-2.71,.47-.66,1.01-1.33,1.23-2.08,1.15-3.99,2.52-7.95,2.98-12.1,.48-4.38,.71-8.78,1.02-13.17,.34-4.96,.65-9.93,.97-14.89,.02-.33,.06-.65,.1-.97,.32-2.35,1.39-4.14,3.74-4.99,2.22-.8,4.42-1.66,6.63-2.49,.53-.2,1.07-.37,1.67-.57,.27-.94,0-1.77-.33-2.7-.62-.12-1.25-.29-1.88-.36-2.05-.23-3.98-.86-5.84-1.72-1.06-.49-2.08-.74-3.28-.62-1.12,.11-2.28-.04-3.4-.24-3.37-.62-5.47-2.77-6.61-5.88-.86-2.35-.07-4.54,2.01-5.98,.33-.23,.69-.4,1.11-.64-.13-.92-.28-1.8-.38-2.68-.78-7.5,2.11-13.4,8.08-17.8,2.63-1.93,5.69-2.81,9-2.44,1.37,.16,2.76,.28,4.1,.58,2.02,.45,3.81,1.41,5.39,2.76,2.39,2.02,4.54,4.23,5.95,7.06,.14,.29,.35,.54,.51,.78,.21,.05,.37,.13,.52,.13,2.48-.13,3.7,1.33,4.4,3.46,.48,1.44,.51,2.85,.04,4.32-.65,2.07-1.69,3.89-3.3,5.34-.68,.62-1.23,1.26-1.49,2.17-1.01,3.46-2.9,6.36-5.61,8.73-.18,.16-.3,.37-.58,.72,.22,.74,.46,1.57,.72,2.48,1.28,.07,2.41,.14,3.55,.2,6.93,.38,13.81,1.15,20.62,2.54,4.65,.95,9.14,2.44,13.39,4.57,1.59,.79,3.06,1.86,4.51,2.91,1.04,.75,1.5,1.82,1.46,3.18-.07,2.05-.19,4.09-.91,6.02-1.28,3.44-2.59,6.86-3.97,10.26-1.6,3.93-3.25,7.83-4.94,11.72-.63,1.45-.65,2.81-.07,4.26,.73,1.81,1.42,3.64,2.09,5.48,.45,1.22,.91,2.45,1.22,3.71,.73,3.02-1.07,5-4.18,4.53-2.2-.33-4.03-1.39-4.99-3.5-.57-1.26-1.04-2.57-1.41-3.9-1.71-6.08-1.8-12.24-.81-18.43,.63-3.94,1.35-7.88,2-11.82,.14-.87,.19-1.76,.3-2.75-1.61-.55-3.15-.4-4.67-.44-1.63-.05-3.26-.08-4.89-.1-1.54-.02-3.08,0-4.72,0-.14,.95-.27,1.75-.38,2.55-.61,4.44-1.15,8.89-1.85,13.32-2.07,13.15-5.18,26.06-8.78,38.86-2.01,7.14-3.82,14.35-6.65,21.23-1.49,3.62-2.98,7.25-4.7,10.76-2.15,4.41-3.09,9.07-3.58,13.89-.58,5.77-.68,11.56-.69,17.35,0,2.69-.15,5.38-.26,8.07-.09,2.35-.84,4.49-2.23,6.38-2.62,3.56-5.63,6.77-8.93,9.71-.79,.71-1.68,1.29-2.76,1.51-1.49,.3-2.66-.5-2.71-1.99-.02-.72,.13-1.46,.3-2.17,.76-3.2,2.19-6.13,3.55-9.1,.41-.89,.83-1.78,1.34-2.61,.81-1.34,.86-2.71,.6-4.22-1.31-7.47-2.27-15-2.8-22.57-.23-3.28,0-6.51,.63-9.73,1.61-8.25,3.94-16.32,6.32-24.38,1.25-4.22,2.53-8.43,3.78-12.65,.23-.77,.63-1.51,.36-2.43Z"/>
              <path class="cls-35" d="M169.39,87.71c9.81,.12-1.5-6.68-3.11-7.62-.12-.07-.19-.11-.19-.11,0,0,.07,.04,.19,.11,1.04,.59,6.56,3.49,16.14,4.38-.16-.24-.37-.49-.51-.78-1.41-2.84-3.56-5.05-5.95-7.06-1.59-1.34-3.37-2.31-5.39-2.76-1.35-.3-2.73-.42-4.1-.58-3.32-.38-6.38,.51-9,2.44-5.97,4.4-8.85,10.29-8.08,17.8,.09,.88,.24,1.76,.38,2.68,0,0,4.57-5.48,5.66-12.61,0,0,3.43,3.99,13.97,4.12Z"/>
              <path class="cls-26" d="M219.19,122.02c-1.45-1.05-2.92-2.11-4.51-2.91-4.25-2.12-8.74-3.61-13.39-4.57-6.8-1.39-13.69-2.16-20.62-2.54-1.05-.06-2.1-.12-3.26-.18-1.4,2.82-3.71,5.18-6.52,6.62-.62,.32-1.32,.59-1.99,.4-.57-.17-.99-.65-1.36-1.12-.65-.83-1.24-1.7-1.79-2.59-2.02,.76-4.04,1.54-6.07,2.28-2.35,.85-3.89,2.87-4.21,5.23-.04,.32-.08,.65-.1,.97-.32,4.96-.15,9.69-.5,14.65-.3,4.39-.54,8.8-1.02,13.17-.45,4.15-1.83,8.11-2.98,12.1-.22,.75-.76,1.43-1.23,2.08-.55,.76-1.15,1.48-1.73,2.23,11.83,.34,23.63,1.73,35.21,4.16,2.13-8.55,3.97-17.17,5.34-25.89,.7-4.43,1.23-8.88,1.85-13.32,.11-.8,.24-1.59,.38-2.55,1.63,0,3.18-.01,4.72,0,1.63,.02,3.26,.05,4.89,.1,1.52,.04,3.06-.1,4.67,.44-.1,.99-.15,1.88-.3,2.75-.66,3.94-1.37,7.87-2,11.82-.43,2.71-.65,5.42-.62,8.11,2.82,.09,5.63,.35,8.42,.78,.08-.34,.19-.69,.35-1.04,1.69-3.89,3.35-7.79,4.94-11.72,1.38-3.4,2.69-6.82,3.97-10.26,.72-1.93,.84-3.97,.91-6.02,.04-1.36-.42-2.43-1.46-3.18Z"/>
              <path class="cls-37" d="M147.55,168.33c-2.38,3.31-4.68,6.69-7.1,9.96-5.48,7.41-9.78,15.39-12.33,24.3-2.33,8.16-4.19,16.43-5.96,24.72-1.07,5.02-2.08,10.06-3.1,15.09-.1,.5-.26,.95-.47,1.37,.63,.74,1.41,1.36,2.27,1.8,1.85,.95,4.01,1.18,6.09,.96,.86-.09,1.7-.28,2.52-.52,.8-2.48,1.6-4.95,2.37-7.44,1.89-6.16,3.67-12.35,5.57-18.5,1.2-3.89,2.29-7.83,4.29-11.43,3.44-6.2,6.88-12.41,10.33-18.61,.44-.78,.92-1.54,1.44-2.27,1.19-1.66,2.39-3.3,3.65-4.91,.33-.42,.84-.83,1.34-.97,.93-.26,1.91-.25,2.83,.14,.27,.92-.13,1.66-.36,2.43-1.26,4.22-2.54,8.43-3.78,12.65-2.38,8.05-4.71,16.12-6.32,24.38-.63,3.22-.86,6.46-.63,9.73,.53,7.57,1.48,15.1,2.8,22.57,.13,.72,.18,1.4,.11,2.07,.8,.26,1.69,.33,2.53,.34,2.78,.05,5.57-.34,8.24-1.12,.1-2.29,.2-4.58,.21-6.86,.01-5.79,.11-11.58,.69-17.35,.48-4.82,1.43-9.48,3.58-13.89,1.71-3.51,3.21-7.14,4.7-10.76,2.83-6.88,4.64-14.09,6.65-21.23,1.21-4.31,2.36-8.63,3.44-12.97-11.58-2.43-23.38-3.82-35.21-4.16-.12,.16-.25,.31-.37,.48Z"/>
              <g>
                <g>
                  <path class="cls-26" d="M120.86,245.58c-.86-.44-1.64-1.06-2.27-1.8,0,0,0,0,0,0-.27,.55-.64,1.05-1.17,1.51-1.91,1.65-3.74,3.41-5.49,5.23-1.7,1.76-3.29,3.62-4.85,5.5-.56,.67-.97,1.52-1.26,2.35-.63,1.81,.21,3.06,2.13,3.23,1.39,.12,2.78-.03,4.07-.61,2.82-1.26,5.68-2.47,8.43-3.87,1.96-.99,3.79-2.24,5.65-3.41,.77-.48,1.28-1.15,1.57-2.09l1.79-5.61c-.83,.24-1.67,.43-2.52,.52-2.07,.22-4.23,0-6.09-.96Z"/>
                  <path class="cls-26" d="M155.62,256.19c-.85-.01-1.73-.09-2.53-.34h0c-.07,.74-.28,1.45-.71,2.15-.51,.83-.93,1.72-1.34,2.61-1.36,2.96-2.79,5.9-3.55,9.1-.17,.71-.32,1.45-.3,2.17,.05,1.49,1.22,2.29,2.71,1.99,1.08-.22,1.97-.8,2.76-1.51,3.29-2.94,6.3-6.16,8.93-9.71,1.39-1.88,2.14-4.03,2.23-6.38l.05-1.21c-2.67,.78-5.46,1.17-8.24,1.12Z"/>
                </g>
                <g>
                  <path class="cls-35" d="M117.29,255.5c-.76-.68-1.33-1.57-2.15-2.17-.96-.7-2.17-.93-3.34-1.07-.45-.05-.9-.09-1.35-.12-1.15,1.27-2.28,2.56-3.37,3.88-.56,.67-.97,1.52-1.26,2.35-.63,1.81,.21,3.06,2.13,3.23,1.39,.12,2.78-.03,4.07-.61,2.82-1.26,5.68-2.47,8.43-3.87,1.96-.99,3.79-2.24,5.65-3.41,.77-.48,1.28-1.15,1.57-2.09l.64-2.02c-.72,.41-1.44,.81-2.14,1.25-2.86,1.76-5.65,3.78-8.89,4.65Z"/>
                  <path class="cls-35" d="M154.94,265.75c-.08,.08-.17,.16-.28,.19-.12,.03-.25,0-.38-.03-1.8-.46-3.7-.49-5.52-.13-.5,1.28-.95,2.58-1.27,3.93-.17,.71-.32,1.45-.3,2.17,.05,1.49,1.22,2.29,2.71,1.99,1.08-.22,1.97-.8,2.76-1.51,3.29-2.94,6.3-6.16,8.93-9.71,1.3-1.77,2.02-3.77,2.18-5.95-2.69,3.23-5.76,6.15-8.83,9.04Z"/>
                </g>
              </g>
              <path class="cls-3" d="M173.22,100.36c.77,2.11,3.1,3.2,5.21,2.43,2.11-.77,3.2-3.1,2.43-5.21-.77-2.11-3.1-3.2-5.21-2.43-2.11,.77-3.2,3.1-2.43,5.21Z"/>
              <path class="cls-3" d="M159.06,106.02c.77,2.11,3.1,3.2,5.21,2.43,2.11-.77,3.2-3.1,2.43-5.21-.77-2.11-3.1-3.2-5.21-2.43-2.11,.77-3.2,3.1-2.43,5.21Z"/>
              <path class="cls-30" d="M173.58,100.19c-.14-.11-.34-.21-.44-.37-.06-.09-.12-.34,.16-.43,.81-.26,1.63,.12,2.02,.84,.06,.11,.21,.37-.08,.51-.28,.14-.57-.2-.93-.24-.79,1.12-1.72,2.3-2.94,3.01-1.26,.73-2.59,1.19-4.06,1.11-.78-.04-2.15-.1-2.16-.7,0-.33,2.02,.37,4.1-.18,1.76-.47,3.53-2.06,4.33-3.56Z"/>
            </g>
            <path class="cls-30" d="M184.83,86.82c.25-.2,.55,.19,.3,.39-1.52,1.23-2.47,2.95-2.74,4.82,1.16,.16,2.15,.92,2.58,2.02,.12,.3-.34,.49-.46,.19-.37-.94-1.19-1.55-2.16-1.7-.03,.45-.04,.9,0,1.35,.03,.32-.46,.38-.49,.06-.29-2.74,.81-5.41,2.96-7.14Z"/>
            <path class="cls-36" d="M190.07,129.48c-1.2-2.19-2.46-4.43-2.96-6.91-.53-2.62,.11-4.97,1-7.4,.11-.3-.37-.43-.48-.13-2.03,5.55-.77,9.63,2,14.69,.15,.28,.58,.03,.43-.25h0Z"/>
            <path class="cls-36" d="M154.94,140.99c-.44-6.11-.78-12.23-1.04-18.36-.01-.32-.51-.32-.49,0,.25,6.12,.6,12.24,1.04,18.36,.02,.32,.52,.32,.49,0h0Z"/>
            <path class="cls-36" d="M153.48,164.94c6.99-.15,13.98-.04,20.96,.33,.32,.02,.32-.48,0-.49-6.98-.37-13.97-.48-20.96-.33-.32,0-.32,.5,0,.49h0Z"/>
            <path class="cls-36" d="M158.16,163.78c2.78-.22,5.57-.34,8.36-.34,.32,0,.32-.5,0-.49-2.79,0-5.58,.12-8.36,.34-.32,.03-.32,.52,0,.49h0Z"/>
            <path class="cls-5" d="M164.24,181.88c-1.28-.15-2.56-.27-3.84-.38-.34-4.39,1.07-7.73,3.38-11.38,.17-.27-.26-.52-.43-.25-2.37,3.76-3.78,7.11-3.45,11.59-.93-.08-1.85-.15-2.78-.21-.65-3.86-.17-7.65,1.44-11.23,.13-.29-.3-.54-.43-.25-1.64,3.66-2.14,7.5-1.51,11.46-2-.12-4.01-.2-6.02-.22-.32,0-.32,.49,0,.5,4.56,.06,9.11,.35,13.64,.87,.32,.04,.31-.46,0-.49Z"/>
            <path class="cls-5" d="M175.91,171.42c-.16,3.08,.95,7.37,4.33,8.29,.31,.08,.44-.39,.13-.48-3.17-.86-4.12-4.98-3.97-7.81,.02-.32-.48-.32-.49,0h0Z"/>
            <path class="cls-5" d="M154.56,255.15c2.81-.08,5.56-.46,8.28-1.16,.31-.08,.18-.56-.13-.48-2.68,.68-5.39,1.06-8.15,1.14-.32,0-.32,.5,0,.49h0Z"/>
            <path class="cls-5" d="M154.94,254.06c1.38-.17,2.72-.45,4.05-.83,.31-.09,.18-.57-.13-.48-1.29,.38-2.59,.65-3.92,.82-.31,.04-.32,.53,0,.5h0Z"/>
            <path class="cls-5" d="M120.7,243.77c1.57,1.51,4.35,1.45,6.37,1.33,.32-.02,.32-.51,0-.49-1.88,.11-4.56,.22-6.02-1.19-.23-.22-.58,.13-.35,.35h0Z"/>
            <path class="cls-5" d="M122.88,243.41c1.2,.21,2.41,.3,3.63,.24,.32-.01,.32-.51,0-.5-1.18,.05-2.34-.02-3.5-.23-.31-.06-.45,.42-.13,.48h0Z"/>
            <path class="cls-33" d="M173.62,110.32c-2.23,1.36-5.96,1.32-5.96,1.32,.32,.93,.59,1.76,.33,2.7,6.56,1.15,5.64-4.03,5.64-4.03Z"/>
            <path class="cls-36" d="M205.31,130.43c.57-1.92,1.49-3.66,2.77-5.2,.2-.24-.15-.6-.35-.35-1.33,1.61-2.3,3.42-2.9,5.42-.09,.31,.39,.44,.48,.13h0Z"/>
            <path class="cls-36" d="M206,130.67c1.77-1.69,3.78-3.02,6.02-4.01,.29-.13,.04-.55-.25-.43-2.28,1-4.32,2.37-6.12,4.08-.23,.22,.12,.57,.35,.35h0Z"/>
          </g>
          <g>
            <path class="cls-37" d="M394.67,132.67c.07-1.76,.16-4.39,.31-7.01,.04-.67,.21-1.33,.36-1.99,.21-.91,.74-1.63,1.46-2.22,1.77-1.45,3.75-1.21,5.06,.66,.83,1.18,1.34,2.52,1.58,3.94,.3,1.78,.58,3.56,.83,5.34,1.56,11.16,3.49,22.26,5.82,33.28,.15,.73,.24,1.49,.23,2.23-.05,3.73-3.75,5.88-7.04,4.12-1.02-.54-1.78-1.36-2.43-2.31-1.3-1.88-2.07-4-2.75-6.15-1.02-3.24-1.43-6.6-1.84-9.96-.43-3.51-.84-7.01-1.13-10.53-.24-2.84-.29-5.7-.46-9.43Z"/>
            <path class="cls-26" d="M369.13,113.61c-.11-.68-.25-1.27-.29-1.87-.48-7.21-.86-14.42-.13-21.64,.39-3.86,1.4-7.53,3.61-10.8,2.51-3.7,6-6.05,10.23-7.35,5.24-1.62,10.28-.79,15.13,1.46,5.06,2.34,9.13,5.79,11.55,10.94,1.13,2.39,1.78,4.94,2.4,7.5,.97,4.03,1.56,8.13,2.09,12.22,.28,2.15,.17,4.35,.17,6.53,0,1.52-.68,2.7-1.87,3.68-3.51,2.89-7.54,4.46-12.05,4.37-4.36-.08-8.71-.2-13.07,.01-2.35,.11-4.64-.43-6.9-1.01-2.11-.54-4.2-1.16-6.28-1.83-1.57-.51-3.11-1.12-4.6-2.24Z"/>
            <path class="cls-21" d="M370.52,157.48c-.45,1.43-.94,2.86-1.36,4.3-1.91,6.57-3.8,13.15-5.7,19.73-.39,1.34-.66,1.66-2.01,1.69-4.14,.09-8.28,.1-12.42,.13-.68,0-1.49-.06-1.71-.8-.25-.87,.5-1.37,1.14-1.73,1.24-.7,2.52-1.35,3.8-1.97,2.68-1.3,2.13-.79,2.62-3.43,.66-3.55,1.14-7.13,1.85-10.67,1.47-7.39,3.57-14.61,6.07-21.71,2.1-5.96,4.32-11.87,6.81-17.69,.24-.55,.49-1.1,.74-1.65,1.17-2.53,3.02-4.27,5.76-5,1.67-.44,3.34-.9,5-1.34,.51-.14,1.02-.26,1.59-.4,.94-1.72,1.57-3.53,2.09-5.43-1.5-1.41-2.92-2.74-4.46-4.19-.31-.03-.75-.08-1.19-.13-3.5-.4-5.97-2.34-7.65-5.32-.43-.77-.7-1.68-.84-2.55-.33-2.24,1-4.01,3.23-4.4,.59-.1,1.2-.08,1.95-.13,.03-.48,.12-.98,.09-1.47-.12-1.89-.08-3.77,.5-5.59,1.87-5.94,5.89-9.52,12.01-10.56,9.76-1.67,19.4,6.01,20.02,16.16,.02,.37,.06,.75,.09,1.14,.18,.15,.33,.32,.52,.42,2.48,1.26,3.06,3.97,2.28,6.42-1,3.15-3.1,5.33-6.13,6.5-1.16,.45-2.1,1.03-2.99,1.88-1.76,1.7-3.9,2.8-6.17,3.65-.56,.21-1.13,.39-1.78,.61-.3,.99-.61,1.98-.94,3.06,.57,.28,1.02,.51,1.48,.73,1.56,.75,3.13,1.46,4.66,2.26,2.49,1.29,3.76,3.46,3.93,6.18,.11,1.79,.05,3.62-.19,5.4-.49,3.66-1.33,7.25-2.46,10.77-.63,1.95-1.08,3.93-1.1,5.97-.05,3.54-.03,7.07,0,10.61,0,.67,.17,1.33,.28,2.1,.62,.25,1.23,.52,1.85,.75,5.72,2.13,11.31,4.55,16.73,7.34,4.14,2.14,8.31,4.26,12.08,7.04,1.57,1.16,3.09,2.4,4.59,3.65,1.41,1.17,2.39,2.69,3.25,4.29,1.8,3.33,3.05,6.88,4.14,10.48,1.48,4.89,2.82,9.83,4.27,14.74,.76,2.6,1.61,5.17,2.43,7.75,.09,.28,.26,.53,.42,.84,.8,.28,1.63,.16,2.44,.16,3.47-.02,6.92,.28,10.32,1,.73,.16,1.46,.37,2.14,.67,.84,.37,1,1.16,.35,1.84-.56,.59-1.22,1.15-1.94,1.5-1.77,.83-3.55,1.65-5.41,2.25-3.36,1.08-6.78,1.99-10.18,2.95-1.47,.41-2.95,.54-4.62-.01-.71-1.46-1.49-3-2.22-4.56-1.09-2.32-2.12-4.66-3.22-6.97-2.08-4.35-3.67-8.9-5.34-13.41-1.36-3.67-2.61-7.38-3.82-11.1-.41-1.24-1.08-2.06-2.28-2.58-2.55-1.1-5.07-2.28-7.61-3.42-.12-.05-.28,0-.63,.03,.47,.64,.86,1.21,1.29,1.76,1.3,1.68,2.37,3.48,3.05,5.5,.42,1.23,.58,2.48,.51,3.77-.2,3.65-1.15,7.13-2.48,10.5-1.94,4.89-3.98,9.75-5.99,14.62-1.95,4.73-3.94,9.44-5.88,14.17-.51,1.24-1.02,2.51-1.08,3.67,1.49,2.49,2.92,4.78,4.26,7.13,1.05,1.84,1.78,3.82,2.28,5.88,.19,.79,.28,1.63,.28,2.45,0,.85-.57,1.4-1.46,1.38-.73-.02-1.53-.12-2.17-.44-1.21-.6-2.39-1.28-3.47-2.09-3.2-2.4-5.93-5.33-8.73-8.17-1.07-1.08-1.62-2.37-1.4-3.89,.35-2.38,.69-4.76,1.14-7.13,1.96-10.4,5.38-20.35,9.38-30.11,.54-1.32,1.07-2.65,1.59-3.98,.16-.42,.25-.86,.39-1.39-.43-.3-.84-.61-1.28-.88-2.31-1.42-4.64-2.8-6.93-4.24-6.06-3.81-12.35-7.19-18.9-10.09-.62-.27-1.23-.56-1.84-.87-4.9-2.46-7.92-6.41-9-11.75-1.01-4.98-.14-15.8-.14-15.8,0,0-.47,.9-.58,1.23Z"/>
            <path class="cls-26" d="M386.1,84.04s6.81,7.88,15.24,9.35c0,0-2.11-3.77-3.09-8.52,0,0,5.05,8.11,10.73,9.94,.22-.27,.18-1.17,.16-1.56-.65-10.56-10.69-18.56-20.85-16.83-6.38,1.09-10.56,4.81-12.51,11-.6,1.89-.64,3.85-.52,5.82,.03,.51,.27,1.07,.58,1.53,0,0,6.34-3.26,10.26-10.73Z"/>
            <path class="cls-30" d="M373.75,97.37c-.28-.1-.42,.33-.15,.43,1.69,.61,3.05,1.82,3.85,3.37-.96,.49-1.59,1.46-1.63,2.55-.01,.29,.44,.32,.46,.03,.04-.93,.56-1.71,1.37-2.14,.16,.38,.31,.77,.4,1.18,.07,.29,.51,.19,.45-.1-.58-2.48-2.35-4.46-4.74-5.32Z"/>
            <path class="cls-3" d="M380.69,103.43c.56,2.01,2.64,3.19,4.65,2.64s3.19-2.64,2.64-4.65c-.56-2.01-2.64-3.19-4.65-2.64-2.01,.56-3.19,2.64-2.64,4.65Z"/>
            <path class="cls-3" d="M397.77,104.63c.56,2.01,2.64,3.19,4.65,2.64,2.01-.56,3.19-2.64,2.64-4.65-.56-2.01-2.64-3.19-4.65-2.64-2.01,.56-3.19,2.64-2.64,4.65Z"/>
            <path class="cls-4" d="M399.09,104.06c-2.46-1.24-8.96-1.76-12.47-.96,.1,.4,2.5,4.31,6.28,4.31,3.78,0,5.81-2.34,6.19-3.35Z"/>
            <path class="cls-37" d="M399.92,161c-.11-.77-.27-1.44-.28-2.1-.02-3.54-.04-7.07,0-10.61,.03-2.04,.48-4.02,1.1-5.97,1.13-3.51,1.97-7.11,2.46-10.77,.24-1.78,.31-3.61,.19-5.4-.17-2.72-1.44-4.89-3.93-6.18-1.53-.8-3.11-1.51-4.66-2.26-.09-.05-.19-.09-.29-.14-1.35,1.73-2.93,3.27-4.71,4.54-.11,.08-.23,.16-.37,.17-.11,0-.21-.04-.31-.08-2.6-1.12-4.88-2.96-6.54-5.25-.53,.13-1.01,.25-1.48,.38-1.67,.45-3.34,.9-5,1.34-2.74,.73-4.59,2.47-5.76,5-.25,.55-.51,1.09-.74,1.65-2.48,5.81-4.71,11.73-6.81,17.69-2.5,7.11-4.6,14.32-6.07,21.71-.71,3.54-1.19,7.12-1.85,10.67-.13,.67-.18,1.14-.24,1.49,3.17,.85,6.43,1.37,9.71,1.55,1.6-5.55,3.2-11.1,4.81-16.64,.42-1.44,.91-2.87,1.36-4.3,.1-.33,.58-1.23,.58-1.23,0,0-.87,10.82,.14,15.8,0,.03,.01,.05,.02,.08,10.49-.7,20.76-4.55,29.1-10.95-.14-.06-.29-.12-.44-.18Z"/>
            <path class="cls-35" d="M464.58,219.72c-.68-.3-1.41-.52-2.14-.67-3.4-.73-6.84-1.02-10.32-1-.81,0-1.64,.12-2.44-.16-.16-.31-.33-.56-.42-.84-.82-2.58-1.67-5.15-2.43-7.75-1.44-4.91-2.78-9.84-4.27-14.74-1.09-3.6-2.34-7.15-4.14-10.48-.87-1.6-1.84-3.12-3.25-4.29-1.5-1.25-3.02-2.49-4.59-3.65-3.77-2.79-7.93-4.91-12.08-7.04-5.42-2.79-11.01-5.21-16.73-7.34-.48-.18-.94-.38-1.41-.58-8.34,6.4-18.61,10.25-29.1,10.95,1.09,5.29,4.11,9.22,8.98,11.67,.6,.3,1.22,.6,1.84,.87,6.55,2.9,12.83,6.28,18.9,10.09,2.29,1.44,4.62,2.82,6.93,4.24,.44,.27,.85,.58,1.28,.88-.15,.52-.23,.97-.39,1.39-.51,1.33-1.05,2.66-1.59,3.98-4,9.76-7.41,19.71-9.38,30.11-.45,2.36-.79,4.75-1.14,7.13-.22,1.52,.33,2.81,1.4,3.89,2.8,2.84,5.53,5.77,8.73,8.17,1.08,.81,2.26,1.5,3.47,2.09,.64,.32,1.44,.42,2.17,.44,.89,.02,1.46-.53,1.46-1.38,0-.82-.09-1.66-.28-2.45-.5-2.05-1.23-4.04-2.28-5.88-1.34-2.34-2.77-4.64-4.26-7.13,.06-1.16,.57-2.43,1.08-3.67,1.94-4.73,3.93-9.45,5.88-14.17,2.01-4.87,4.05-9.72,5.99-14.62,1.34-3.37,2.29-6.85,2.49-10.5,.07-1.3-.09-2.54-.51-3.77-.69-2.02-1.75-3.82-3.05-5.5-.43-.55-.82-1.12-1.29-1.76,.34-.02,.51-.08,.63-.03,2.54,1.14,5.06,2.32,7.61,3.42,1.2,.52,1.87,1.34,2.28,2.58,1.21,3.72,2.46,7.43,3.82,11.1,1.67,4.51,3.27,9.06,5.34,13.41,1.1,2.31,2.13,4.65,3.22,6.97,.73,1.56,1.51,3.1,2.22,4.56,1.67,.55,3.15,.43,4.62,.01,3.4-.96,6.81-1.88,10.18-2.95,1.85-.59,3.64-1.42,5.41-2.25,.72-.34,1.38-.91,1.94-1.5,.65-.68,.48-1.47-.35-1.84Z"/>
            <path class="cls-9" d="M417.9,185.98c-5.46-4.6-11.29-8.67-17.5-12.21-.28-.16-.53,.27-.25,.43,6.17,3.52,11.96,7.56,17.4,12.13,.24,.2,.59-.14,.35-.35h0Z"/>
            <path class="cls-9" d="M401.98,174.89c.9-1.1,1.74-2.24,2.52-3.43,.17-.27-.25-.52-.43-.25-.75,1.15-1.57,2.27-2.44,3.33-.2,.24,.15,.6,.35,.35h0Z"/>
            <path class="cls-9" d="M401.11,174.12c-1.17-3.89-4.51-6.17-7.92-8-.28-.15-.53,.28-.25,.43,3.29,1.76,6.56,3.95,7.69,7.7,.09,.3,.57,.17,.48-.13h0Z"/>
            <path class="cls-9" d="M403.37,172.78c-.61-1.65-1.23-3.34-2.27-4.78-1.09-1.52-2.62-2.39-4.07-3.52-.25-.19-.6,.15-.35,.35,1.34,1.05,2.82,1.88,3.86,3.25,1.09,1.44,1.73,3.15,2.35,4.83,.11,.3,.59,.17,.48-.13h0Z"/>
            <path class="cls-9" d="M377.61,174.12c4.16,4.75,8.25,8.59,13.99,11.32,3,1.43,6.07,2.67,9.02,4.19,2.95,1.53,7.33,3.26,9.54,5.77,3.73,4.23,1.14,8.34-.59,12.8-1.29,3.33-2.66,6.62-3.97,9.94-2.86,7.23-5.43,14.5-6.87,22.15-.06,.31,.42,.44,.48,.13,1.56-8.3,4.46-16.14,7.59-23.96,1.57-3.91,3.18-7.81,4.63-11.77,.76-2.06,2.59-4.98,1.77-7.31-.52-1.48-3.11-2.66-4.32-3.47-3.61-2.41-7.41-4.52-11.35-6.36-7.82-3.66-13.81-7.23-19.57-13.81-.21-.24-.56,.11-.35,.35h0Z"/>
            <path class="cls-9" d="M382.08,178.26c2.14-2.19,3.01-5.17,2.39-8.18-.06-.31-.54-.18-.48,.13,.58,2.83-.24,5.63-2.26,7.69-.22,.23,.13,.58,.35,.35h0Z"/>
            <path class="cls-9" d="M415.27,183.96c3.95,1.23,9.6,2.41,13,4.83,4.12,2.92,4.36,9.49,5.89,13.85,2.42,6.87,5.82,13.49,9.03,20,.14,.29,.57,.04,.43-.25-2.45-4.95-4.82-9.94-7-15.01-1.96-4.55-2.92-9.19-4.51-13.84-2.36-6.89-10.39-8.1-16.72-10.06-.31-.09-.44,.38-.13,.48h0Z"/>
            <path class="cls-5" d="M400.28,160.65c-1.07-5.32-4.2-10.59-1.91-16.16,1.92-4.69,2.97-7.66,2.43-12.97-.03-.31-.53-.32-.5,0,.39,3.85,.33,7.77-1.48,11.3-1.16,2.28-1.5,2.15-1.68,4.61-.17,2.39,0,5.46,.51,7.78,.43,1.99,1.73,3.51,2.14,5.56,.06,.31,.54,.18,.48-.13h0Z"/>
            <path class="cls-5" d="M371.46,156.47c3.11-6.93,6.53-13.73,8.49-21.09,1.21-4.55,3.15-9.33-.24-13.32-.21-.24-.56,.11-.35,.35,3.82,4.5,.36,12.9-1.37,17.84-1.91,5.46-4.6,10.71-6.96,15.98-.13,.29,.3,.54,.43,.25h0Z"/>
            <path class="cls-5" d="M392.91,144.54c-3.18,1.9-6.67,2.69-10.35,2.36-.32-.03-.32,.47,0,.5,3.76,.34,7.36-.49,10.6-2.43,.27-.16,.02-.59-.25-.43h0Z"/>
            <path class="cls-5" d="M396.72,160.41c-3.84,2.45-8.12,3.73-12.53,4.72-.31,.07-.18,.55,.13,.48,4.45-1,8.78-2.31,12.65-4.77,.27-.17,.02-.6-.25-.43h0Z"/>
            <path class="cls-5" d="M394.79,159.47c-2.13,.89-4.32,1.54-6.59,1.96-.31,.06-.18,.54,.13,.48,2.27-.42,4.46-1.07,6.59-1.96,.29-.12,.16-.6-.13-.48h0Z"/>
            <path class="cls-9" d="M405.84,238.15c-1.71,.38-3.44,.55-5.19,.51-.32,0-.32,.49,0,.49,1.8,.04,3.57-.14,5.32-.53,.31-.07,.18-.55-.13-.48h0Z"/>
            <path class="cls-9" d="M405.11,236.89c-.95,.16-1.91,.26-2.87,.31-.32,.02-.32,.51,0,.49,1.01-.05,2.01-.16,3.01-.33,.31-.05,.18-.53-.13-.48h0Z"/>
            <path class="cls-9" d="M448.68,217.44c-1.59,.81-3.21,1.53-4.88,2.16-.3,.11-.17,.59,.13,.48,1.71-.64,3.37-1.38,5-2.21,.28-.15,.03-.57-.25-.43h0Z"/>
            <path class="cls-9" d="M447.63,216.6c-.83,.28-1.66,.51-2.52,.7-.31,.07-.18,.55,.13,.48,.85-.19,1.69-.43,2.52-.7,.3-.1,.17-.58-.13-.48h0Z"/>
            <g>
              <path class="cls-26" d="M396.67,242.49c-.22,1.52,.33,2.81,1.4,3.89,2.8,2.84,5.53,5.77,8.73,8.17,1.08,.81,2.26,1.5,3.47,2.09,.64,.32,1.44,.42,2.17,.44,.89,.02,1.46-.53,1.46-1.38,0-.82-.09-1.66-.28-2.45-.5-2.05-1.23-4.04-2.28-5.88-1.34-2.34-2.77-4.64-4.26-7.13,0-.16,.04-.32,.07-.49-3.37,.75-6.81,1.19-10.26,1.34-.07,.46-.14,.93-.21,1.39Z"/>
              <path class="cls-26" d="M464.58,219.72c-.68-.3-1.41-.52-2.14-.67-3.4-.73-6.84-1.02-10.32-1-.78,0-1.58,.11-2.35-.13-2.35,2.2-4.76,4.34-7.4,6.19-.4,.28-.81,.55-1.22,.82,.55,1.13,1.11,2.26,1.63,3.33,1.67,.55,3.15,.43,4.62,.01,3.4-.96,6.81-1.88,10.18-2.95,1.85-.59,3.64-1.42,5.41-2.25,.72-.34,1.38-.91,1.94-1.5,.65-.68,.48-1.47-.35-1.84Z"/>
              <g>
                <path class="cls-37" d="M406.76,251.3c-.31-.08-.57-.28-.82-.48-3.5-2.76-7.03-5.8-9-9.73-.02,0-.03,0-.05,0-.07,.46-.14,.93-.21,1.39-.22,1.52,.33,2.81,1.4,3.89,2.8,2.84,5.53,5.77,8.73,8.17,1.08,.81,2.26,1.5,3.47,2.09,.64,.32,1.44,.42,2.17,.44,.89,.02,1.46-.53,1.46-1.38,0-.82-.09-1.66-.28-2.45-.28-1.14-.64-2.26-1.07-3.35-1.49,.23-2.96,.61-4.36,1.15-.46,.18-.95,.37-1.43,.26Z"/>
                <path class="cls-37" d="M464.58,219.72c-.68-.3-1.41-.52-2.14-.67-1.27-.27-2.54-.46-3.82-.62-.7,1.11-1.18,2.35-1.41,3.64-.04,.21-.08,.44-.22,.6-.14,.15-.34,.2-.53,.25-4.81,1.28-9.64,2.49-14.49,3.62,.28,.57,.56,1.14,.83,1.69,1.67,.55,3.15,.43,4.62,.01,3.4-.96,6.81-1.88,10.18-2.95,1.85-.59,3.64-1.42,5.41-2.25,.72-.34,1.38-.91,1.94-1.5,.65-.68,.48-1.47-.35-1.84Z"/>
              </g>
            </g>
            <path class="cls-2" d="M387.51,112.62s.49,5.58,5.83,4.37c.33-1.09,.64-2.08,.94-3.06,0,0-2.91,.9-6.77-1.31Z"/>
          </g>
          <g>
            <path class="cls-35" d="M349.42,309.51c.05,.45,.03,.76,.12,1.03,.61,1.82,.15,3.52-.57,5.18-.26,.61-.55,1.22-.88,1.8-1.79,3.21-1.7,6.53-.64,9.91,.2,.63,.52,1.23,.73,1.86,.66,2.04-.71,3.53-2.84,3.1-.71-.14-1.41-.36-2.18-.56-.23,.56-.43,1.03-.6,1.5-.54,1.48-1.61,2.43-3.9,2.17-.44-.05-.86-.23-1.44-.4-1.67,1.44-3.55,1.87-5.51,.23-.6,.29-1.13,.55-1.65,.81-2.47,1.24-5.67,.55-7.12-1.75-.12-.18-.27-.34-.4-.51-1.04,.06-2.06,.15-3.09,.17-1.35,.03-2.61-1.51-1.61-3.03,.24-.37,.45-.77,.65-1.17,1.26-2.46,1.2-4.8-.42-7.13-1.52-2.19-2.92-4.47-4.33-6.74-.59-.94-1.13-1.93-1.56-2.95-1.54-3.71-1.37-7.37,.42-10.97,1.06-2.14,2.69-3.55,5.07-3.92,1.16-.18,2.03-.66,2.89-1.44,5.33-4.81,14.75-6.58,21.48-3.29,1.86,.91,3.72,1.85,5.53,2.86,1.88,1.05,3.66,2.28,5.71,2.97,.91,.31,1.27,.98,1.26,1.87,0,1.21-.32,2.34-.85,3.43-.96,1.98-2.35,3.59-4.27,4.93Z"/>
            <path class="cls-11" d="M320.66,328.71c-1.1-.2-2.23-.26-3.27-.61-2.17-.74-3.89-2.12-5.03-4.16-.56-.99-.85-2.05-.78-3.19,.09-1.63,.94-2.79,2.53-3.26,.7-.21,1.45-.27,2.26-.41,.38-.8,.16-1.7,.17-2.56,.02-2.49,.55-4.86,1.66-7.09,2.44-4.87,6.35-7.76,11.78-8.4,3.44-.41,6.63,.52,9.49,2.47,3.96,2.71,6.14,6.54,6.9,11.23,.09,.58,.16,1.17,.24,1.76,.01,.07,.07,.13,.15,.28,.51,.11,1.09,.18,1.64,.36,1.5,.48,2.32,1.53,2.49,3.09,.12,1.04,.03,2.07-.37,3.06-1.07,2.72-2.95,4.58-5.77,5.45-.42,.13-.86,.21-1.33,.33-1.74,2.94-4.19,5.14-7.17,6.73-.2,2.02,.1,3.92,.38,5.95,.77,.03,1.5,.05,2.23,.09,2.96,.14,5.93,.22,8.89,.45,3.06,.24,5.77,1.44,7.95,3.6,1.68,1.67,3.34,3.4,4.72,5.31,4.04,5.6,7.67,11.46,10.94,17.55,2.07,3.84,1.96,7.68,.21,11.55-.86,1.9-2.03,3.62-3.37,5.22-1.52,1.8-3.48,2.73-5.77,3.02-3.02,.38-4.93-1.6-4.92-4.1,0-1.41-.01-2.82,.4-4.19,.23-.78,.35-1.6,.6-2.37,.26-.77,.13-1.46-.26-2.13-.33-.58-.64-1.18-1.04-1.71-1.83-2.43-3.67-4.85-5.53-7.26-.3-.39-.72-.69-1.21-1.14-.23,.46-.44,.76-.53,1.09-.43,1.57-.91,3.14-1.22,4.73-1.11,5.68-2.15,11.36-3.23,17.05-.25,1.31-.54,2.61-.78,3.93-.54,2.86-2.19,4.79-4.85,5.91-2.08,.88-4.27,1.28-6.5,1.33-4.05,.09-7.98-.61-11.74-2.13-1.09-.44-2.12-1.06-3.11-1.7-1.5-.98-2.38-2.4-2.65-4.2-.34-2.27-.76-4.54-1.08-6.81-.78-5.51-1.52-11.02-2.29-16.53-.13-.95-.3-1.9-.49-3.05-.33,.33-.57,.5-.7,.73-2.17,3.8-4.32,7.61-6.48,11.42-.22,.39-.42,.78-.62,1.18q-1.55,3.07-.75,6.53c.13,.58,.23,1.16,.3,1.75,.14,1.19-.43,2.03-1.47,2.48-.6,.26-1.28,.47-1.92,.47-2.51,.02-4.81-.79-6.93-2.09-.24-.15-.43-.4-.58-.64-1.47-2.42-2.72-4.93-3.49-7.67-.42-1.51-.34-2.94,.31-4.33,.63-1.34,1.24-2.71,2.02-3.96,4.12-6.61,8.28-13.2,12.48-19.76,.92-1.43,2.08-2.7,3.09-4.07,.65-.88,1.52-1.38,2.51-1.75,3.63-1.37,7.39-2.18,11.2-2.8,2.41-.39,4.83-.69,7.34-1.04,.4-1.78,0-3.52-.09-5.23-1.38-.85-2.76-1.58-3.99-2.51-1.23-.93-2.3-2.08-3.56-3.23Z"/>
            <path class="cls-35" d="M323.67,306.3s4.52,6.94,11.54,8.11c7.02,1.17,0-9.89,0-9.89,0,0,5.35,8.94,11.55,10.24,.2-.15,.34-.29,.33-.36-.09-.6-.16-1.21-.25-1.81-.78-4.84-3.03-8.8-7.12-11.6-2.94-2.02-6.24-2.97-9.79-2.55-5.6,.66-9.64,3.65-12.16,8.67-1.15,2.29-1.7,4.74-1.71,7.31,0,.89,0,1.81,.32,2.64,0,0,6.98-3.02,7.3-10.76Z"/>
            <path class="cls-10" d="M335.44,326.82c.7,1.92,2.82,2.91,4.74,2.21,1.92-.7,2.91-2.82,2.21-4.74-.7-1.92-2.82-2.91-4.74-2.21-1.92,.7-2.91,2.82-2.21,4.74Z"/>
            <path class="cls-10" d="M322.29,327.16c.7,1.92,2.82,2.91,4.74,2.21,1.92-.7,2.91-2.82,2.21-4.74-.7-1.92-2.82-2.91-4.74-2.21-1.92,.7-2.91,2.82-2.21,4.74Z"/>
            <path class="cls-12" d="M336.28,325.22c-.09-.14-.23-.28-.27-.45-.02-.09,0-.33,.26-.32,.77,.01,1.36,.58,1.49,1.32,.02,.11,.07,.38-.22,.41-.28,.04-.44-.34-.73-.48-1.01,.73-2.16,1.47-3.42,1.72-1.3,.26-2.58,.26-3.82-.25-.66-.27-1.82-.72-1.65-1.25,.09-.28,1.63,.92,3.58,1.06,1.65,.12,3.65-.72,4.78-1.78Z"/>
            <path class="cls-12" d="M314.42,319.5c-.28-.09-.4,.34-.13,.43,1.69,.54,3.07,1.68,3.92,3.18-.93,.52-1.51,1.49-1.51,2.57,0,.29,.45,.3,.45,0,0-.92,.49-1.71,1.27-2.16,.18,.37,.33,.75,.44,1.15,.08,.28,.51,.17,.44-.11-.66-2.42-2.48-4.31-4.87-5.07Z"/>
            <path class="cls-12" d="M348.54,317.37c.25-.14,.46,.26,.21,.4-1.56,.85-2.69,2.24-3.23,3.88,1.01,.33,1.77,1.17,1.98,2.23,.06,.28-.38,.38-.44,.09-.18-.9-.81-1.58-1.66-1.87-.1,.39-.18,.8-.21,1.21-.02,.29-.47,.26-.45-.03,.18-2.5,1.61-4.71,3.81-5.91Z"/>
            <path class="cls-26" d="M371.37,366.73c-3.27-6.09-6.9-11.95-10.94-17.55-1.38-1.91-3.04-3.65-4.72-5.31-2.18-2.16-4.89-3.36-7.95-3.6-2.96-.23-5.92-.31-8.89-.45-.55-.03-1.12-.05-1.69-.07-.53,.7-1.18,1.31-1.95,1.72-1.32,.72-2.94,.89-4.36,.38-.72-.26-1.36-.68-1.97-1.13-.36-.27-.72-.6-.88-1-2.41,.34-4.75,.63-7.07,1-3.81,.62-7.58,1.43-11.2,2.8-.99,.37-1.86,.87-2.51,1.75-1.01,1.37-2.18,2.64-3.09,4.07-4.2,6.56-8.35,13.15-12.47,19.76-.78,1.25-1.4,2.62-2.02,3.96-.65,1.39-.73,2.83-.31,4.33,.77,2.74,2.02,5.25,3.49,7.67,.15,.24,.34,.5,.58,.64,2.12,1.3,4.42,2.11,6.93,2.09,.65,0,1.32-.21,1.92-.47,1.05-.46,1.61-1.29,1.47-2.48-.07-.59-.17-1.18-.3-1.75q-.79-3.46,.75-6.53c.2-.4,.4-.79,.62-1.18,2.15-3.81,4.31-7.62,6.48-11.42,.13-.23,.38-.4,.7-.73,.19,1.15,.36,2.09,.49,3.05,.76,5.51,1.51,11.02,2.29,16.53,.32,2.28,.74,4.54,1.08,6.81,.27,1.8,1.15,3.22,2.65,4.2,.99,.65,2.02,1.26,3.11,1.7,3.76,1.52,7.69,2.22,11.74,2.13,2.23-.05,4.42-.45,6.5-1.33,2.66-1.13,4.31-3.05,4.85-5.91,.25-1.31,.54-2.61,.78-3.93,1.08-5.68,2.12-11.37,3.23-17.05,.31-1.6,.79-3.16,1.22-4.73,.09-.33,.3-.63,.53-1.09,.49,.45,.91,.75,1.21,1.14,1.86,2.41,3.7,4.83,5.53,7.26,.4,.53,.71,1.13,1.04,1.71,.38,.67,.51,1.36,.26,2.13-.26,.77-.37,1.59-.6,2.37-.41,1.38-.39,2.78-.4,4.19-.01,2.5,1.89,4.48,4.92,4.1,2.29-.29,4.26-1.22,5.77-3.02,1.34-1.6,2.51-3.32,3.37-5.22,1.75-3.86,1.86-7.71-.21-11.55Z"/>
            <path class="cls-11" d="M297.29,386.78c.14-.39,.19-.68,.33-.91,1.76-2.87,4.35-4.42,7.69-4.53,2.91-.1,5.08,1.36,6.72,3.67,.65,.92,.62,1.96,.28,2.99-.35,1.06-1.06,1.54-2.18,1.5-.74-.03-1.48-.11-2.2-.26-3.04-.64-6.08-1.31-9.11-1.98-.48-.11-.95-.29-1.53-.47Z"/>
            <path class="cls-11" d="M364.33,385.83c-.11-.39-.15-.69-.28-.93-1.6-2.96-4.09-4.65-7.42-4.95-2.9-.26-5.15,1.07-6.92,3.28-.7,.88-.73,1.93-.45,2.97,.29,1.08,.97,1.6,2.09,1.62,.74,.01,1.49-.02,2.21-.13,3.07-.47,6.14-.97,9.21-1.47,.49-.08,.96-.23,1.55-.38Z"/>
            <path class="cls-37" d="M314.79,406.55c-4.46,.15-8.9-.21-13.34-.55-4-.31-7.97-.78-11.91-1.51-3.94-.73-7.51-2.35-10.77-4.58-2.93-1.99-4-5.41-1.58-8.95,.86-1.27,2.05-2.13,3.38-2.83,2.13-1.12,4.45-1.59,6.8-1.97,3.78-.61,7.56-.36,11.32,.1,6.85,.84,13.65,2.03,20.29,3.95,4.85,1.4,9.63,3.01,14.2,5.15,1,.47,1.99,1.01,2.87,1.68,1.53,1.16,1.75,2.41,.93,4.11-1.23,2.54-3.44,3.82-6.01,4.57-1.93,.56-3.93,.8-5.94,.82-3.41,.04-6.83,.01-10.24,.01Z"/>
            <path class="cls-11" d="M301.21,422.38c.27-1.46,.46-2.93,.83-4.36,.76-2.94,1.64-5.86,2.44-8.79,.67-2.48,2.04-4.43,4.28-5.72,2-1.14,3.95-2.37,6.01-3.37,8.82-4.26,17.88-7.95,27.25-10.84,3.69-1.14,7.39-2.22,11.19-2.9,3.73-.67,7.51-.97,11.29-.99,3.48-.01,6.79,.71,9.73,2.66,.67,.44,1.35,.95,1.86,1.56,1.78,2.12,2.17,4.49,1.07,7.07-1.43,3.37-3.86,5.76-7.18,7.26-2.59,1.17-5.37,1.69-8.13,2.23-3.64,.71-7.29,1.35-10.95,1.96-1.75,.29-3.52,.52-5.3,.67-2.22,.19-4.44,.27-6.67,.4-5.78,.35-11.56,.66-17.33,1.07-1.54,.11-3.06,.53-4.6,.77-.81,.13-1.29,.57-1.7,1.26-1.56,2.61-3.14,5.21-4.77,7.78-.87,1.38-1.83,2.71-2.83,4-.63,.81-1.36,1.58-2.17,2.22-1.37,1.09-2.85,.7-3.66-.87-.45-.86-.59-1.64-.68-3.05Z"/>
            <g>
              <path class="cls-37" d="M376.1,389.63c-.51-.61-1.19-1.12-1.86-1.56-2.95-1.94-6.26-2.67-9.73-2.66-3.79,.01-7.56,.32-11.29,.99-3.8,.68-7.5,1.76-11.19,2.9-9.37,2.9-18.43,6.58-27.25,10.84-.94,.45-1.85,.96-2.76,1.48,.77,3.53,1.85,7.05,4.13,9.77,.25-.16,.53-.29,.87-.34,1.54-.24,3.06-.66,4.6-.77,5.77-.41,11.55-.72,17.33-1.07,2.22-.13,4.45-.21,6.67-.4,1.77-.15,3.54-.37,5.3-.67,3.66-.61,7.31-1.25,10.95-1.96,2.76-.54,5.54-1.06,8.13-2.23,3.32-1.5,5.74-3.89,7.18-7.26,1.1-2.58,.71-4.95-1.07-7.07Z"/>
              <path class="cls-5" d="M368.17,399.72c-.99-.84-1.81-1.82-2.55-2.88-.69-.98-1.47-1.97-1.51-3.21-.01-.32,.48-.32,.5,0,.04,1.21,.99,2.34,1.68,3.29,.66,.91,1.39,1.73,2.24,2.46,.24,.21-.11,.56-.35,.35h0Z"/>
            </g>
            <path class="cls-35" d="M308.76,403.51c-2.25,1.29-3.61,3.24-4.28,5.72-.8,2.93-1.67,5.85-2.44,8.79-.37,1.43-.56,2.91-.83,4.36,.08,1.41,.23,2.19,.68,3.05,.82,1.57,2.29,1.96,3.66,.87,.8-.64,1.53-1.41,2.17-2.22,1-1.28,1.95-2.62,2.83-4,1.63-2.57,3.21-5.17,4.77-7.78,.23-.39,.5-.69,.83-.91-2.28-2.72-3.36-6.24-4.13-9.77-1.09,.62-2.17,1.27-3.25,1.89Z"/>
            <path class="cls-37" d="M304.77,418.67c-.14-.09-.29-.18-.37-.32-.1-.17-.09-.38-.07-.58,.14-1.48,.62-2.91,1.04-4.34,.85-2.92,1.42-5.91,1.96-8.9-1.41,1.22-2.34,2.8-2.85,4.7-.8,2.93-1.67,5.85-2.44,8.79-.37,1.43-.56,2.91-.83,4.36,.08,1.41,.23,2.19,.68,3.05,.82,1.57,2.29,1.96,3.66,.87,.8-.64,1.53-1.41,2.17-2.22,.62-.8,1.22-1.62,1.79-2.45-.12-.1-.24-.2-.37-.3-1.38-1-2.91-1.78-4.37-2.66Z"/>
            <path class="cls-5" d="M312.15,401.73c5.37-2.69,10.94-4.93,16.42-7.36,.29-.13,.04-.56-.25-.43-5.49,2.44-11.05,4.68-16.42,7.36-.28,.14-.03,.57,.25,.43h0Z"/>
            <path class="cls-5" d="M314.41,403.97c.2,2.01,.79,3.9,1.76,5.66,.15,.28,.58,.03,.43-.25-.94-1.69-1.51-3.49-1.7-5.41-.03-.31-.53-.32-.5,0h0Z"/>
            <path class="cls-5" d="M316.71,405.73c.24,1.22,.61,2.38,1.1,3.51,.13,.29,.55,.04,.43-.25-.48-1.09-.82-2.23-1.05-3.4-.06-.31-.54-.18-.48,.13h0Z"/>
            <path class="cls-5" d="M288.11,399.82c.99-.84,1.81-1.82,2.55-2.88,.69-.98,1.47-1.97,1.51-3.21,.01-.32-.48-.32-.49,0-.04,1.21-.99,2.34-1.68,3.29-.66,.91-1.39,1.73-2.24,2.46-.24,.21,.11,.56,.35,.35h0Z"/>
            <path class="cls-36" d="M322.81,389c4.98-.54,9.95-.76,14.96-.69,.32,0,.32-.49,0-.49-5-.08-9.98,.15-14.96,.69-.31,.03-.32,.53,0,.49h0Z"/>
            <path class="cls-36" d="M327.14,386.71c3.32-.32,6.65-.51,9.99-.55,.32,0,.32-.5,0-.5-3.34,.04-6.67,.22-9.99,.55-.31,.03-.32,.53,0,.49h0Z"/>
            <path class="cls-36" d="M312.46,360.67c.57-5.59-.32-10.97-2.64-16.08-.13-.29-.56-.04-.43,.25,2.28,5.03,3.14,10.34,2.57,15.83-.03,.32,.46,.31,.5,0h0Z"/>
            <path class="cls-36" d="M313.36,362.74c.78-1.96,1.45-3.94,2.01-5.97,.09-.31-.39-.44-.48-.13-.57,2.03-1.24,4.01-2.01,5.97-.12,.3,.36,.42,.48,.13h0Z"/>
            <path class="cls-36" d="M350.74,362c-2.07-5.47-1.06-12.55,.2-18.09,.07-.31-.41-.44-.48-.13-1.3,5.72-2.33,12.73-.2,18.35,.11,.29,.59,.17,.48-.13h0Z"/>
            <path class="cls-36" d="M360.19,374.19c1.62-.92,3.32-1.63,5.11-2.14,.31-.09,.18-.56-.13-.48-1.83,.52-3.57,1.25-5.23,2.19-.28,.16-.03,.59,.25,.43h0Z"/>
            <path class="cls-36" d="M360.15,373.12c1.32-1.17,2.77-2.16,4.34-2.96,.28-.15,.03-.57-.25-.43-1.61,.83-3.09,1.84-4.44,3.04-.24,.21,.11,.56,.35,.35h0Z"/>
            <path class="cls-36" d="M301.87,379.26c-2.03-1.03-4.16-1.76-6.4-2.19-.31-.06-.44,.42-.13,.48,2.2,.42,4.28,1.13,6.28,2.14,.28,.14,.53-.28,.25-.43h0Z"/>
            <path class="cls-36" d="M301.33,377.7c-1.62-.92-3.32-1.65-5.11-2.18-.31-.09-.44,.39-.13,.48,1.75,.52,3.41,1.23,4.99,2.13,.28,.16,.53-.27,.25-.43h0Z"/>
            <path class="cls-14" d="M330.21,334.49s-.75,5.68,6.43,5.24c-.28-2.03-.58-3.93-.38-5.95,0,0-2.25,1.08-6.05,.71Z"/>
            <g>
              <g>
                <path class="cls-4" d="M321.48,318.43c-.16,.91,.67,2.55,2.88,3.18,2.21,.63,3.42-.09,4.05-.79,.63-.7-.18-4.36-2.4-5-2.21-.63-4.38,1.69-4.54,2.6Z"/>
                <g class="cls-13">
                  <path class="cls-26" d="M322.06,317.23c-.43,1.49,.44,3.05,1.93,3.48,1.49,.43,3.05-.44,3.48-1.93s-.44-3.05-1.93-3.48-3.05,.44-3.48,1.93Z"/>
                </g>
              </g>
              <g>
                <path class="cls-4" d="M334.75,320.09c.31,.87,1.84,1.89,4.08,1.36,2.24-.54,2.94-1.76,3.14-2.68s-2.3-3.71-4.54-3.17c-2.24,.54-2.98,3.62-2.68,4.5Z"/>
                <g class="cls-28">
                  <path class="cls-26" d="M334.76,318.92c.36,1.51,1.88,2.44,3.39,2.08,1.51-.36,2.44-1.88,2.08-3.39-.36-1.51-1.88-2.44-3.39-2.08-1.51,.36-2.44,1.88-2.08,3.39Z"/>
                </g>
              </g>
              <path class="cls-7" d="M333.75,321.99c-.15,1.14-1.02,2.07-2.27,2.16-1.27,.09-2.13-.61-2.11-1.37,.03-.76,1.01-1.19,1.24-1.71,.5-1.12,.52-3.14,1.62-3.06,1.11,.09,1.66,2.83,1.52,3.98Z"/>
              <path class="cls-35" d="M329.14,313.3c-2.15-.64-4.29-.58-6.39,.2-.64,.24-.97-.77-.34-1,2.26-.84,4.64-.92,6.95-.24,.65,.19,.44,1.23-.22,1.04h0Z"/>
              <path class="cls-35" d="M334.83,311.95c2.36-.39,4.74-.03,6.86,1.09,.6,.32,.19,1.29-.42,.97-1.97-1.05-4.12-1.38-6.32-1.02-.67,.11-.79-.94-.12-1.05h0Z"/>
            </g>
          </g>
          <g>
            <g>
              <path class="cls-4" d="M404.7,98.13c-.03,1.01-1.29,2.57-3.8,2.74-2.51,.17-3.63-.87-4.15-1.76-.52-.89,1.18-4.61,3.69-4.79,2.51-.17,4.29,2.8,4.25,3.81Z"/>
              <g class="cls-20">
                <path class="cls-8" d="M402.15,97.94c.12,1.69-1.16,3.16-2.85,3.27s-3.16-1.16-3.27-2.85c-.12-1.69,1.16-3.16,2.85-3.27,1.69-.12,3.16,1.16,3.27,2.85Z"/>
              </g>
            </g>
            <g>
              <path class="cls-4" d="M390.1,97.74c-.42,.92-2.17,1.88-4.56,1.08-2.38-.8-3.02-2.19-3.16-3.21-.14-1.02,2.85-3.81,5.24-3.02,2.38,.8,2.9,4.22,2.48,5.14Z"/>
              <g class="cls-32">
                <path class="cls-8" d="M387.95,97.02c-.54,1.61-2.27,2.48-3.88,1.94-1.61-.54-2.48-2.27-1.94-3.88s2.27-2.48,3.88-1.94c1.61,.54,2.48,2.27,1.94,3.88Z"/>
              </g>
            </g>
            <path class="cls-25" d="M391.36,99.42c.04,1.26,.9,2.35,2.25,2.57,1.37,.23,2.38-.45,2.43-1.28,.05-.83-.97-1.4-1.17-1.98-.43-1.27-.25-3.47-1.46-3.48-1.21-.02-2.09,2.91-2.04,4.17Z"/>
            <path class="cls-26" d="M397.91,91.21c2.42-.34,4.72,.05,6.87,1.24,.65,.36,1.17-.67,.52-1.03-2.3-1.27-4.86-1.73-7.46-1.36-.73,.1-.67,1.26,.07,1.15h0Z"/>
            <path class="cls-26" d="M391.57,89.29c-2.49-.78-5.11-.75-7.57,.15-.69,.25-.4,1.37,.3,1.11,2.29-.83,4.66-.87,6.98-.14,.71,.22,1-.9,.29-1.12h0Z"/>
          </g>
          <g>
            <g>
              <path class="cls-4" d="M178.06,91.33c.5,.88,.23,2.86-1.83,4.31-2.05,1.45-3.55,1.14-4.46,.64s-1.38-4.56,.67-6.01c2.05-1.45,5.12,.17,5.61,1.05Z"/>
              <g class="cls-16">
                <path class="cls-8" d="M178.15,91.35c.98,1.38,.65,3.3-.74,4.28-1.38,.98-3.3,.65-4.28-.74-.98-1.38-.65-3.3,.74-4.28,1.38-.98,3.3-.65,4.28,.74Z"/>
              </g>
            </g>
            <g>
              <path class="cls-4" d="M164.2,98.18c0,1.01-1.21,2.61-3.71,2.86-2.5,.25-3.66-.75-4.2-1.63-.54-.88,1.04-4.65,3.54-4.9,2.5-.25,4.37,2.66,4.37,3.67Z"/>
              <g class="cls-18">
                <path class="cls-8" d="M164.33,97.76c.17,1.69-1.06,3.19-2.74,3.36-1.69,.17-3.19-1.06-3.36-2.74-.17-1.69,1.06-3.19,2.74-3.36,1.69-.17,3.19,1.06,3.36,2.74Z"/>
              </g>
            </g>
            <path class="cls-25" d="M170.04,98.04c.17,1.25-.48,2.47-1.77,2.92-1.31,.46-2.42-.03-2.61-.84-.19-.81,.72-1.55,.81-2.16,.21-1.33-.36-3.46,.83-3.68s2.56,2.5,2.73,3.75Z"/>
            <path class="cls-35" d="M168.44,88.93c2.07-1.31,4.33-1.89,6.77-1.69,.74,.06,.79-1.09,.05-1.15-2.62-.21-5.14,.42-7.36,1.82-.62,.39-.09,1.42,.54,1.02h0Z"/>
            <path class="cls-35" d="M162.48,89.92c-2.58,.44-4.89,1.67-6.67,3.59-.5,.54,.27,1.4,.78,.85,1.65-1.79,3.75-2.9,6.15-3.32,.73-.13,.48-1.25-.25-1.13h0Z"/>
          </g>
        </g>
      </g>
    </g>
  </g>
</svg>