<?xml version="1.0" encoding="utf-8"?>
<!-- Generator: Adobe Illustrator 26.5.0, SVG Export Plug-In . SVG Version: 6.00 Build 0)  -->
<svg version="1.1" id="Layer_1" xmlns="http://www.w3.org/2000/svg" xmlns:xlink="http://www.w3.org/1999/xlink" x="0px" y="0px"
	 viewBox="0 0 3000 2000" style="enable-background:new 0 0 3000 2000;" xml:space="preserve">
<style type="text/css">
	.st0{fill:#FCECDB;}
	.st1{fill:#F8FBFF;}
	.st2{fill:#E7F1FB;}
	.st3{fill:#F9DDBF;}
	.st4{fill:#FFEAD7;}
	.st5{fill:#F4E0CE;}
	.st6{fill:#EFCBAB;}
	.st7{fill:#D8AE8B;}
	.st8{fill:#C6916D;}
	.st9{fill:#D39E7A;}
	.st10{fill:#EAC3A0;}
	.st11{fill:#E8C6A7;}
	.st12{fill:#C48E6A;}
	.st13{fill:#FFB27D;}
	.st14{fill:#2C3A64;}
	.st15{fill:#35488B;}
	.st16{fill:#B5453C;}
	.st17{fill:#EA9C68;}
	.st18{fill:#9E3530;}
	.st19{fill:#F99746;}
	.st20{fill:#ED7D2B;}
	.st21{fill:#AA443E;}
	.st22{fill:#ED975D;}
	.st23{fill:#AFD295;}
	.st24{fill:#88B374;}
	.st25{fill:#ED985F;}
	.st26{fill:#FFFFFF;}
	.st27{fill:#D36820;}
	.st28{fill:#599DAD;}
	.st29{fill:#86D1CD;}
	.st30{fill:#6BB7BF;}
	.st31{fill:#FFB176;}
	.st32{fill:#DB6A1F;}
	.st33{fill:#2E3552;}
</style>
<g>
	<path class="st0" d="M333.8,1704.2l2337.3-0.7c0,0,312.6-335.6,52.9-699c-106.1-148.4-250-264.6-433.9-259.2
		c-93.8,2.3-184.9,38.2-262.4,89.6c-84,55.7-326,6.9-532.1-321.2c-41.6-66.2-99-117.7-167.5-154.1c-95.6-50.8-210.1-71-325.6-63.3
		c-106.1,7-210.3,37.3-299.8,85.1c-119.9,64-219.3,162.1-269.8,289.7c-16,40.4-27.1,83.7-32.5,129.8
		c-15.9,137.2,22.4,215.4,29.9,291.3C457.6,1362.4,169.3,1394.8,333.8,1704.2z"/>
	<g>
		<path class="st1" d="M1369.6,384.4c-13.3-8.9-27.1-17.2-41.4-24.8c-95.6-50.8-210.1-71-325.6-63.3c-106.1,7-210.3,37.3-299.8,85.1
			c-119.9,64-219.3,162.1-269.8,289.7c-16,40.4-27.1,83.7-32.5,129.8c-11.9,102.3,6.4,171.9,19.6,232.1h949.5V384.4z"/>
		<polygon class="st2" points="537.7,909 537.7,1033 1369.6,1033 1369.6,644.7 1295.4,644.7 1295.4,762.7 1210.8,762.7 
			1210.8,570.4 1117.5,570.4 1117.5,695.2 1096.2,695.2 1096.2,546.2 1002.9,546.2 1002.9,825.6 884.9,825.6 884.9,988.6 
			840.8,988.6 840.8,916 739.5,916 739.5,958.9 681.4,958.9 681.4,766.9 609.5,766.9 609.5,909 		"/>
		<path class="st3" d="M420.9,1036.7c4.2,19.2,7.7,37.4,9.5,55.5H1479V1033H420.1c0.2,1.1,0.5,2.2,0.7,3.2c0,0,0.1,0,0.1,0.1
			C420.9,1036.4,420.9,1036.5,420.9,1036.7z"/>
		<path class="st3" d="M1369.6,384.4c-13.3-8.9-27.1-17.2-41.4-24.8v285.1V1033v3.4h42.2v-3.4V384.9L1369.6,384.4z"/>
		<path class="st3" d="M768.3,350.6v685.8h42.2V334.8C796.3,339.6,782.2,344.9,768.3,350.6z"/>
	</g>
	<g>
		<path class="st3" d="M2280.6,745.7c3.2-0.2,6.4-0.3,9.6-0.4c108.7-3.2,223.2,36.3,333,141.4c3.2,3.1,6.4,6.2,9.6,9.4
			c3.6,3.6,7.2,7.2,10.8,11v107.5h-373.9V746.4C2273.4,746.1,2276.9,745.8,2280.6,745.7z"/>
		<path class="st4" d="M2290.2,745.3c108.7-3.2,223.2,36.3,333,141.4c3.2,3.1,6.4,6.2,9.6,9.4v104.9h-352.3V745.7
			C2283.8,745.5,2287,745.4,2290.2,745.3z"/>
		<path class="st5" d="M2290.2,745.3v243.5h333V886.6C2513.4,781.6,2398.9,742.1,2290.2,745.3z"/>
	</g>
	<path class="st6" d="M1292.2,1365.4c3.9,9.2,40.9,17.7,95.9,25.2c9.7,1.3,19.9,2.6,30.7,3.9c187.2,22,699.8,34.3,731.4,27.8
		c43.7-9,130.5-448,130.5-448s-255.8-4.4-459-6.6c-69.5-0.7-311.2-2.6-356.1-2.6C1396.2,965.1,1286,1350.5,1292.2,1365.4z"/>
	<path class="st3" d="M1363,1309c0,0,78.5-300.8,84.2-326.1c2.5-11.3,10.3-15.3,18.1-16.4c-13.8-1.3-23.8-1.4-23.8-1.4
		c-27.2,0-51.3,18.3-60,45.5c-19,59.3-54,168.6-89.5,279.9C1293.8,1290.4,1363,1309,1363,1309z"/>
	<g>
		<path class="st3" d="M887,1575.4c12.5,75.5,94.4,123.5,178.4,123.5h166.4l-13-439.9c0,0-158.8-47.9-198.6-2.3
			c-34.9,39.9-129.7,198-134.6,291.5C885.1,1557.6,885.6,1566.7,887,1575.4z"/>
		<path class="st7" d="M887,1575.4c12.5,75.5,94.4,123.5,178.4,123.5h81.6C1092.6,1664.2,1043.4,1557.3,887,1575.4z"/>
		<path class="st8" d="M1328.7,1305.6c0,0-224.5-107.7-267-37.4c-22.6,37.4-84.7,186.4-89.3,280c-4.5,90.9,79.3,150.7,165.4,150.7
			h153L1328.7,1305.6z"/>
	</g>
	<g>
		<path class="st9" d="M1033,1625.5c2.5,2,5,3.9,7.6,5.9c32.4,23.9,74.7,42.9,123.1,54.7c36.6,8.9,76.6,13.7,118.4,13.3l72.8,0h1
			l344.4,0.1l197.4,0.1h2.9l0-0.1l6.8-35.8l68.4-357.9c0,0-871.2-30.1-941.5,10c-32.7,18.6-51,103.1-61.3,188.2
			C967.6,1549.2,990.8,1591.7,1033,1625.5z"/>
		<path class="st8" d="M1033,1625.5c2.5,2,5,3.9,7.6,5.9c32.4,23.9,74.7,42.9,123.1,54.7c36.6,8.9,76.6,13.7,118.4,13.3l72.8,0h1
			l344.4,0.1l197.4,0.1l2.9-0.1l6.8-35.8c-121-23.4-288.4-47.1-463.1-45.3C1277.6,1620.1,1137.9,1619.8,1033,1625.5z"/>
	</g>
	<g>
		<path class="st3" d="M1729.8,1579.3c13.5,73.2,87.5,119.6,163.4,119.6h153l-12-439.9c0,0-146-47.9-182.7-2.3
			c-32.1,39.9-119.2,198-123.8,291.5C1727.3,1559.1,1728,1569.4,1729.8,1579.3z"/>
		<path class="st10" d="M1729.8,1579.3c13.5,73.2,87.5,119.6,163.4,119.6h122.4C1958.4,1662.4,1881.2,1561.5,1729.8,1579.3z"/>
		<path class="st9" d="M2237.8,1699.7c82.1-0.5,135-31.5,163.7-107.7c33.7-89.4,28.4-234.1,22-330.5c-3.4-51-8.5-107.3-15.3-169.2
			c-6.2-56.6-13.3-96.1-23.7-105.1c-15.3-13.3-47.3-18.6-69.5-20.8c0,0,0,0,0,0c-13.8-1.3-23.8-1.4-23.8-1.4
			c-27.2,0-51.3,18.3-60,45.6c-47.5,148.5-89.5,280.8-89.5,280.8c-44-18.5-98.8-38.3-145.9-45.4c-31.3-5.2-75.1-6.1-91.5,21.2
			c-22.6,37.5-84.7,187-89.3,280.8c-4.5,91.1,79.2,151.1,165.4,151.1L2237.8,1699.7z"/>
		<path class="st3" d="M2212.5,1309c0,0,78.5-300.8,84.2-326.1c2.5-11.3,10.3-15.3,18.1-16.4c-13.8-1.3-23.8-1.4-23.8-1.4
			c-27.2,0-51.3,18.3-60,45.5c-19,59.3-54,168.6-89.5,279.9C2143.2,1290.4,2212.5,1309,2212.5,1309z"/>
	</g>
	<g>
		<g>
			<path class="st11" d="M988.7,1433.1l13.6,51.7c0,0,0,0,0,0l56.8,215h6l-32.8-178.4c0-0.2-0.1-0.4-0.1-0.5l-16.2-88.2
				L988.7,1433.1z"/>
		</g>
		<path class="st12" d="M988.7,1433.1l13.6,51.7c0,0,0,0,0,0c0.8,0.4,25.6,13.2,29.8,36.1l-16.2-88.2L988.7,1433.1z"/>
		<g>
			<path class="st11" d="M720.6,1699.7h6l46.3-175.1c0,0,0,0,0,0l10.5-39.8c0,0,0,0,0,0l13.6-51.7l-27.2-0.5l-9.3,50.4l-6.9,37.8
				c0,0.2-0.1,0.4-0.1,0.5L720.6,1699.7z"/>
		</g>
		<path class="st12" d="M760.4,1483.1c5,7.3,12,21.1,12.4,41.5l10.5-39.8c0,0,0,0,0,0l13.6-51.7l-27.2-0.5L760.4,1483.1z"/>
		<path class="st6" d="M677.2,1437.7H1124c6,0,11-4.9,11-11v-32c0-6-4.9-11-11-11H677.2c-6,0-11,4.9-11,11v32
			C666.2,1432.8,671.2,1437.7,677.2,1437.7z"/>
	</g>
	<path class="st13" d="M1587.1,1099.7L1587.1,1099.7C1587.1,1099.8,1587.1,1099.7,1587.1,1099.7z"/>
	<g>
		<g>
			<path class="st13" d="M2276,1055.7c0,0,69.9,117.9,77.4,147.8s-42.5,22.5-56.5,0c-14.1-22.5-75-89.6-75-89.6L2276,1055.7z"/>
			<path class="st13" d="M2100.1,1090c18.2-25.4-16-55.4-39-34.2c-29,26.6-67.4,63-71.3,72.2c-6.3,14.9,36.1,44.9,96.1-20.7
				C2091.6,1101.1,2096.3,1095.3,2100.1,1090z"/>
			<path class="st14" d="M2126.6,1705.3h109.3c0,0,2.1-17.8-0.4-33c-0.3-1.8-1.3-3.5-2.7-5c-6.4,2.2-15.8,3.7-26.3-0.1
				c-8.6-3.1-14.9-7.8-19.3-12c-1.1,1.1-23.7,22.6-34.1,22.6C2142.3,1677.8,2126,1683,2126.6,1705.3z"/>
			<path class="st14" d="M1975.9,1705.3h109.3c0,0,2.1-17.8-0.4-33c-0.3-1.8-1.3-3.5-2.7-5c-6.4,2.2-15.8,3.7-26.3-0.1
				c-8.6-3.1-14.9-7.8-19.3-12c-1.1,1.1-23.7,22.6-34.1,22.6C1991.6,1677.8,1975.3,1683,1975.9,1705.3z"/>
			<path class="st15" d="M2023.6,1660.6c0,0,43.5,20.9,69.2,6.8c0,0,10.1-35.5,22.3-87.2c10.1-42.8,21.5-96.6,29.8-150.5
				c0.4-2.8,0.9-5.9,1.3-9.3c6.6-54.3,6.4-168.5-103.9-138.3L2023.6,1660.6z"/>
			<path class="st14" d="M2115,1580.2c10.1-42.8,21.5-96.6,29.8-150.5c0.4-2.8,0.9-5.9,1.3-9.3c-6.6-38.2-17.1-68.7-29.4-72.5
				C2116.6,1348,2073.1,1532.4,2115,1580.2z"/>
			<path class="st14" d="M2124.1,1705.3h109.3c0,0,2.1-17.8-0.4-33c-0.3-1.8-1.3-3.5-2.7-5c-6.4,2.2-15.8,3.7-26.2-0.1
				c-8.6-3.1-14.9-7.8-19.3-12c-1.1,1.1-23.7,22.6-34.1,22.6C2139.8,1677.8,2123.4,1683,2124.1,1705.3z"/>
			<path class="st15" d="M2240.3,1281c4.8,0.7-13.2,209-3.6,248.1c9.7,39.1,0,144.7,0,144.7s-37,10.7-77-4.5
				c0,0-12.5-126.8-23.1-163.1c-22.8-78.2-34.6-218.8-34.6-218.8L2240.3,1281z"/>
			<path class="st13" d="M2134,1025.5l54.2,35.4l15.7-38.6c0,0-5.8-14.5-6.8-37.4c-0.4-9.6,0.1-20.7,2.3-32.9l-49.2,19
				c0,0,0.7,4.4,0.7,10.9c0.1,7-0.6,16.3-3.5,24.9C2145,1014.2,2140.9,1021.1,2134,1025.5z"/>
			<path class="st16" d="M2035.5,1268.5l33.9-141.5c-27.2-12.8-36.9-53.4-36.9-53.4l53.7-41.6c5.7-4.4,12.2-7.6,19.1-9.3
				c8-2,21.1-4.1,36.7-5c-1.1,8.2,0.4,16,14.6,19.4c19,4.6,37.6-6.8,47.2-14.8c18.4,4.7,38,12.3,58.7,24.2l0,0c0,0,3.2,1.5,8.4,5
				c1.7,1.1,5.2,3.8,5.2,3.8c11.7,9.2,28.7,26.5,41.4,55.7c0,0-7.1,37.7-65.1,47.5l0,0l-0.2,0.8l-1.6,6.9l-8.7,38.2l7.8,107
				c0.1,0.9,0.1,1.9,0,2.8c-0.7,7-6.2,12.8-13.4,13.8c0,0-1.7,0.1-4.7,0.2c-7.1,0.2-25,0.7-47.8,0.1c-21.9-0.5-48.4-2-74.4-5.5
				c-24.2-3.2-47.9-8.1-67.3-15.7C2028.3,1301.6,2032.8,1283.2,2035.5,1268.5z"/>
			<path class="st17" d="M2147.5,1006.8c26.6,2.1,49.7-21.9,49.7-21.9l-46.2-3C2151,988.9,2150.4,998.2,2147.5,1006.8z"/>
			<path class="st13" d="M2139.9,975.3c0,0,45.7,30.9,77-3.1c33.8-36.6,24.3-75.2,7.9-83.3c-32.6-16.1-56.9-10.1-67.7,1.6
				C2146.3,902.1,2114.6,958.6,2139.9,975.3z"/>
			<path class="st18" d="M2109.5,1322.7c26.1,3.5,52.5,4.9,74.4,5.5c22.8,0.6,40.6,0.1,47.8-0.1c3-0.1,4.7-0.2,4.7-0.2
				c7.2-1,12.7-6.8,13.4-13.8c0.1-0.9,0.1-1.8,0-2.8l-7.8-107l8.7-38.2l1.6-6.9c-0.1-0.5-0.2-0.8-0.2-0.8
				S2124.2,1259.2,2109.5,1322.7z"/>
			<g>
				<path class="st14" d="M2203,983.1c0,0,12-15.2,14.5-24.7c0,0,19-12.1,12.8-19c-6.2-6.8-13.8,1.6-14.9-0.9
					c-1.1-2.6,7.7-36.4-2-38.6c-9.7-2.2-47.7-3.6-58.3-21.8c-10.5-18.3,43.8-56.2,98.8-15C2309.1,904.4,2272.4,968.8,2203,983.1z"/>
				<path class="st14" d="M2275.1,900.8c0,0,5.7-7.4,4.8-14.4c0,0-3,8.2-7.5,10.7C2267.9,899.6,2275.1,900.8,2275.1,900.8z"/>
				<path class="st14" d="M2275.9,894.5c0,0,8,1.8,9.5,9c0,0-4.1-5.5-10.9-3.6L2275.9,894.5z"/>
			</g>
			<path class="st13" d="M2027.2,1146.6c0,0-45.5,18.9-116.8,1.2l-15-19.7c0,0,80.9-11.7,110.9-14.1
				C2036.2,1111.5,2027.2,1146.6,2027.2,1146.6z"/>
			<g>
				<path class="st19" d="M2126.3,1146c4.3,2.1,8.4,4.5,12.1,7.2l0,0c29.6,19.5,60.8,25,76.8,26.5c14-0.1,28.4,3,41.9,9.5
					c47.3,22.6,67.7,78.6,45.5,125.1s-78.6,65.8-125.9,43.2c-16.3-7.8-29.5-19.6-38.8-33.6c-17.7-21.9-41.4-30.8-54.3-34.2
					c-3.1-0.4-6.3-1.1-9.4-1.9c-0.1,0-0.1,0-0.1,0l0,0c-4.5-1.2-8.9-2.8-13.2-4.9c-38.5-18.4-55-63.9-37-101.6
					C2042.1,1143.4,2087.9,1127.7,2126.3,1146z"/>
				<path class="st20" d="M1867.3,1118.5l256.4,122.5c5.9,2.8,13.1,0.3,16-5.6l0,0c2.8-5.9,0.3-13.1-5.6-16l-256.4-122.5
					c-5.9-2.8-13.1-0.3-16,5.6l0,0C1858.8,1108.5,1861.3,1115.6,1867.3,1118.5z"/>
				<path class="st20" d="M2219.4,1302.5l0.4,0.2c3,1.5,6.7,0.2,8.2-2.9l17.3-36.2c1.5-3,0.2-6.7-2.9-8.2l-0.4-0.2
					c-3-1.4-6.7-0.2-8.2,2.9l-17.3,36.2C2215.1,1297.4,2216.4,1301,2219.4,1302.5z"/>
				<path class="st20" d="M2213.7,1270.7c5.6-11.7-0.1-26-12.6-32s-27.3-1.4-32.8,10.3c-5.6,11.7,0.1,26,12.6,32
					C2193.4,1287,2208.1,1282.4,2213.7,1270.7z"/>
				<path class="st20" d="M1850.6,1116.1l10.6,5.1c6.3,3,14,0.3,17-6l4-8.4c3-6.3,0.3-14-6-17l-10.6-5.1c-6.3-3-14-0.3-17,6l-4,8.4
					C1841.5,1105.4,1844.2,1113.1,1850.6,1116.1z"/>
			</g>
			<path class="st13" d="M2210.7,1264.1c1.3-2.7-9.7-1-11.2-4.7c-1.5-3.7,34.1-1.5,34.1-1.5l66.4-63.7c0,0,37.1,5.8,51,23.9
				c0,0-86.8,52.4-111.3,55.2c0,0-12.1,5.8-21.2,9c-9.1,3.2-28.1,6.1-29.1-1.4C2188.3,1273.5,2209.3,1266.9,2210.7,1264.1z"/>
		</g>
	</g>
	<g>
		<path class="st21" d="M1056.2,1701.5H927.4c-1.2-0.2-2.2-0.5-2.7-0.8c-8.6-4.3-5.9-37.2-4.9-47.4c0.2-1.9,0.3-3,0.3-3
			s45.3-36.2,51.5-8.5c0.2,0.9,0.4,1.7,0.7,2.5v0c7.9,26,43,37.7,63.3,41C1051.1,1688,1055.1,1697,1056.2,1701.5z"/>
		<path class="st15" d="M984.7,1649.8c0,0-57.1,17.2-74.3,1.8c0,0-150.5-263.6-138.2-320.7c1.2-6.7,0-15.4-4.3-26.4
			c-27.6-75.6-174.5-238.4-149.9-367.4c12.3-61.4,186.8,44.9,186.8,44.9l38.7,143.7L984.7,1649.8z"/>
		<path class="st14" d="M825,1057.6l-57.2,247c-27.6-75.6-174.5-238.4-149.9-367.4c12.3-61.4,186.8,44.9,186.8,44.9L825,1057.6z"/>
		<path class="st13" d="M600.5,573.2c0,0,18.5,55.6,70.1,56.1c0,0,18.9-19.4,25.9-36.5c0.9-2.1,1.7-4.1,2.5-6.1
			c7.9-19.2,12.9-29.8,12.9-29.8s0,0,0,0c-1.7-1.7-57.1-55.3-58-53C634.2,556.5,600.5,573.2,600.5,573.2z"/>
		<path class="st22" d="M655.6,518.9c1.7,14.4,14.3,46.3,43.4,67.7c7.9-19.2,12.9-29.8,12.9-29.8s0,0,0,0
			C710.2,555.6,655.1,514.7,655.6,518.9z"/>
		<path class="st13" d="M726.6,560.4c0,0-81.5-12.2-73.1-62.9c8.4-50.7,3.5-86.4,55.9-80.7c52.4,5.7,59.3,26.7,60.6,44.3
			C771.3,478.7,748,562.3,726.6,560.4z"/>
		<path class="st15" d="M650.9,511.2c-1.3,0.2-19.3-1.2-25.5-73.9c-1-11.4,4-33.2,22.3-47c18.4-13.7,63.5-12.3,98.7-5.4
			c35.2,6.9,35.7,28.4,36,50c0.3,22.7,17.3,48,17.3,48c-34.5,4.5-59.5-31.6-72.8-32.6c-13.3-1-24.8,15.9-28.1,21.5
			c-3.3,5.6-6.6,10-19.3-1.2C667,459.5,664.6,489,664.9,495C664.9,495,661.6,509.2,650.9,511.2z"/>
		<path class="st21" d="M777.2,1701.5H648.3c-1.2-0.2-2.2-0.5-2.7-0.8c-8.6-4.3-5.9-37.2-4.9-47.4c0.2-1.9,0.3-3,0.3-3
			s45.3-36.2,51.5-8.5c0.2,0.9,0.4,1.7,0.7,2.5v0c7.9,26,43,37.7,63.3,41C772.1,1688,776.1,1697,777.2,1701.5z"/>
		<path class="st15" d="M558.3,982.3c0,0,31.8,220.4,40.2,332.8c3.4,45-5.5,104.5,0,160.2c8.2,83.4,29.8,174.5,29.8,174.5
			s44.1,18.3,74.9,0c0,0,14.5-256.5,12.5-291.8c-2-35.3,44.9-415.2,34.6-417C740,939.1,558.3,982.3,558.3,982.3z"/>
		<path class="st23" d="M815.7,1017.7c-6.8,3.1-27.6,8-55.9,12.9c-68.8,9.8-176.9,17.8-195.4-9.2c-14.1-21.5-35-155.4-51-271.5
			c-3.1-21.5-6.1-41.8-8.6-60.8c-8.6-60.8,34.4-119.2,95.8-116.1c0,0,35.6,25.2,65.7,22.1c16.6-1.2,27.6-6.8,34.4-11.1
			c32,5.5,53.4,12.3,59,19.7c17.8,22.7,17.2,199.7,22.1,253.7C787.5,911.4,838.5,1006.6,815.7,1017.7z"/>
		<path class="st23" d="M600.5,573.2c0,0-64.1-14.1-96.7,13.5c-32.6,27.6-100.6,204.1-86.4,224.4c3,4.4,43.5,8.7,58.9,0
			C491.6,802.4,600.5,573.2,600.5,573.2z"/>
		<path class="st24" d="M759.8,1030.6c-68.8,9.8-176.9,17.8-195.4-9.2c-14.1-21.5-35-155.4-51-271.5c0.6-3.1,1.2-4.9,2.5-6.1
			c0,0,60.2,51,71.3,97.1C596.4,882.5,718.1,1007.8,759.8,1030.6z"/>
		<path class="st23" d="M891.3,769.5c0,0-25.8,25.8-36.2,33.2c-0.6,1.8-1.8,2.5-2.5,2.5c-0.6,0-1.8-0.6-3.7-1.2
			c-4.9-1.8-12.9-8-23.3-17.2c-4.3-3.7-8.6-7.4-13.5-11.7c-11.1-11.7-24-24.6-35-38.7c-17.8-21.5-33.2-44.9-37.5-64.5
			c-11.7-54.1,20.3-68.2,20.3-68.2S829.9,655.2,891.3,769.5z"/>
		<path class="st24" d="M871,757.2c0,0-9.2,36.3-16,45.5c-0.6,1.8-1.8,2.5-2.5,2.5c-0.6,0-1.8-0.6-3.7-1.2
			c-4.9-3.1-13.5-9.8-23.3-17.2c-4.3-3.7-8.6-7.4-13.5-11.7c-11.1-11.7-38.5,2.4-35.5-39.3C783.3,728.3,871,757.2,871,757.2z"/>
		<path class="st13" d="M852.9,804.9c0,0,90.2-2.9,179.5-69.1l-1.5-25.9c0,0-134.3,25.3-152.8,36.1
			C859.6,756.9,852.9,804.9,852.9,804.9z"/>
		<g>
			<path class="st18" d="M740.9,754.2c-5.9,2.8-11.3,6.1-16.4,9.8l0,0c-40.1,26.4-82.3,33.8-104,35.9c-19-0.1-38.4,4-56.8,12.8
				C499.5,843.2,472,919,502,981.9c30.1,62.9,106.4,89.1,170.5,58.4c22.1-10.6,39.9-26.5,52.5-45.5c23.9-29.7,56-41.7,73.6-46.3
				c4.2-0.6,8.5-1.5,12.7-2.6c0.1,0,0.2,0,0.2,0l0,0c6-1.7,12-3.8,17.9-6.6c52.1-24.9,74.5-86.5,50.1-137.6
				C854.9,750.5,792.9,729.3,740.9,754.2z"/>
			<path class="st16" d="M1091.5,716.9L744.4,882.7c-8,3.8-17.8,0.4-21.6-7.6l0,0c-3.8-8-0.4-17.8,7.6-21.6l347.1-165.9
				c8-3.8,17.8-0.4,21.6,7.6l0,0C1103,703.3,1099.6,713,1091.5,716.9z"/>
			<path class="st16" d="M614.8,966l-0.5,0.2c-4.1,2-9.1,0.2-11-3.9l-23.4-49c-2-4.1-0.2-9.1,3.9-11l0.5-0.2c4.1-2,9.1-0.2,11,3.9
				l23.4,49C620.7,959,618.9,964,614.8,966z"/>
			<path class="st16" d="M622.6,923c-7.6-15.8,0.1-35.3,17.1-43.4c17-8.1,36.9-1.9,44.5,14c7.6,15.8-0.1,35.3-17.1,43.4
				C650.1,945.1,630.2,938.8,622.6,923z"/>
			<path class="st16" d="M1090.4,717l-14.4,6.9c-8.6,4.1-18.9,0.4-23-8.1l-5.4-11.3c-4.1-8.6-0.4-18.9,8.1-23l14.4-6.9
				c8.6-4.1,18.9-0.4,23,8.1l5.4,11.3C1102.7,702.5,1099,712.9,1090.4,717z"/>
		</g>
		<path class="st13" d="M1032.4,745.1c0,0,51.2-9.6,51.2-15.9c0-6.3-6-25.2-18.3-19.3C1053,715.8,1032.4,745.1,1032.4,745.1z"/>
		<path class="st13" d="M417.4,811.1c0,0,107.6,83.4,197.8,94.3l10.2-28.8c0,0-115.5-85.5-135.5-91.4
			C469.9,779.3,426.3,791.7,417.4,811.1z"/>
		<path class="st13" d="M625.3,876.6c0,0,20.2-3.3,28.1-10.6c7.8-7.2,11.8-17.7,11.8-17.7s5.1,1.8,4.3,8.3
			c-0.7,6.5-7.6,12.3-4.3,14.1c3.3,1.8,40.1-17.3,41.9-8.3c1.8,9-15.5,35.6-22.8,42.9c-7.2,7.3-69.2,0-69.2,0L625.3,876.6z"/>
	</g>
	<g>
		<path class="st21" d="M1429.4,928.2c0,0-19.8-41.6-67.6-16.8c-47.8,24.8-1.3,119.2-26.3,142.5s9.1,38.6,4,55.3
			c-5.1,16.7,9.5,35.7,42.9,33.5c33.4-2.2,68.7-0.4,83.8-29.7c15.1-29.3,11.7-93.6,5.8-102.7
			C1466.1,1001.3,1429.4,928.2,1429.4,928.2z"/>
		<path class="st13" d="M1506.8,1150.2l-81.3-49c0.5-0.2,2.1-2.6,8.2-20.2c2.6-7.5,4-14,4.6-19.2c0.1-0.5,0.1-1,0.2-1.5
			c0.8-7.5,0.2-11.8,0.2-11.8l17.8,6.4l32.9,11.9c-0.4,8.3,0.8,14.2,2.6,18.3c4.3,9.8,12.3,9.9,12.5,9.9L1506.8,1150.2z"/>
		<path class="st25" d="M1492.1,1085.1c-31.8,2.7-49.7-18-53.7-23.3c-0.6-0.8-0.9-1.2-0.9-1.2s0.4-0.1,1.1-0.3
			c2.6-0.8,9.6-2.9,18-5.4l32.9,11.9C1489.1,1075.2,1490.3,1081.1,1492.1,1085.1z"/>
		<path class="st13" d="M1493.7,1073.7c0,0-70.7,7.8-72.1-40c-1.4-47.8-11.9-69.7,37-73.9c48.9-4.3,60.5,13.4,63.3,29.5
			C1530.9,1039.8,1513.6,1071.5,1493.7,1073.7z"/>
		<path class="st21" d="M1462.3,983c-25-6.3-15.4,38-21.8,35c-7.1-3.4-19.2-3.3-17.3,5.2c1.9,8.5,4.7,11.6,6.1,16.9
			c1.4,5.3,0,15.9-5.8,13.8s-59.9-63.9-21.7-112c38.2-48.1,152.1-18.5,116.2,31.9C1511.8,982.6,1480.2,987.6,1462.3,983z"/>
		<path class="st13" d="M1671.9,1075.3c-2.5-6.2-10.9-5-17.2,2.2c-5.8,6.6-5.6,24.6-5.5,27.5c-7.3,9.1-31.4,34.9-45,46.8
			c-3,2.6-8.3,1.7-11.3-0.9c-7.7-6.8-21-18.2-28.1-22.5c-10.3-6.2-68-45.4-75.5-28.7c0,0,4.2,64.1,97.4,102.7
			c9.1,3.8,19.6,2.8,27.8-2.7c14.1-9.5,36-31.7,51.1-88.6C1665.6,1111,1679.7,1094.6,1671.9,1075.3z"/>
		<path class="st13" d="M1554.7,1670.5l-37.4,9.9c0,0-23-80-27.9-135.6c-0.8-8.4-1.1-16.3-0.8-23.3c1.1-31.8-66.5-164.5-20.3-194.6
			c31.8-20.7,78-3.4,78-3.4s6.4,168.6,6.4,200.2c0,4.3,0,10.2,0.1,17.1C1553.3,1584.5,1554.7,1670.5,1554.7,1670.5z"/>
		<path class="st13" d="M1483.7,1333.4c0,0-30.4,171.4-37.7,209.6c-0.6,3.1-1,5.3-1.3,6.5c-3.4,15.9-20.6,124.9-20.6,124.9l-37.2-2
			c0,0-11.2-80.1-8.8-137.6c0.6-14.1,2-26.8,4.6-36.6c13.1-50.1-17.2-173.8,30.7-202.9C1461.2,1266.3,1483.7,1333.4,1483.7,1333.4z"
			/>
		<path class="st26" d="M1489.3,1045.9c0-3,6.5-5.5,11-5.5c4.6,0,10.7,2.8,10.4,4.9c-0.7,4.9-5.8,8.9-10.4,8.9
			C1495.8,1054.2,1489.3,1050.5,1489.3,1045.9z"/>
		<path class="st13" d="M1388.3,1108.1c0,0-53.5,106.7-66.6,119.8c-13.1,13.1-59.3,55.3-75.3,67.2c0,0-49.1,14-48,19.8
			c1.1,5.8,34.2,4.7,37.8,6.1c3.6,1.5-7.3,10.6,1.8,10.2c6-0.2,11.9-10.8,15.3-18.1l0,0c0,0,83.6-40.9,96-47.4
			c12.4-6.5,49.5-53.1,56-72.8C1412,1173.4,1388.3,1108.1,1388.3,1108.1z"/>
		<path class="st15" d="M1581.8,1187.6c10-24.6,4-49.8,4-49.8c-34.6-39.1-56.3-42.7-63.7-42.6c-24.3-4.5-69.3-1.4-93.8,0.9
			c0-0.4,0-0.6,0-0.6s-39.5,3.1-50.7,16.1c0,0,0,0,0,0c-11.3,13.2-51.2,80.1-51.2,80.1s-1.9,16.4,16.3,34.1
			c6.5,6.3,15.5,12.9,28.2,18.9c3.4,1.6,6.6,2.3,9.6,2.1l0,0l-37,179.1c13.7,22.4,42.3,37.1,75,46.1c68.2,18.8,154.4,13.1,161,2.8
			c6.8-43.1-3.1-167.1-16.9-261C1572.1,1206.1,1578.1,1196.9,1581.8,1187.6z"/>
		<path class="st21" d="M1446,1543c-0.6,3.1-1,5.3-1.3,6.5c-3.4,15.9-20.6,124.9-20.6,124.9l-37.2-2c0,0-11.2-80.1-8.8-137.6
			C1387.8,1539.5,1407.5,1544.6,1446,1543z"/>
		<path class="st15" d="M1477.1,1702.1H1384c0,0-1.8-15.3,0.4-28.4c0.3-1.6,1.1-3,2.3-4.3c5.5,1.9,13.5,3.2,22.4,0
			c7.3-2.6,13.8-7.6,17.6-11.2c1,0.9,19.1,20.4,28,20.4C1463.7,1678.5,1477.6,1683,1477.1,1702.1z"/>
		<path class="st21" d="M1554.7,1670.5l-37.4,9.9c0,0-23-80-27.9-135.6c15.4,1.1,42.1,1.9,63.4-4
			C1553.3,1584.5,1554.7,1670.5,1554.7,1670.5z"/>
		<path class="st15" d="M1605.9,1702.1h-93.1c0,0-1.8-15.3,0.4-28.4c0.3-1.6,0-3,1.2-4.2c5.5,1.9,14.6,3.1,23.5-0.1
			c7.3-2.6,12.9-7.4,16.7-11.1c1,0.9,20,20.2,28.8,20.2C1592.5,1678.5,1606.4,1683,1605.9,1702.1z"/>
		<path class="st14" d="M1418.6,1472.1c-32.7-9-61.3-23.6-75-46.1l37-179.1C1380.5,1247,1461.9,1409.8,1418.6,1472.1z"/>
		<path class="st14" d="M1377.7,1111.7c0,0-7.3,93.1-34.9,114.3c-18.2-17.8-16.3-34.1-16.3-34.1S1366.4,1124.9,1377.7,1111.7
			C1377.7,1111.7,1377.7,1111.7,1377.7,1111.7z"/>
		<path class="st14" d="M1581.8,1187.6c-3.8,9.4-9.9,18.7-19.5,26.5c-2.4-8.3-6.9-27.1-1-30.5
			C1568.9,1179.4,1581.8,1187.6,1581.8,1187.6z"/>
	</g>
	<g>
		<g>
			<g>
				<path class="st14" d="M1698.9,1683.6l-70.9-565.2h3.9l89.5,564.7C1721.8,1687.3,1699.5,1688.7,1698.9,1683.6z"/>
			</g>
			<g>
				<path class="st19" d="M1580.4,1091.5c-7.3-6.6-7.9-17.9-1.3-25.3c6.6-7.3,17.9-7.9,25.3-1.3c7.3,6.6,7.9,17.9,1.3,25.3
					C1599,1097.6,1587.7,1098.1,1580.4,1091.5z"/>
				<polygon class="st20" points="1693.4,1164.7 1690.3,1168.2 1673.1,1154.6 1678.1,1149 				"/>
				<polygon class="st19" points="1608.7,1068.4 1647.9,1107.6 1660.5,1120.2 1662.9,1122.7 1687.1,1146.9 1672.4,1163.1 
					1645.2,1142.2 1642.4,1140.1 1628.3,1129.3 1584.2,1095.5 				"/>
				<path class="st27" d="M1610,1068.5l-25.6,28.2c-0.7,0.8-2,0.9-2.8,0.1l0,0c-0.8-0.7-0.9-2-0.1-2.8l25.6-28.2
					c0.7-0.8,2-0.9,2.8-0.1l0,0C1610.7,1066.5,1610.8,1067.7,1610,1068.5z"/>
				<polygon class="st20" points="1662.9,1122.7 1687.1,1146.9 1672.4,1163.1 1645.2,1142.2 				"/>
			</g>
			<path class="st14" d="M1614.2,1118.4c0.5,0.4,6.6,23.5,35.3,27.1L1614.2,1118.4z"/>
		</g>
		<path class="st14" d="M1759.8,1702.1h-98.1c1-6.5,4.1-12.4,8.6-16.9c5.5-5.5,13.1-8.9,21.4-8.9h38
			C1744.9,1676.3,1757.6,1687.6,1759.8,1702.1z"/>
	</g>
	<path class="st26" d="M719.7,531c0,0,16,2.1,21.6,8C741.4,538.9,732.4,548.8,719.7,531z"/>
	<g>
		<g>
			<path class="st28" d="M2583.6,1560.8c0,0,22.1-25.8,1.4-42.2c0,0-15.2-9.2-27.5-8.4c0,0,17.5,29.4,11.9,32.3
				c-5.7,2.9-17.2-34.1-17.2-34.1s-34.5-3.3-45.6,2c0,0,29.5,24.1,23.3,25.6c-6.2,1.4-38.1-22.3-38.1-22.3s-32.1,5.5-30.4,25.1
				c1.7,19.6,12.8,25.6,17.6,25.1c4.9-0.5,33.3-11.4,33.9-7.4c0.6,4-16.5,17-28.5,17.6c0,0,22.6,25,37.7,17.8s16.3-18.6,25.7-22.9
				c9.4-4.3,17.4-4.3,13.5,0.1c-3.9,4.4-20.8,8.6-26.2,18.1c-5.4,9.5-10.2,15.9,5.4,13.5s40.9-13.7,42-26.8
				S2583.6,1560.8,2583.6,1560.8z"/>
			<g>
				<path class="st28" d="M2477.1,1539.2c0,0,87.2-3.4,106.5,21.6c0,0,4.3,12.8,17.4,24.4l2,5.6c0,0-15.1-15.9-20.5-16.9
					C2582.5,1573.8,2590.9,1542.9,2477.1,1539.2z"/>
				<path class="st28" d="M2600.9,1585.2c0,0,18.7,13.8,20,38.6l-3.4,0.3c0,0-6-25.6-16.8-35.6
					C2590,1578.5,2600.9,1585.2,2600.9,1585.2z"/>
			</g>
		</g>
		<g>
			<path class="st29" d="M2660.9,1528.3c0,0-35.2-19.7-18.8-46.5c0,0,13.1-16.4,27.2-20.6c0,0-7.5,39.9,0,40.8
				c7.5,0.9,5.2-45,5.2-45s37.1-17.8,51.6-16.4c0,0-23,38.9-15.5,38c7.5-0.9,33.3-40.4,33.3-40.4s38-7,44.1,15.5
				c6.1,22.5-3.8,33.8-9.4,35.2c-5.6,1.4-41.8,0.9-40.8,5.6c0.9,4.7,25.3,12.2,38.9,8c0,0-15,37.1-34.7,35.2
				c-19.7-1.9-25.8-14.1-38-15s-21.1,2.3-15,5.6c6.1,3.3,26.7,1.1,36.6,9.5c9.9,8.4,17.8,13.5-0.5,17.3
				c-18.3,3.8-51.1,1.4-57.7-12.7C2660.9,1528.3,2660.9,1528.3,2660.9,1528.3z"/>
			<g>
				<path class="st30" d="M2770.7,1460.8c0,0-98.5,31.9-109.8,67.6c0,0,0.5,16-9.4,34.3v7c0,0,10.3-23.9,16-27.2
					C2667.5,1542.4,2645.4,1511.4,2770.7,1460.8z"/>
				<path class="st30" d="M2651.5,1562.6c0,0-15.2,23.1-6.5,51.2l3.9-1.1c0,0-3.8-30.9,4.2-46.5
					C2661,1550.6,2651.5,1562.6,2651.5,1562.6z"/>
			</g>
		</g>
		<g>
			<path class="st29" d="M2604.9,1501.1c0,0,46.4-26,24.7-61.2c0,0-17.3-21.6-35.9-27.2c0,0,9.9,52.6,0,53.8
				c-9.9,1.2-6.8-59.4-6.8-59.4s-48.9-23.5-68-21.6c0,0,30.3,51.3,20.4,50.1c-9.9-1.2-43.9-53.2-43.9-53.2s-50.1-9.3-58.1,20.4
				s4.9,44.5,12.4,46.4c7.4,1.9,55,1.2,53.8,7.4c-1.2,6.2-33.4,16.1-51.3,10.5c0,0,19.8,48.9,45.8,46.4c26-2.5,34-18.6,50.1-19.8
				c16.1-1.2,27.8,3.1,19.8,7.4s-35.3,1.4-48.2,12.5c-13,11-23.5,17.8,0.6,22.8c24.1,4.9,67.4,1.9,76.1-16.7
				C2604.9,1501.1,2604.9,1501.1,2604.9,1501.1z"/>
			<g>
				<path class="st30" d="M2460.2,1412.1c0,0,129.9,42.1,144.7,89.1c0,0-0.6,21,12.4,45.2v9.3c0,0-13.6-31.5-21-35.9
					C2596.3,1519.7,2625.3,1478.9,2460.2,1412.1z"/>
				<path class="st30" d="M2617.3,1546.3c0,0,20,30.4,8.6,67.4l-5.2-1.4c0,0,5-40.8-5.5-61.3S2617.3,1546.3,2617.3,1546.3z"/>
			</g>
		</g>
		<path class="st20" d="M2515.6,1603.2c0,50.2,40.7,90.9,90.9,90.9c10.5,0,20.5-1.8,29.9-5c35.5-12.4,61-46.1,61-85.8H2515.6z"/>
		<path class="st19" d="M2575.4,1603.2c0,34,8.2,68.7,35.9,84.3c4.6,2.6,20-0.2,25.1,1.5c35.5-12.4,61-46.1,61-85.8H2575.4z"/>
		<path class="st31" d="M2606.5,1694c3.7,0.5-14.9,0-11.1,0c50.2,0,90.9-40.7,90.9-90.9h-22.6
			C2663.7,1649.5,2651.4,1688.5,2606.5,1694z"/>
		<path class="st20" d="M2514.4,1698.7h184.3c0-3.1-1.3-5.9-3.3-7.9s-4.8-3.3-7.9-3.3h-161.8
			C2519.4,1687.5,2514.4,1692.5,2514.4,1698.7z"/>
		<path class="st19" d="M2600.7,1698.7h97.9c0-3.1-1.3-5.9-3.3-7.9s-4.8-3.3-7.9-3.3h-75.5
			C2605.7,1687.5,2600.7,1692.5,2600.7,1698.7z"/>
		
			<rect x="2513.6" y="1603.2" transform="matrix(-1 -1.224647e-16 1.224647e-16 -1 5213.9082 3209.1338)" class="st32" width="186.8" height="2.8"/>
	</g>
	<path class="st33" d="M159.8,1704.9h2680.4c1.7,0,3-1.4,3-3v-1c0-1.7-1.4-3-3-3H159.8c-1.7,0-3,1.4-3,3v1
		C156.7,1703.5,158.1,1704.9,159.8,1704.9z"/>
	<path class="st13" d="M1910.4,1147.8c0,0-32.2-9.9-21.1-29.5C1894.7,1111.5,1922.7,1128.8,1910.4,1147.8z"/>
</g>
</svg>
