<?xml version="1.0" encoding="utf-8"?>
<!-- Generator: Adobe Illustrator 26.5.0, SVG Export Plug-In . SVG Version: 6.00 Build 0)  -->
<svg version="1.1" xmlns="http://www.w3.org/2000/svg" xmlns:xlink="http://www.w3.org/1999/xlink" x="0px" y="0px"
	 viewBox="0 0 314 500" style="enable-background:new 0 0 314 500;" xml:space="preserve">
<style type="text/css">
	.st0{display:none;}
	.st1{display:inline;fill:#FAFAFA;}
	.st2{fill:#E0E0E0;}
	.st3{fill:#FFBDA7;}
	.st4{fill:#263238;}
	.st5{fill:#455A64;}
	.st6{fill:#37474F;}
	.st7{fill:#F0F0F0;}
	.st8{fill:#BA68C8;}
	.st9{opacity:0.1;}
	.st10{opacity:0.3;fill:#FFFFFF;}
	.st11{opacity:0.6;fill:#FFFFFF;}
	.st12{opacity:0.2;}
	.st13{fill:#F0997A;}
	.st14{fill:#B16668;}
</style>
<g id="Floor" class="st0">
	<path id="Floor_00000013876646643919197920000017874447876317227658_" class="st1" d="M-11.9,257.7c-90,52-90,136.2,0,188.1
		s235.9,52,325.9,0s90-136.2,0-188.1S78,205.8-11.9,257.7z"/>
</g>
<g id="Window">
</g>
<g id="Pictures_00000099623093898655771090000005814341291072021685_">
</g>
<g id="Shadows">
	
		<ellipse id="Shadow_00000123430527127016693810000017999588163106052758_" class="st2" cx="150.7" cy="412.4" rx="79.8" ry="46.1"/>
</g>
<g id="Sofa">
</g>
<g id="Drawer">
</g>
<g id="Character">
	<g id="Character_00000039108409825143311430000009892574474405929872_">
		<g id="Bottom_00000183225284681893115590000009528786667197687959_">
			<g>
				<path class="st3" d="M165,376.3l-3.1-19.4l23.7-3.8c0,0-0.1,15.5,0.4,22.5c0.2,3.3,2.9,9.5,2.9,9.5s-9.1,5.5-14.1,3.7
					c-5-1.8-8.6-9.4-8.6-10.8L165,376.3z"/>
				<path class="st4" d="M217.3,407.2c0.3,0,0.6,3.1-1.1,4.7c-2.1,1.8-8.7,5.3-16.8,4.4c-8.1-1-12.5-3.5-15.7-6.1
					c-3.2-2.7-7.8-6.5-11.5-7.3c-3.4-0.7-8-3.4-9.1-4.5c-1.1-1-1-5.7-1-5.7L217.3,407.2z"/>
				<path id="XMLID_00000090989878814307712970000000696283200499202189_" class="st5" d="M164.7,374.4c0,0-0.4,0.2-0.6,1.3
					c-0.2,1.3-0.5,5-1,7.1c-0.7,2.9-1.2,9-0.8,11.3c0.5,2.4,6.9,5.2,10.5,6.5c3.6,1.4,7.8,4.2,11.5,7.2c3.8,3.1,11.8,6.3,17.1,6.2
					c6.2-0.1,13.2-2.2,14.8-5.1c2-3.6,3.4-7.8-5.8-12c-1.8-0.8-7.9-4.4-10-5.7c-5.7-3.5-9.7-6.8-12.3-13.1c-0.3-0.7-0.6-1.6-1.3-1.9
					c-0.5-0.3-1.2-0.2-1.8-0.1c-1.5,0.2-7.7,1.1-9.1,1.8c-1.2,0.6-3,1.3-3,2.9c0,0.6,0.2,1.1,0.4,1.6c0.1,0.3,0.2,0.8-0.1,0.9
					c-0.3,0.2-0.6,0-0.9-0.2c-1-0.9-1.7-2-2.5-3c-0.4-0.5-1.8-2.3-2.4-2.7c-0.5-0.4-1.1-0.6-1.6-1
					C165.2,376.1,164.7,375.2,164.7,374.4z"/>
				<path class="st6" d="M184.2,407.9c-1.6-1.3-3.3-2.6-5.1-3.7l0,0c0,0,10.9,6.5,15.3,3.5c2.8-2,1.5-4.3,1.4-5
					c-0.1-0.8,9.9-6.1,12.6-6.5l0,0c0.8,0.4,1.4,0.8,1.8,0.9c7.2,2.8,8.2,6.6,7,11.2c-1.6,2.9-7.8,5.9-15.9,6
					C196.2,414.4,188.1,411,184.2,407.9z"/>
				<path class="st6" d="M195.1,400.5c5.8,2.3,3.3,3.3,1.7,3.6c-1.6,0.2-11.3-5.3-17.2-10c-6.2-4.8-11-11.3-13.3-13.1
					c-0.9-0.7-1.8-1.5-2.6-2.2c0.1-1.3,0.3-2.4,0.4-3c0.2-1.1,0.6-1.3,0.6-1.3s0.5,1.7,1,2.2c0.4,0.4,1.1,0.6,1.6,1
					c0.6,0.4,1.9,2.1,2.4,2.7c0.8,1,1.5,2.1,2.5,3C177.3,389.6,189.3,398.2,195.1,400.5z"/>
				<g>
					<g>
						<path class="st4" d="M196.4,403.2c-0.1,0-0.3,0-0.4-0.1c-0.2-0.2-0.3-0.6-0.1-0.8c1.6-2,9.3-6.8,13.5-6.3
							c0.3,0,0.5,0.3,0.5,0.6c0,0.3-0.3,0.5-0.6,0.5c-3.9-0.4-11.2,4.3-12.5,5.9C196.7,403.1,196.5,403.2,196.4,403.2z"/>
					</g>
					<g>
						<path class="st4" d="M191.4,400.2c-0.1,0-0.3,0-0.4-0.1c-0.2-0.2-0.3-0.6-0.1-0.8c1.6-2,9.3-6.8,13.5-6.3
							c0.3,0,0.5,0.3,0.5,0.6c0,0.3-0.3,0.5-0.6,0.5c-4-0.4-11.2,4.3-12.5,5.9C191.7,400.1,191.5,400.2,191.4,400.2z"/>
					</g>
					<g>
						<path class="st4" d="M186.3,397.3c-0.1,0-0.3,0-0.4-0.1c-0.2-0.2-0.3-0.6-0.1-0.8c1.6-2,9.3-6.8,13.5-6.3
							c0.3,0,0.5,0.3,0.5,0.6c0,0.3-0.3,0.5-0.6,0.5c-4-0.4-11.2,4.3-12.5,5.9C186.7,397.2,186.5,397.3,186.3,397.3z"/>
					</g>
					<g>
						<path class="st4" d="M181.7,394c-0.1,0-0.3,0-0.4-0.1c-0.2-0.2-0.3-0.6-0.1-0.8c1.6-2,9.3-6.8,13.5-6.3c0.3,0,0.5,0.3,0.5,0.6
							c0,0.3-0.3,0.5-0.6,0.5c-3.9-0.4-11.2,4.3-12.5,5.9C182,393.9,181.8,394,181.7,394z"/>
					</g>
					<g>
						<path class="st4" d="M177.1,390.7c-0.1,0-0.2,0-0.4-0.1c-0.2-0.2-0.3-0.6-0.1-0.8c2.2-2.8,10.3-6.8,14.5-6.4
							c0.3,0,0.5,0.3,0.5,0.6c0,0.3-0.3,0.5-0.6,0.5c-3.8-0.4-11.5,3.5-13.5,6C177.4,390.6,177.3,390.7,177.1,390.7z"/>
					</g>
				</g>
			</g>
			<g>
				<path class="st3" d="M123.1,382.8l4.4-24.2l-23.5-2.7l0.6,23.7c0,0-1.5,6.5-0.1,8.6c1.4,2.1,15.5,3.9,16.7,2.4
					C122.4,388.9,123.1,382.8,123.1,382.8z"/>
				<path class="st4" d="M122.3,420.7c-0.4,5.4-1.4,8.9-3.6,12c-2.2,3-6.3,3.7-10.4,2.4c-4.1-1.3-9.4-4.2-10.5-9
					c-1.1-4.8-0.9-8,0.1-13L122.3,420.7z"/>
				<path id="XMLID_00000070114582640332931780000001206266715698512780_" class="st5" d="M104.6,379.5c-1.7,0-1.1,4.2-1.6,11.5
					c-0.6,7.9-3.8,14.2-4.8,20.6c-1.1,7.3-0.7,10.6,2.1,15.3c2.8,4.7,13,9.9,18,3.9c4.1-4.8,4.3-10.6,4-18c-0.3-7.6-0.6-13-0.2-18.7
					c0.4-5.5,2.4-10.6,1-11.3c-0.1,0.8-1.3,6.4-2.3,6.3c-0.1-0.7-0.1-1.4,0-2.1c0.1-0.6,0-1.3-0.4-1.8c-0.5-0.5-2.1-1.1-2.8-1.3
					c-1.7-0.4-4.6-0.9-6.3-1.2c-0.8-0.1-1.7-0.2-2.5-0.3c-0.7,0-1.5-0.1-2.1,0.1c-0.4,0.1-0.8,0.3-0.9,0.7c-0.1,0.3-0.1,0.5-0.1,0.8
					c0,0.5-0.1,1-0.2,1.5c-0.1,0.2-0.2,0.5-0.5,0.4c-0.2-0.1-0.3-0.3-0.3-0.5C104.6,384.5,104.5,380,104.6,379.5z"/>
				<path class="st6" d="M98.6,409.5c-0.2,1-1.2,8,0.9,9.4c2.3,1.6,3.6-3.9,3.6-3.9s5.4-1,13.3,2.7c-0.4,1.1,0.8,5,2.9,4.3
					c2.2-0.6,3.1-8.6,3.1-8.7c0.3,7.1-0.1,12.6-4.1,17.3c-5.1,5.9-15.2,0.8-18-3.9c-2.8-4.7-3.2-8-2.1-15.3
					C98.3,410.8,98.4,410.2,98.6,409.5z"/>
				<path class="st6" d="M103.7,415.6c-0.1,2.7-3,1.5-3.1-2.2c-0.1-3.8,1.5-13,2-19.1c0.1-8.9,0.3-14.7,2-14.7c0,0.1,0,0.2,0,0.3
					c0,0,0,5,0,5.6c-0.1,5.4,0.3,15.9-0.3,20.8C103.7,411.1,103.7,412.9,103.7,415.6z"/>
				<path class="st6" d="M115.4,417.6c0.6-2.6,1.1-4.3,1.7-9.2c0.6-4.9,3.1-14.6,4.3-19.9c0.4-0.9,1.7-5.8,1.7-5.8
					c1.2,0.3,0.2,5-0.3,7.2c-0.5,2.2-1,4.5-1.6,7.7c-1.5,6.2-1.3,15.4-2.3,19C117.9,420.1,114.9,420.2,115.4,417.6z"/>
				<g>
					<g>
						<path class="st4" d="M116.5,418c-0.1,0-0.2,0-0.2-0.1c-0.1,0-6.2-3.4-13-2.3c-0.3,0.1-0.7-0.2-0.8-0.5
							c-0.1-0.3,0.1-0.6,0.5-0.7c7.3-1.1,13.7,2.3,14,2.5c0.3,0.2,0.4,0.5,0.3,0.8C117,418,116.8,418.1,116.5,418z"/>
					</g>
					<g>
						<path class="st4" d="M118,412.4c-0.1,0-0.1,0-0.2-0.1c-0.1,0-7-3.5-14.6-2.6c-0.3,0-0.7-0.2-0.8-0.5c-0.1-0.3,0.1-0.6,0.5-0.6
							c8.1-1,15.1,2.6,15.4,2.7c0.3,0.2,0.4,0.5,0.3,0.8C118.5,412.3,118.2,412.4,118,412.4z"/>
					</g>
					<g>
						<path class="st4" d="M103.6,404.3c-0.2,0-0.4-0.2-0.5-0.4c-0.1-0.3,0.1-0.6,0.4-0.7c7.6-1.7,15.1,2.4,15.4,2.6
							c0.3,0.2,0.4,0.5,0.3,0.8c-0.2,0.3-0.5,0.3-0.8,0.2c-0.1,0-7.3-4-14.4-2.4C103.8,404.3,103.7,404.3,103.6,404.3z"/>
					</g>
					<g>
						<path class="st4" d="M104.1,399.2c-0.2,0-0.4-0.2-0.5-0.4c-0.1-0.3,0.1-0.6,0.4-0.7c8.4-2,15.4,2.4,15.7,2.6
							c0.3,0.2,0.4,0.5,0.2,0.8c-0.2,0.3-0.6,0.3-0.9,0.1c-0.1,0-6.8-4.2-14.6-2.4C104.3,399.2,104.2,399.2,104.1,399.2z"/>
					</g>
					<g>
						<path class="st4" d="M104.7,393.4c-0.2,0-0.4-0.2-0.5-0.4c-0.1-0.3,0-0.6,0.4-0.7c7.9-2,15.5,2.5,15.8,2.7
							c0.3,0.2,0.4,0.5,0.2,0.8c-0.2,0.3-0.6,0.3-0.9,0.1c-0.1,0-7.5-4.4-14.8-2.6C104.9,393.4,104.8,393.4,104.7,393.4z"/>
					</g>
				</g>
			</g>
			<g>
				<path id="XMLID_00000054257880853389798430000014136601695239243143_" class="st5" d="M111,183.8c-2.5,22.9-4.1,35.6-3.5,65.7
					c0.2,11.4-0.2,24-0.3,35.4c0,3.2,0.3,7-0.2,10.2c-1,5.9-1.6,9.6-2.6,16.8c-0.6,4.4-0.9,10-1.2,14.4c-0.5,6.6,0.2,13.4-1.2,19.9
					c-0.5,2.4-1.3,4.8-1.6,7.3c-0.1,1.3-0.1,2.7,0.3,4c0.4,1.3,2.7,4.4,3.1,5.6c0.6,1.7,0,4.3,0,6.2c0,0,12.3,6.1,21.7,2.8
					c0.4-1.7,0.6-4.4,1.5-5.7c0.7-1,3.7-3.3,4.5-4.3c0.9-1,1.5-2.2,1.9-3.5c0.5-1.8,0.3-3.7,0.5-5.6c0.4-4.4,2.4-8.4,3.8-12.6
					c3.8-11.2,3.1-23.2,5.5-34.7c3.2-15.5,4.7-25.3,6.5-36.4c1.8-11.1,6.4,22,6.4,22c0.3,1.9-0.2,4.1-0.3,6
					c-0.2,3.9-0.1,7.8-0.6,11.7c-1.1,8.6-0.9,17.4,0.7,25.9c0.8,4.5,1.6,7.6,1.3,12.1c-0.1,2.7-0.6,5.1,0.4,7.5
					c0.8,1.8,2.7,4.7,3.6,6.4c0.4,0.7,0.4,6.1,0.8,6.3c0,0,13,7.5,22.8-0.6c0.1-1.6,1-4.7,1.7-6c1.7-1.8,3.3-5.2,3.5-7.8
					c0.2-2.5-0.6-4.4-0.6-6.9c0-3.1,0.5-6.2,0.9-9.3c0.5-4.4,0.6-8.8,0.5-13.3c-0.1-3.8-0.7-7.9-0.1-11.7c1-6.3,1.1-12.9,1.3-19.3
					c0.8-25-2.6-75.8-4.1-108.2L111,183.8z"/>
				<path class="st4" d="M155.6,229.2l-6.6,44.7c0.2-1.5,0.5-3,0.7-4.6c1.8-11.1,6.4,22,6.4,22l-0.8-20.5
					c-0.3-6.8,0.8-13.2,1.7-20.6c1.2-9.6,2.4-16.4,2.4-16.4c12.8-2.9,16.8-10.9,16.8-10.9C170.4,228.7,155.6,229.2,155.6,229.2z"/>
			</g>
			<path class="st4" d="M103.6,370.1c4.2,3.4,13.6,5.9,22,2.9l1.8-7.2c-6.4,2.1-16.6,1-23.6-3.4L103.6,370.1z"/>
			<path class="st4" d="M162.2,368.1c2.8,2.9,16.1,4.3,23.9-0.3l0.5-7.2c-5.9,3.3-19.5,3.8-25.2,0.3L162.2,368.1z"/>
			<g>
				<path class="st6" d="M107.6,254.5c0,0-0.7,32.6-0.6,34.9c0.1,2.3,18.6,7.3,19,5.8c0.8-2.5,0.6-8,2.3-34.7
					C114,258.7,107.6,254.5,107.6,254.5z"/>
				<path class="st4" d="M125.5,269.8c-0.5-0.2-1.1-0.1-1.6-0.1c-0.6,0-1.3,0-1.9-0.1c-1.3-0.1-2.7-0.3-4-0.6
					c-1.5-0.3-2.9-0.8-4.3-1.4c-1.2-0.5-2.2-1.1-3.4-1.5c-0.1,0-0.1,0.2-0.1,0.2c1.1,0.8,2.4,1.4,3.6,1.9c1.2,0.5,2.4,0.9,3.6,1.2
					c1.3,0.3,2.6,0.6,4,0.7c0.7,0.1,1.3,0.1,2,0.2c0.6,0,1.5,0.2,2.1-0.1C125.6,270,125.6,269.8,125.5,269.8z"/>
				<path class="st4" d="M118.1,265.2c-0.2-0.3-0.3-0.5-0.7-0.6c-0.3,0-0.6,0-0.9,0.2c-0.2,0.2-0.4,0.4-0.4,0.7
					c-0.1,0.5,0.2,1,0.6,1.2c0.4,0.2,0.9,0.2,1.2,0c0.2-0.2,0.3-0.5,0.3-0.7C118.3,265.8,118.2,265.5,118.1,265.2z M117.7,266.2
					c-0.2,0.3-0.6,0.3-0.9,0.2c-0.4-0.3-0.3-1.1,0.2-1.2c0.2,0,0.3,0,0.5,0.1C117.8,265.5,117.9,266,117.7,266.2z"/>
			</g>
		</g>
		<g id="Top_00000101814385241201091530000002810046225415076770_">
			<g>
				<path class="st3" d="M172.1,107.8c10,1.4,13.7,5.4,23.8,18.3c4.2,5.3,16,19.7,16,19.7l36.1-12.1c19.1-3-1.1,16.9-1.1,16.9
					s-14.5,8.9-30.7,16.8c-9.6,4.7-12.1,3.6-25.6-10.1c-13-13.3-18.3-20.5-18.3-20.5L172.1,107.8z"/>
				<path class="st5" d="M172.1,107c9,1.3,12,3.8,16.4,9c4,4.6,16.3,20.7,16.3,20.7s0,6.4-6.3,12.4c-5.3,5.1-9.9,6.6-9.9,6.6
					L171.7,138L172.1,107z"/>
			</g>
			<g id="XMLID_1352_">
				<path id="XMLID_00000118390837636634421300000004115580646676640410_" class="st7" d="M112.3,111.4c0,0-9.4,8.2-8.1,26.3
					c0.9,13.8,4.4,29,4.8,34.9c0.5,9.1-0.3,30.8-0.3,30.8c13.5,16.5,73.2,12.7,80.4-2.1c0,0-1.5-46.9-4.5-69.5
					c-1.6-11.9-8.2-21.3-12.6-24.7c0,0-4.7-1-14.8-1.7c-6.2-0.4-24,0.7-24,0.7L112.3,111.4z"/>
			</g>
			<path class="st6" d="M182.3,142.3c0,0-1.9-26.2-13.9-36l-8.4-0.9c9.6,7,15.8,29,15.4,44.6L182.3,142.3z"/>
			<path class="st6" d="M141.6,195.3c0,0-23.5-1.6-33.5-17.3l0.2,14.6c0,0,9.6,10.5,32.3,14.2L141.6,195.3z"/>
			<g id="Arm_and_guitar_00000065044789074259923860000010974007902635871397_">
				<g>
					<g id="Guitar_00000111182405542884439620000008947376088150491311_">
						<g>
							<path class="st8" d="M187.1,138.5c-0.2,0-0.3,0-0.5,0.1c0,0,0,0,0,0c-5.9,1-11.4,9.8-12.8,12.9c-2.5,5.2-4.7,10-10.6,14.4
								c-4.8,2.7-9.9,3.8-14.9,6.6c-4.5,2.3-8.5,5.8-12.2,13.1c-9.5,18.8-7.5,34.1-2.4,50c2.3,7.4,6.4,18.5,13.1,20.4
								c6,1.5,18.7,4.1,20.3,4.3c2.6,0.3,5.7-0.6,9.2-2.8c12.9-8.2,17-31.7,21.6-39.2s7.4-9.3,10.9-11.3c3.4-2,20.5-16.8,10.4-48.3
								c-2.5-7.8-5.3-12.3-8-14.5c-0.7-0.5-2-1.3-3.5-1.7C200.4,141.2,190.5,138.3,187.1,138.5z"/>
							<path class="st8" d="M130.7,200.5c-2.7,12.4-0.7,23.6,3,35.1c0.9,2.9,1.9,5.7,3,8.3c0,0.1,0.1,0.2,0.1,0.3
								c0.1,0.2,0.1,0.3,0.2,0.5c2.7,6,5.8,10.2,10,11.5c0,0,0,0,0,0c0,0,0.1,0,0.1,0c0.1,0,0.2,0,0.2,0.1c5.9,1.5,17.9,3.8,19.2,4
								c2.8,0.5,6-0.4,9.7-2.8c6.6-4.2,10.7-12.9,13.9-21.5l-15.7-12.1l-25.2-19.3L130.7,200.5z"/>
							<path class="st9" d="M130.7,200.5c-2.7,12.4-0.7,23.6,3,35.1c0.9,2.9,1.9,5.7,3,8.3c0,0.1,0.1,0.2,0.1,0.3
								c0.1,0.2,0.1,0.3,0.2,0.5c2.7,6,5.8,10.2,10,11.5c0,0,0,0,0,0c0,0,0.1,0,0.1,0c0.1,0,0.2,0,0.2,0.1c5.9,1.5,17.9,3.8,19.2,4
								c2.8,0.5,6-0.4,9.7-2.8c6.6-4.2,10.7-12.9,13.9-21.5l-15.7-12.1l-25.2-19.3L130.7,200.5z"/>
							<path class="st9" d="M131.2,226.7c0.7,3,1.5,5.9,2.5,8.9c0.9,2.9,1.9,5.7,3,8.3c0,0.1,0.1,0.2,0.1,0.3
								c2.7,6.3,5.9,10.7,10.2,11.9c0.1,0,0.6,0.1,0.7,0.2c6.3,1.6,17.5,3.7,18.5,3.9c2.9,0.6,6.2-0.2,10.1-2.7
								c1.4-0.9,2.8-2.1,4-3.4l-13.8-10.6l-16.7-12.8L131.2,226.7z"/>
							<path id="XMLID_00000044178632066202261920000012471347804930999939_" class="st8" d="M152.2,239.5
								c5.1,15.9,11.3,26.1,24.1,18c12.9-8.2,17-31.7,21.6-39.2c4.6-7.5,7.4-9.3,10.9-11.3c3.5-2,20.5-16.8,10.4-48.3
								c-10.1-31.6-24.4-8.5-26.9-3.3c-2.4,5.1-4.5,9.3-10,14c-5.5,4.7-18.2,1.4-27.7,20.2C145.1,208.3,147.1,223.6,152.2,239.5z"/>
							<path id="XMLID_00000088092643245688493500000003581242377853459373_" class="st8" d="M152.2,239.5
								c5.1,15.9,11.3,26.1,24.1,18c12.9-8.2,17-31.7,21.6-39.2c4.6-7.5,7.4-9.3,10.9-11.3c3.5-2,20.5-16.8,10.4-48.3
								c-10.1-31.6-24.4-8.5-26.9-3.3c-2.4,5.1-4.5,9.3-10,14c-5.5,4.7-18.2,1.4-27.7,20.2C145.1,208.3,147.1,223.6,152.2,239.5z"/>
							<path id="XMLID_00000141440186549687530160000008800096531290433454_" class="st10" d="M152.2,239.5
								c5.1,15.9,11.3,26.1,24.1,18c12.9-8.2,17-31.7,21.6-39.2c4.6-7.5,7.4-9.3,10.9-11.3c3.5-2,20.5-16.8,10.4-48.3
								c-10.1-31.6-24.4-8.5-26.9-3.3c-2.4,5.1-4.5,9.3-10,14c-5.5,4.7-18.2,1.4-27.7,20.2C145.1,208.3,147.1,223.6,152.2,239.5z"/>
							<path class="st6" d="M202.6,173.2c-2.9-8.9-9.3-7.6-14.9-3.7c-3,2.1-5.9,4.5-8.6,7.2c-3.8,3.7-5.5,11.3-3.8,16.5l0.8,2.3
								c1.6,5,5.8,5.9,9.3,2l18.4-20.5L202.6,173.2z"/>
							<path class="st8" d="M207.9,174.4c-2.7-7.2-9.3-8.6-14.7-3.1c-5.4,5.5-7.6,15.8-4.8,23c2.7,7.2,9.3,8.6,14.7,3.1
								C208.4,191.8,210.6,181.6,207.9,174.4z"/>
							<path class="st11" d="M207.9,174.4c-2.7-7.2-9.3-8.6-14.7-3.1c-5.4,5.5-7.6,15.8-4.8,23c2.7,7.2,9.3,8.6,14.7,3.1
								C208.4,191.8,210.6,181.6,207.9,174.4z"/>
							<path class="st5" d="M206.6,175.3c-2.3-6.4-8-7.6-12.7-2.7c-4.7,5-6.7,14.2-4.4,20.6c2.3,6.4,8,7.6,12.7,2.7
								C207,191,208.9,181.8,206.6,175.3z"/>
							<g>
								<path class="st8" d="M206.2,175.6c-2.1-6.2-7.5-7.3-11.9-2.5c-4.5,4.8-6.3,13.7-4.2,19.9c2.1,6.2,7.5,7.3,11.9,2.5
									C206.4,190.7,208.3,181.8,206.2,175.6z"/>
								<path class="st11" d="M206.2,175.6c-2.1-6.2-7.5-7.3-11.9-2.5c-4.5,4.8-6.3,13.7-4.2,19.9c2.1,6.2,7.5,7.3,11.9,2.5
									C206.4,190.7,208.3,181.8,206.2,175.6z"/>
							</g>
						</g>
						<g>
							<g>
								<path class="st6" d="M172.2,199.7l9.2,28.1l-3.3,3.7l-1.9-0.4l-0.6-1.8c-0.5-1.5-1.3-2.6-2.4-3.1c-0.2-0.1-0.4-0.3-0.5-0.6
									l-4.7-14.4c-0.1-0.3-0.1-0.7-0.1-1.1c0.3-1.9,0.1-3.8-0.4-5.3l-0.6-1.8l3.3-3.7L172.2,199.7z"/>
								<path class="st4" d="M172.9,226.1c-0.1-0.1-0.1-0.2-0.2-0.4l-4.7-14.4c-0.1-0.2-0.1-0.3-0.1-0.5l2.4,0.5l5.9,15.5
									L172.9,226.1z"/>
								<path class="st5" d="M172.2,199.7l-3.3,3.7l0.6,1.8c0.5,1.5,0.6,3.4,0.4,5.3c-0.1,0.4,0,0.8,0.1,1.1l4.7,14.4
									c0.1,0.3,0.3,0.5,0.5,0.6c1,0.5,1.9,1.5,2.4,3.1l0.6,1.8l3.3-3.7L172.2,199.7z"/>
							</g>
							<g>
								<g>
									<g>
										<g>
											<path class="st7" d="M283.5,108.5l0.2,0.7c0.1,0.2,0,0.5-0.3,0.8c-0.5,0.6-1.6,0.9-2.4,0.8c-0.4-0.1-0.6-0.3-0.7-0.5
												l-0.2-0.7L283.5,108.5z"/>
											<path class="st2" d="M280.9,110.2c-0.8-0.2-1-0.8-0.4-1.4c0.5-0.6,1.6-0.9,2.4-0.8c0.8,0.2,1,0.8,0.4,1.4
												C282.7,110,281.6,110.3,280.9,110.2z"/>
											<path class="st9" d="M280.9,110.2c-0.8-0.2-1-0.8-0.4-1.4c0.5-0.6,1.6-0.9,2.4-0.8c0.8,0.2,1,0.8,0.4,1.4
												C282.7,110,281.6,110.3,280.9,110.2z"/>
										</g>
										<path class="st5" d="M281.3,104.9l1.3,3.9c0,0.1,0,0.3-0.1,0.4c-0.2,0.3-0.7,0.4-1.1,0.4c-0.2,0-0.3-0.1-0.3-0.2l-1.3-3.9
											L281.3,104.9z"/>
										<path class="st6" d="M280.1,105.7c-0.4-0.1-0.5-0.4-0.2-0.6c0.2-0.3,0.7-0.4,1.1-0.4c0.4,0.1,0.5,0.4,0.2,0.6
											C280.9,105.6,280.4,105.7,280.1,105.7z"/>
									</g>
									<g>
										<g>
											<path class="st7" d="M279.5,114.1l0.2,0.7c0.1,0.2,0,0.5-0.3,0.8c-0.5,0.6-1.6,0.9-2.4,0.8c-0.4-0.1-0.6-0.3-0.7-0.5
												l-0.2-0.7L279.5,114.1z"/>
											<path class="st2" d="M276.9,115.7c-0.8-0.2-1-0.8-0.4-1.4c0.5-0.6,1.6-0.9,2.4-0.8c0.8,0.2,1,0.8,0.4,1.4
												C278.7,115.5,277.6,115.9,276.9,115.7z"/>
											<path class="st9" d="M276.9,115.7c-0.8-0.2-1-0.8-0.4-1.4c0.5-0.6,1.6-0.9,2.4-0.8c0.8,0.2,1,0.8,0.4,1.4
												C278.7,115.5,277.6,115.9,276.9,115.7z"/>
										</g>
										<path class="st5" d="M277.3,110.4l1.3,3.9c0,0.1,0,0.3-0.1,0.4c-0.2,0.3-0.7,0.4-1.1,0.4c-0.2,0-0.3-0.1-0.3-0.2l-1.3-3.9
											L277.3,110.4z"/>
										<path class="st6" d="M276.1,111.2c-0.4-0.1-0.5-0.4-0.2-0.6c0.2-0.3,0.7-0.4,1.1-0.4c0.4,0.1,0.5,0.4,0.2,0.6
											C276.9,111.1,276.4,111.3,276.1,111.2z"/>
									</g>
									<g>
										<g>
											<path class="st7" d="M275.4,119.3l0.2,0.7c0.1,0.2,0,0.5-0.3,0.8c-0.5,0.6-1.6,0.9-2.4,0.8c-0.4-0.1-0.6-0.3-0.7-0.5
												l-0.2-0.7L275.4,119.3z"/>
											<path class="st2" d="M272.8,120.9c-0.8-0.2-1-0.8-0.4-1.4c0.5-0.6,1.6-0.9,2.4-0.8c0.8,0.2,1,0.8,0.4,1.4
												C274.6,120.7,273.6,121.1,272.8,120.9z"/>
											<path class="st9" d="M272.8,120.9c-0.8-0.2-1-0.8-0.4-1.4c0.5-0.6,1.6-0.9,2.4-0.8c0.8,0.2,1,0.8,0.4,1.4
												C274.6,120.7,273.6,121.1,272.8,120.9z"/>
										</g>
										<path class="st5" d="M273.2,115.7l1.3,3.9c0,0.1,0,0.3-0.1,0.4c-0.2,0.3-0.7,0.4-1.1,0.4c-0.2,0-0.3-0.1-0.3-0.2l-1.3-3.9
											L273.2,115.7z"/>
										<path class="st6" d="M272,116.4c-0.4-0.1-0.5-0.4-0.2-0.6c0.2-0.3,0.7-0.4,1.1-0.4c0.4,0.1,0.5,0.4,0.2,0.6
											C272.9,116.3,272.4,116.5,272,116.4z"/>
									</g>
									<path class="st8" d="M280.6,86c0.1,0,0.1,0,0.2,0.1c0.1,0.1,2.6,7.1,2.8,7.5c0.4,1.1-0.2,8-0.5,9.8c-0.1,0.8-0.4,1.6-1,2.1
										c-1.6,1.6-2.3,2.1-6,6.7c-2,2.4-4.7,6.6-5.6,8.2c-0.2,0.4-0.6,0.7-1,0.7c-0.1,0-2.8-0.6-3.2-0.7c-0.1,0-0.3-0.1-0.4-0.2
										c-0.2-0.2-0.4-0.3-0.6-0.5c-0.3,0.1-0.6,0.3-0.9,0.5l-3.2-0.7l-1.4-4.4l-1.4-4.4c2.2-2.5,2.7-7.9,2.7-9.2
										c0-1.3,0.2-2,0.8-2.4c0.6-0.4,4.1-2.7,7-5.2c3-2.6,6.1-6,6.9-7.1c0.7-0.9,1.2-1.8,1.7-1.7C277.4,85.3,280.3,85.9,280.6,86z
										"/>
									<path class="st12" d="M270.4,120.4c-0.2,0.4-0.6,0.7-1,0.7c-0.1,0-2.8-0.6-3.2-0.7c-0.1,0-0.3-0.1-0.4-0.2
										c-0.2-0.2-0.4-0.3-0.6-0.5c-0.3,0.1-0.6,0.3-0.9,0.5l-3.2-0.7l-1.4-4.4l-1.4-4.4c2.2-2.5,2.7-7.9,2.7-9.2
										c0-0.7,0.1-1.2,0.2-1.5l3.7,0.8l6.3,18.3C270.9,119.6,270.6,120.1,270.4,120.4z"/>
									<path id="XMLID_00000160902515382587000990000011477486332526972345_" class="st8" d="M262.9,115.9l1.4,4.4
										c1.2-1.3,3.6-0.5,4.6,0.6c0.5,0.5,1.1,0.1,1.4-0.4c1-1.6,3.7-5.8,5.6-8.2c3.7-4.6,4.4-5,6-6.7c0.6-0.6,0.8-1.4,1-2.1
										c0.3-1.8,0.9-8.7,0.5-9.8c-0.4-1.2-2.5-7.4-2.8-7.5c-0.6-0.4-1.1,0.5-1.9,1.6c-0.8,1.1-3.9,4.5-6.9,7.1
										c-3,2.6-6.5,4.9-7,5.2c-0.6,0.4-0.8,1.1-0.8,2.4c0,1.3-0.5,6.7-2.7,9.2L262.9,115.9z"/>
									<path id="XMLID_00000159440307722959627000000013295353903951065021_" class="st10" d="M262.9,115.9l1.4,4.4
										c1.2-1.3,3.6-0.5,4.6,0.6c0.5,0.5,1.1,0.1,1.4-0.4c1-1.6,3.7-5.8,5.6-8.2c3.7-4.6,4.4-5,6-6.7c0.6-0.6,0.8-1.4,1-2.1
										c0.3-1.8,0.9-8.7,0.5-9.8c-0.4-1.2-2.5-7.4-2.8-7.5c-0.6-0.4-1.1,0.5-1.9,1.6c-0.8,1.1-3.9,4.5-6.9,7.1
										c-3,2.6-6.5,4.9-7,5.2c-0.6,0.4-0.8,1.1-0.8,2.4c0,1.3-0.5,6.7-2.7,9.2L262.9,115.9z"/>
									<g>
										<path class="st5" d="M274.9,84.8l1.3,3.9c0,0.1,0,0.3-0.1,0.4c-0.2,0.3-0.7,0.4-1.1,0.4c-0.2,0-0.3-0.1-0.3-0.2l-1.3-3.9
											L274.9,84.8z"/>
										<path class="st6" d="M273.7,85.6c-0.4-0.1-0.5-0.4-0.2-0.6c0.2-0.3,0.7-0.4,1.1-0.4c0.4,0.1,0.5,0.4,0.2,0.6
											C274.6,85.5,274.1,85.6,273.7,85.6z"/>
										<g>
											<path class="st7" d="M275.8,84.3L276,85c0.1,0.2,0,0.5-0.3,0.8c-0.5,0.6-1.6,0.9-2.4,0.8c-0.4-0.1-0.6-0.3-0.7-0.5
												l-0.2-0.7L275.8,84.3z"/>
											<path class="st2" d="M273.1,85.9c-0.8-0.2-1-0.8-0.4-1.4c0.5-0.6,1.6-0.9,2.4-0.8c0.8,0.2,1,0.8,0.4,1.4
												C275,85.7,273.9,86.1,273.1,85.9z"/>
											<path class="st9" d="M273.1,85.9c-0.8-0.2-1-0.8-0.4-1.4c0.5-0.6,1.6-0.9,2.4-0.8c0.8,0.2,1,0.8,0.4,1.4
												C275,85.7,273.9,86.1,273.1,85.9z"/>
										</g>
									</g>
									<g>
										<path class="st5" d="M270.5,89.6l1.3,3.9c0,0.1,0,0.3-0.1,0.4c-0.2,0.3-0.7,0.4-1.1,0.4c-0.2,0-0.3-0.1-0.3-0.2l-1.3-3.9
											L270.5,89.6z"/>
										<path class="st6" d="M269.2,90.3c-0.4-0.1-0.5-0.4-0.2-0.6c0.2-0.3,0.7-0.4,1.1-0.4c0.4,0.1,0.5,0.4,0.2,0.6
											C270.1,90.2,269.6,90.4,269.2,90.3z"/>
										<g>
											<path class="st7" d="M271.3,89.1l0.2,0.7c0.1,0.2,0,0.5-0.3,0.8c-0.5,0.6-1.6,0.9-2.4,0.8c-0.4-0.1-0.6-0.3-0.7-0.5
												l-0.2-0.7L271.3,89.1z"/>
											<path class="st2" d="M268.7,90.7c-0.8-0.2-1-0.8-0.4-1.4c0.5-0.6,1.6-0.9,2.4-0.8c0.8,0.2,1,0.8,0.4,1.4
												C270.5,90.5,269.4,90.9,268.7,90.7z"/>
											<path class="st9" d="M268.7,90.7c-0.8-0.2-1-0.8-0.4-1.4c0.5-0.6,1.6-0.9,2.4-0.8c0.8,0.2,1,0.8,0.4,1.4
												C270.5,90.5,269.4,90.9,268.7,90.7z"/>
										</g>
									</g>
									<g>
										<path class="st5" d="M265.8,92.9l1.3,3.9c0,0.1,0,0.3-0.1,0.4c-0.2,0.3-0.7,0.4-1.1,0.4c-0.2,0-0.3-0.1-0.3-0.2l-1.3-3.9
											L265.8,92.9z"/>
										<path class="st6" d="M264.5,93.6c-0.4-0.1-0.5-0.4-0.2-0.6c0.2-0.3,0.7-0.4,1.1-0.4c0.4,0.1,0.5,0.4,0.2,0.6
											C265.4,93.5,264.9,93.7,264.5,93.6z"/>
										<g>
											<path class="st7" d="M266.6,92.4l0.2,0.7c0.1,0.2,0,0.5-0.3,0.8c-0.5,0.6-1.6,0.9-2.4,0.8c-0.4-0.1-0.6-0.3-0.7-0.5
												l-0.2-0.7L266.6,92.4z"/>
											<path class="st2" d="M264,94c-0.8-0.2-1-0.8-0.4-1.4c0.5-0.6,1.6-0.9,2.4-0.8c0.8,0.2,1,0.8,0.4,1.4
												C265.8,93.8,264.7,94.1,264,94z"/>
											<path class="st9" d="M264,94c-0.8-0.2-1-0.8-0.4-1.4c0.5-0.6,1.6-0.9,2.4-0.8c0.8,0.2,1,0.8,0.4,1.4
												C265.8,93.8,264.7,94.1,264,94z"/>
										</g>
									</g>
								</g>
								<g>
									<polygon class="st6" points="261.5,111.5 264.3,120.2 207.9,187.3 204.7,186.7 201.3,172.4 258.3,110.8 									"/>
									<polygon id="XMLID_00000003824108898508058840000014364988836241570729_" class="st5" points="204.5,173.1 207.9,187.3 
										264.3,120.2 261.5,111.5 									"/>
								</g>
							</g>
							<g>
								<path class="st8" d="M205.4,176.2c-1.9-5.7-6.6-6.7-10.7-2.2c-4,4.5-5.8,12.7-3.9,18.5c1.9,5.7,6.6,6.7,10.7,2.2
									C205.5,190.2,207.2,181.9,205.4,176.2z"/>
								<path class="st12" d="M205.4,176.2c-1.9-5.7-6.6-6.7-10.7-2.2c-4,4.5-5.8,12.7-3.9,18.5c1.9,5.7,6.6,6.7,10.7,2.2
									C205.5,190.2,207.2,181.9,205.4,176.2z"/>
								<path class="st4" d="M202.9,175.7c1.9,5.7,0.1,14-3.9,18.5c-1.6,1.8-3.3,2.7-4.8,2.8c-1.4-0.7-2.6-2.3-3.3-4.5
									c-1.9-5.7-0.1-14,3.9-18.5c1.6-1.8,3.2-2.7,4.8-2.8C200.9,171.9,202.1,173.4,202.9,175.7z"/>
							</g>
							<path d="M207.9,176.7c0.8,2.5,1.4,6.7,0,10.6l-2.5-0.5c1-3.7,0.8-8.1,0-10.6c-0.7-2.2-2-3.8-3.4-4.5l3.2,0.7
								C206.4,173.1,207.2,174.7,207.9,176.7z"/>
							<g>
								<g id="XMLID_00000023963317925733376810000013324449993781927856_">
									<polygon class="st2" points="177.8,222.3 177.6,222.2 264.1,118.9 270.9,113.6 271.1,113.8 264.3,119 									"/>
								</g>
								<g id="XMLID_00000023266115130637732470000012043803952931249568_">
									<polygon class="st2" points="176.8,219.8 176.6,219.6 263.6,117.6 275.5,108 275.6,108.2 263.8,117.8 									"/>
								</g>
								<g id="XMLID_00000081615115116309400930000016460278048260201660_">
									<polygon class="st2" points="175.9,217.2 175.7,217 263.2,116.4 279.6,102.4 279.8,102.5 263.3,116.6 									"/>
								</g>
								<g id="XMLID_00000176011201385494996900000000881772817946453385_">
									<polygon class="st2" points="173,209.5 172.8,209.3 261.8,112.5 268,101.7 268.2,101.9 261.9,112.6 									"/>
								</g>
								<g id="XMLID_00000168106473448767678970000007003417728099815356_">
									<polygon class="st2" points="173.9,212 173.7,211.9 262.2,113.7 272.7,98.2 272.9,98.3 262.4,113.9 									"/>
								</g>
								<g id="XMLID_00000114789761068646134970000007498262871738963634_">
									<polygon class="st2" points="174.9,214.6 174.7,214.4 263.8,113.7 277.7,93.9 277.9,94 264,113.8 									"/>
								</g>
							</g>
							<g>
								<g>
									<path class="st2" d="M277.9,95.1l-0.8-0.2c-0.3-0.1-0.5-0.3-0.6-0.7c-0.2-0.8,0-1.8,0.5-2.4c0.3-0.3,0.6-0.4,0.8-0.3
										l0.8,0.2L277.9,95.1z"/>
									<path class="st9" d="M277.9,95.1l-0.8-0.2c-0.3-0.1-0.5-0.3-0.6-0.7c-0.2-0.8,0-1.8,0.5-2.4c0.3-0.3,0.6-0.4,0.8-0.3
										l0.8,0.2L277.9,95.1z"/>
									<path class="st7" d="M277.8,92.1c0.5-0.6,1.2-0.5,1.4,0.3c0.2,0.8,0,1.8-0.5,2.4c-0.5,0.6-1.2,0.5-1.4-0.3
										C277.1,93.7,277.3,92.6,277.8,92.1z"/>
								</g>
								<g>
									<path class="st2" d="M273.5,99.4l-0.8-0.2c-0.3-0.1-0.5-0.3-0.6-0.7c-0.2-0.8,0-1.8,0.5-2.4c0.3-0.3,0.6-0.4,0.8-0.3
										l0.8,0.2L273.5,99.4z"/>
									<path class="st9" d="M273.5,99.4l-0.8-0.2c-0.3-0.1-0.5-0.3-0.6-0.7c-0.2-0.8,0-1.8,0.5-2.4c0.3-0.3,0.6-0.4,0.8-0.3
										l0.8,0.2L273.5,99.4z"/>
									<path class="st7" d="M273.4,96.3c0.5-0.6,1.2-0.5,1.4,0.3c0.2,0.8,0,1.8-0.5,2.4c-0.5,0.6-1.2,0.5-1.4-0.3
										C272.6,98,272.8,96.9,273.4,96.3z"/>
								</g>
								<g>
									<path class="st2" d="M268.4,103l-0.8-0.2c-0.3-0.1-0.5-0.3-0.6-0.7c-0.2-0.8,0-1.8,0.5-2.4c0.3-0.3,0.6-0.4,0.8-0.3
										l0.8,0.2L268.4,103z"/>
									<path class="st9" d="M268.4,103l-0.8-0.2c-0.3-0.1-0.5-0.3-0.6-0.7c-0.2-0.8,0-1.8,0.5-2.4c0.3-0.3,0.6-0.4,0.8-0.3
										l0.8,0.2L268.4,103z"/>
									<path class="st7" d="M268.3,99.9c0.5-0.6,1.2-0.5,1.4,0.3c0.2,0.8,0,1.8-0.5,2.4c-0.5,0.6-1.2,0.5-1.4-0.3
										C267.5,101.6,267.8,100.5,268.3,99.9z"/>
								</g>
								<g>
									<path class="st2" d="M280.6,104.7l-0.8-0.2c-0.3-0.1-0.5-0.3-0.6-0.7c-0.2-0.8,0-1.8,0.5-2.4c0.3-0.3,0.6-0.4,0.8-0.3
										l0.8,0.2L280.6,104.7z"/>
									<path class="st9" d="M280.6,104.7l-0.8-0.2c-0.3-0.1-0.5-0.3-0.6-0.7c-0.2-0.8,0-1.8,0.5-2.4c0.3-0.3,0.6-0.4,0.8-0.3
										l0.8,0.2L280.6,104.7z"/>
									<path class="st7" d="M280.6,101.6c0.5-0.6,1.2-0.5,1.4,0.3c0.2,0.8,0,1.8-0.5,2.4c-0.5,0.6-1.2,0.5-1.4-0.3
										C279.8,103.3,280,102.2,280.6,101.6z"/>
								</g>
								<g>
									<path class="st2" d="M276.3,109.9l-0.8-0.2c-0.3-0.1-0.5-0.3-0.6-0.7c-0.2-0.8,0-1.8,0.5-2.4c0.3-0.3,0.6-0.4,0.8-0.3
										l0.8,0.2L276.3,109.9z"/>
									<path class="st9" d="M276.3,109.9l-0.8-0.2c-0.3-0.1-0.5-0.3-0.6-0.7c-0.2-0.8,0-1.8,0.5-2.4c0.3-0.3,0.6-0.4,0.8-0.3
										l0.8,0.2L276.3,109.9z"/>
									<path class="st7" d="M276.3,106.8c0.5-0.6,1.2-0.5,1.4,0.3c0.2,0.8,0,1.8-0.5,2.4c-0.5,0.6-1.2,0.5-1.4-0.3
										C275.5,108.5,275.7,107.4,276.3,106.8z"/>
								</g>
								<g>
									<path class="st2" d="M272,115.4l-0.8-0.2c-0.3-0.1-0.5-0.3-0.6-0.7c-0.2-0.8,0-1.8,0.5-2.4c0.3-0.3,0.6-0.4,0.8-0.3
										l0.8,0.2L272,115.4z"/>
									<path class="st9" d="M272,115.4l-0.8-0.2c-0.3-0.1-0.5-0.3-0.6-0.7c-0.2-0.8,0-1.8,0.5-2.4c0.3-0.3,0.6-0.4,0.8-0.3
										l0.8,0.2L272,115.4z"/>
									<path class="st7" d="M272,112.3c0.5-0.6,1.2-0.5,1.4,0.3c0.2,0.8,0,1.8-0.5,2.4c-0.5,0.6-1.2,0.5-1.4-0.3
										C271.2,114,271.4,112.9,272,112.3z"/>
								</g>
							</g>
							<g>
								<g>
									<path class="st2" d="M177.6,223.3l-0.4-0.1c-0.1,0-0.3-0.2-0.3-0.4c-0.1-0.4,0-1,0.3-1.3c0.1-0.2,0.3-0.2,0.5-0.2l0.4,0.1
										L177.6,223.3z"/>
									<path class="st7" d="M177.5,221.6c0.3-0.3,0.6-0.3,0.8,0.2c0.1,0.4,0,1-0.3,1.3c-0.3,0.3-0.6,0.3-0.8-0.2
										C177.1,222.6,177.2,222,177.5,221.6z"/>
									<path class="st5" d="M177.7,222c0.2-0.2,0.3-0.1,0.4,0.1c0.1,0.2,0,0.5-0.2,0.7c-0.2,0.2-0.3,0.1-0.4-0.1
										C177.4,222.5,177.5,222.2,177.7,222z"/>
								</g>
								<g>
									<path class="st2" d="M176.7,220.7l-0.4-0.1c-0.1,0-0.3-0.2-0.3-0.4c-0.1-0.4,0-1,0.3-1.3c0.1-0.2,0.3-0.2,0.5-0.2l0.4,0.1
										L176.7,220.7z"/>
									<path class="st7" d="M176.7,219c0.3-0.3,0.6-0.3,0.8,0.2c0.1,0.4,0,1-0.3,1.3c-0.3,0.3-0.6,0.3-0.8-0.2
										C176.3,219.9,176.4,219.3,176.7,219z"/>
									<path class="st5" d="M176.8,219.3c0.2-0.2,0.3-0.1,0.4,0.1c0.1,0.2,0,0.5-0.2,0.7c-0.2,0.2-0.3,0.1-0.4-0.1
										S176.6,219.5,176.8,219.3z"/>
								</g>
								<g>
									<path class="st2" d="M175.9,218l-0.4-0.1c-0.1,0-0.3-0.2-0.3-0.4c-0.1-0.4,0-1,0.3-1.3c0.1-0.2,0.3-0.2,0.5-0.2l0.4,0.1
										L175.9,218z"/>
									<path class="st7" d="M175.8,216.3c0.3-0.3,0.6-0.3,0.8,0.2c0.1,0.4,0,1-0.3,1.3c-0.3,0.3-0.6,0.3-0.8-0.2
										C175.4,217.3,175.5,216.7,175.8,216.3z"/>
									<path class="st5" d="M175.9,216.7c0.2-0.2,0.3-0.1,0.4,0.1c0.1,0.2,0,0.5-0.2,0.7c-0.2,0.2-0.3,0.1-0.4-0.1
										S175.8,216.9,175.9,216.7z"/>
								</g>
								<g>
									<path class="st2" d="M175,215.4l-0.4-0.1c-0.1,0-0.3-0.2-0.3-0.4c-0.1-0.4,0-1,0.3-1.3c0.1-0.2,0.3-0.2,0.5-0.2l0.4,0.1
										L175,215.4z"/>
									<path class="st7" d="M174.9,213.7c0.3-0.3,0.6-0.3,0.8,0.2c0.1,0.4,0,1-0.3,1.3c-0.3,0.3-0.6,0.3-0.8-0.2
										C174.5,214.6,174.7,214,174.9,213.7z"/>
									<path class="st5" d="M175.1,214c0.2-0.2,0.3-0.1,0.4,0.1c0.1,0.2,0,0.5-0.2,0.7c-0.2,0.2-0.3,0.1-0.4-0.1
										C174.8,214.5,174.9,214.2,175.1,214z"/>
								</g>
								<g>
									<path class="st2" d="M174.1,212.7l-0.4-0.1c-0.1,0-0.3-0.2-0.3-0.4c-0.1-0.4,0-1,0.3-1.3c0.1-0.2,0.3-0.2,0.5-0.2l0.4,0.1
										L174.1,212.7z"/>
									<path class="st7" d="M174.1,211c0.3-0.3,0.6-0.3,0.8,0.2c0.1,0.4,0,1-0.3,1.3c-0.3,0.3-0.6,0.3-0.8-0.2
										C173.7,212,173.8,211.4,174.1,211z"/>
									<path class="st5" d="M174.2,211.4c0.2-0.2,0.3-0.1,0.4,0.1c0.1,0.2,0,0.5-0.2,0.7c-0.2,0.2-0.3,0.1-0.4-0.1
										C174,211.9,174,211.6,174.2,211.4z"/>
								</g>
								<g>
									<path class="st2" d="M173.3,210.1l-0.4-0.1c-0.1,0-0.3-0.2-0.3-0.4c-0.1-0.4,0-1,0.3-1.3c0.1-0.2,0.3-0.2,0.5-0.2l0.4,0.1
										L173.3,210.1z"/>
									<path class="st7" d="M173.2,208.4c0.3-0.3,0.6-0.3,0.8,0.2s0,1-0.3,1.3c-0.3,0.3-0.6,0.3-0.8-0.2
										C172.8,209.3,172.9,208.7,173.2,208.4z"/>
									<path class="st5" d="M173.3,208.7c0.2-0.2,0.3-0.1,0.4,0.1c0.1,0.2,0,0.5-0.2,0.7c-0.2,0.2-0.3,0.1-0.4-0.1
										C173.1,209.2,173.2,208.9,173.3,208.7z"/>
								</g>
							</g>
						</g>
					</g>
				</g>
				<g>
					<path class="st3" d="M141.2,197.5c9.1,0,14.2-0.1,16.7,0.6c4,1.1,8,2.6,12,3.3c1.2,0.2,2.5,0.1,3.7,0c2.4-0.2,4.7-0.5,7-0.9
						c2-0.4,4.4-0.5,6-1.9c0.6-0.5,1-1.1,1.6-1.5c0.4-0.2,0.8-0.4,1.2-0.6c1-0.7,1.3-1.9,1.4-3.1c0.1-0.3,0.1-0.7,0.4-0.9
						c0.2-0.1,0.4-0.2,0.5-0.2c1.4-0.4,2.5-1.7,2.7-3.2c0-0.3,0.1-0.6,0.2-0.9c0.2-0.2,0.4-0.4,0.7-0.5c1.3-0.7,2.9-1,4-2.1
						c0.2-0.2,0.5-0.5,0.6-0.9c0.1-0.6-0.2-1.2-0.6-1.5c-0.7-0.5-1.5-0.7-2.4-0.8c-2.2-0.1-4.3,0.3-6.5,0.6
						c-2.1,0.3-4.2,0.5-6.2,0.6c-2.1,0.1-4.2,0.2-6.3,0c-1-0.1-2.3,0.1-3.1-0.5c-1.6-1,0.8-1.8,1.7-1.9c1.4-0.2,2.8-0.5,4.1-1
						c0.9-0.3,1.7-0.7,2.4-1.3c0.7-0.6,1.2-1.5,1.2-2.4c0-0.2,0-0.4-0.2-0.5c-0.1-0.1-0.3-0.1-0.5-0.1c-2.7-0.2-5.4-0.3-8.1-0.4
						c-2.5,0-5,0.3-7.5,0.8c-1.5,0.3-3.1,0.7-4.6,1.1c-2.2,0.7-4.3,1.6-6.7,1.6c-0.8,0-8.3-0.5-15.4-1.6c-7.2-1.1-23.6-3.7-23.6-3.7
						l2.1-32.8c0,0,0.9-18.7-7.1-29c-11.9,3-14.8,7.2-17.3,16.7c-2.5,9.9-4,42.7-3.7,48.9c0.6,13.6,0.2,17.3,11.9,19.3
						C117.7,199.1,132,197.5,141.2,197.5z"/>
					<path class="st13" d="M194.5,188.1c-2.8,0.4-5.6,0.8-8.5,1.1c-2.8,0.3-5.6,0.3-8.4,0.4c-0.2,0-0.1,0.3,0,0.3
						c2.8,0.3,5.7,0.1,8.5-0.1c1.4-0.1,2.8-0.3,4.1-0.5C191.7,188.9,193.1,188.6,194.5,188.1C194.5,188.1,194.5,188.1,194.5,188.1z"
						/>
					<path class="st13" d="M191.1,192.5c-2.8,0.4-3.9,0.7-6.7,1c-2.8,0.3-4,0.2-6.8,0.3c-0.2,0-0.1,0.3,0,0.3
						c2.8,0.3,4.1,0.1,6.9-0.1c1.4-0.1,1.8-0.2,3.2-0.5C189.4,193.2,189.7,193,191.1,192.5C191.1,192.5,191.1,192.5,191.1,192.5z"/>
					<path class="st13" d="M185,197.3c-2.8,0.3-4,0.2-6.8,0.3c-0.2,0-0.1,0.3,0,0.3c2.5,0.2,3.4,0.2,6.2-0.1
						c1.4-0.1,1.7-0.2,3.1-0.5c0.1,0,0.2-0.1,0.4-0.1c0.1-0.1,0.2-0.2,0.4-0.3c0.1-0.1,0.3-0.2,0.5-0.2
						C187.6,197,186.5,197.2,185,197.3z"/>
				</g>
				<g>
					<path class="st3" d="M263,141.7c0.8-0.6,1.6-1.3,2.1-2.2c0.2-0.4,0.4-0.9,0.6-1.3c0.4-0.5,0.8-0.7,1.3-1
						c0.4-0.2,0.7-0.7,0.9-1.1c0.4-1,0.1-2.1,0.1-3.1c0-0.3,0-0.5,0.1-0.8c0.1-0.2,0.2-0.3,0.4-0.4c0.6-0.5,1.1-1.2,1.1-2
						c0.1-1-0.5-1.8-1.1-2.6c-1.5-2-3.1-3.9-4.7-5.8c-0.2-0.3-0.5-0.6-0.8-0.8c-1.1-0.9-2.7-1.3-4.1-1.8c-1.1-0.4-2.2-0.6-3.2-1.1
						c-0.4-0.2-0.9-0.4-1.3-0.5c-0.8-0.2-1.6-0.3-2.4-0.3c-0.6,0-1.3,0-1.9-0.1c-0.4,0-0.9,0-1.3,0.2c-0.1,0.1-0.3,0.2-0.4,0.3
						c-0.3,0.4-0.1,0.9,0.2,1.3c0.8,1.3,2.1,1.9,3.5,2.4c1.2,0.4,2.2,1.1,3.3,1.7c1.2,0.7-1.2,1.2-1.6,1.5c-0.3,0.3-0.5,0.7-0.5,1.1
						c-0.2,0.8-0.3,1.6-0.3,2.4c-0.7,0.3-1.4,0.6-1.9,1.2c-0.6,0.7-0.8,1.7-1,2.7c-0.3,1.9-0.4,3.8-0.3,5.6c0,0.3-0.1,0.8,0.2,0.9
						c0.2,0.2,0.8,0,1.1,0c0.7-0.2,1.3-0.6,1.6-1.2c-0.2,0.3-0.1,1.1-0.1,1.5c-0.1,0.5-0.2,1.1-0.4,1.6c-0.3,0.9-0.3,1.8-0.6,2.7
						c-0.9,2.9-2.6,5.4-4.5,7.6c3.3-2.1,5.1-3,7.7-4.4c1.3-0.7,2.7-1.4,4-2c1.1-0.5,2.2-1.1,3.2-1.7
						C262.3,142.2,262.7,141.9,263,141.7z"/>
					<path class="st13" d="M262.4,125.7c-0.5-0.6-1.1-1.2-1.9-1.4c-0.8-0.2-1.6-0.2-2.4-0.2c-1,0-1.9,0-2.9,0.1
						c-0.1,0-0.1,0.2,0,0.2c0.9,0.1,1.8,0.1,2.7,0.2c0.8,0.1,1.7,0,2.5,0.3c0.8,0.2,1.3,1,1.9,1.6c0.6,0.6,1.2,1.3,1.9,1.7
						c0,0,0.1-0.1,0-0.1C263.8,127.2,263.1,126.5,262.4,125.7z"/>
					<path class="st13" d="M260.5,129.5c-0.5-0.6-1.1-1.2-1.9-1.4c-0.8-0.2-1.6-0.2-2.4-0.2c-1,0-1.9,0-2.9,0.1
						c-0.1,0-0.1,0.2,0,0.2c0.9,0.1,1.8,0.1,2.7,0.2c0.8,0.1,1.7,0,2.5,0.3c0.8,0.2,1.3,1,1.9,1.6c0.6,0.6,1.2,1.3,1.9,1.7
						c0,0,0.1-0.1,0-0.1C261.9,131,261.2,130.2,260.5,129.5z"/>
					<path class="st13" d="M255.9,135.2c-0.2-0.2-0.7-0.5-0.6-0.8c0-0.2,0.2-0.3,0.3-0.4c0.1-0.1,0.3-0.3,0.4-0.4
						c0.1-0.1,0.1-0.2,0.2-0.2c0,0,0.1-0.1,0.1-0.1c0-0.1,0-0.1,0.1-0.2c0.1-0.2-0.2-0.6-0.5-0.4c0,0-0.1,0.1-0.1,0.1
						c0,0-0.1,0.1-0.1,0.1c-0.1,0.1-0.1,0.2-0.2,0.2c0,0,0,0.1-0.1,0.1c0,0-0.1,0.1-0.1,0.1c-0.1,0.1-0.1,0.1-0.2,0.2
						c-0.1,0.1-0.8,0.8-0.9,0.3c0-0.1-0.1-0.4-0.2-0.3c-0.2,0.2-0.2,0.5-0.2,0.7c-0.1,0.3-0.1,0.6-0.2,1c-0.1,0.6-0.3,1.2-0.6,1.7
						c-0.3,0.4-0.6,0.8-1.1,1.1c-0.3,0.1-0.5,0.2-0.8,0.3c-0.3,0-0.6,0-0.8,0c-0.1,0-0.1,0.2,0,0.2c1,0.7,2.4-0.1,3-1
						c0.4-0.5,0.6-1.2,0.7-1.8c0.1-0.3,0-0.5,0.2-0.8c0-0.1,0.1-0.2,0.2-0.3c0.4-0.2,0.8,0.3,1.1,0.6c0.2,0.2,0.5,0.4,0.7,0.6
						c0.2,0.1,0.2-0.2,0.1-0.3C256.1,135.4,256,135.3,255.9,135.2z"/>
				</g>
				<path class="st5" d="M112.3,111.4c-9.8,2.9-14.6,5.7-17,15.7c-2.4,9.9-3.9,35.9-3.9,35.9s2,4.7,13.4,5.4
					c11.4,0.8,14.1-2.3,14.1-2.3s1.8-17.7,2.5-23.8C122.1,136.2,120.7,117.7,112.3,111.4z"/>
			</g>
			<g>
				<g id="Head_10_">
					<g>
						<g id="XMLID_1339_">
							<g id="XMLID_00000087405943335192259860000008673747533227670921_">
								<path class="st6" d="M125.8,55.5c0,0-4.5,0.2-6.7,3.6c-2.2,3.4-3.5,9.7-0.9,16.7c2.9,7.8,8.5,15.3,9.8,17.5
									c1.2,2.2,3.6,2.7,3.6,2.7l-0.5-9.5l-0.6-6.6c0,0,5.2-5,5.5-9.8c0.4-6.2-2.1-9.6-2.1-9.6L125.8,55.5z"/>
								<path class="st6" d="M158.7,65.6c-2.6-1.2-5.9-1.5-8.7-1.6c-2.7-0.1-5.3-0.2-8-0.3c-2.9-0.1-5.7-0.2-8.6-0.3
									c0,0-9.2-1.2-9.4-7.7c-0.1-3.2,1.4-5.3,1.7-5.8c1.1-1.7,3-3.5,4.6-4.7c3.9-2.7,7.5-4.1,12.3-4.6c3.5-0.4,7,0,10.5,0.6
									c2.3,0.4,4.7,0.8,7.1,0.4c1.7-0.3,3.4-1.4,3.7-3.1c1.9,2.1,2.3,5.4,1,8c2.3-0.2,4.5,1.5,5.2,3.7c0.7,2.5-0.3,4.5-1.8,6.4
									c0.2-0.2,1.1,1.6,1.2,1.7c0.5,1.1,0.7,2.3,0.6,3.4c-0.3,1.7-1.7,2.9-3.2,3.7C164.3,66.9,161.4,66.8,158.7,65.6z"/>
								<path class="st3" d="M122.4,89.5c5,2.2,7.1-1.7,7.1-1.7l1.3,19.6c9.9,12.4,35,7,24.3-2.1l-0.2-4.5c0,0,1.7,0,4.3-0.5
									c4.3-0.8,8.2-4.8,9.4-9.6c1.7-7.1,0.9-17.8-2.1-29.7c-0.6-2.3-1.6-4.8-3.8-5.7c-5.3-2.4-10.1,1.5-17.3,4.5
									c-3,1.3-10.3,2-12.3,1.2c2.6,2.7,2.9,11.6-0.8,15.3c-0.6,1.3-1.3,2-1.8,2.5c-1.6,1.4-3-2.1-4.4-3.5
									c-1.4-1.4-6.5-2.5-8.5,2.2C115.8,82.3,117.8,87.4,122.4,89.5z"/>
								<path class="st13" d="M155.1,100.8c-5.7,0.1-10.8-0.4-14.3-1.7c-3.4-1.3-6.6-5.8-7.7-10.3c0.1,3.7,1.9,10.1,7.1,12.6
									c5.2,2.5,11.2,2.5,14.9,2.5L155.1,100.8z"/>
							</g>
							<g id="XMLID_00000070801411784526524540000015981197808822910134_">
								<path id="XMLID_00000121971027520775627480000010786235670667904142_" class="st6" d="M147.3,67l-4.8,2.2
									c-0.6-1.4,0-3,1.3-3.6C145.2,65,146.7,65.6,147.3,67z"/>
								<path id="XMLID_00000104688387705052059660000011929903492449691776_" class="st6" d="M164.7,66.3l-5-1.8
									c0.5-1.4,1.9-2.1,3.3-1.6C164.4,63.4,165.2,64.9,164.7,66.3z"/>
								<path class="st4" d="M144.6,73.4c0.1,1.2,1.1,2.1,2.3,2c1.2-0.1,2.1-1.1,2-2.3c-0.1-1.2-1.1-2.1-2.3-2
									C145.4,71.2,144.5,72.2,144.6,73.4z"/>
								<path class="st4" d="M160.6,71c0.1,1.2,1.1,2.1,2.3,2c1.2-0.1,2.1-1.1,2-2.3c-0.1-1.2-1.1-2.1-2.3-2
									C161.2,68.8,160.5,69.6,160.6,71z"/>
								<path id="XMLID_00000066501766877180595940000010902434356373503388_" class="st13" d="M152.5,67.8l2.2,13.6l7.1-2.9
									C159.1,73.8,156,70.2,152.5,67.8z"/>
							</g>
						</g>
					</g>
					<path id="XMLID_1316_" class="st14" d="M147.8,84.3l8.7,2.6c-0.7,2.5-3.2,3.9-5.6,3.2C148.6,89.4,147.2,86.8,147.8,84.3z"/>
					<path class="st13" d="M148.8,85.8c-0.4-0.1-0.7-0.1-1.1-0.1c0.1,2,1.3,3.8,3.3,4.4c0.5,0.1,1,0.2,1.4,0.2
						C152.7,88.3,151.1,86.3,148.8,85.8z"/>
				</g>
			</g>
		</g>
	</g>
</g>
<g id="Musical_Notes">
	<g id="Musical_Notes_00000125565665794405732210000001084714877304916616_">
		<path id="Musical_note_4_" class="st2" d="M212.5,110.6l4.7,9.5c-0.3,0-0.6,0.1-0.9,0.3c-1.4,0.7-1.9,2.3-1.3,3.7
			c0.7,1.4,2.3,1.9,3.7,1.3c1.4-0.7,1.9-2.3,1.3-3.7l-4.2-8.5l7.5-6.5l0,0l0,0l4.2,8.4c-0.3,0-0.6,0.1-0.9,0.3
			c-1.4,0.7-1.9,2.3-1.3,3.7s2.3,1.9,3.7,1.3c1.4-0.7,1.9-2.3,1.3-3.7l0,0l-6.9-14.1L212.5,110.6z"/>
		<path id="Musical_note_1_" class="st2" d="M83.6,84.6l5.1,11.1c-0.4,0-0.7,0.1-1,0.3c-1.6,0.7-2.3,2.6-1.6,4.2
			c0.7,1.6,2.6,2.3,4.2,1.6c1.6-0.7,2.3-2.6,1.6-4.2l-4.5-9.9l8.8-7.2l0,0l0,0l4.5,9.8c-0.4,0-0.7,0.1-1,0.3
			c-1.6,0.7-2.3,2.6-1.6,4.2c0.7,1.6,2.6,2.3,4.2,1.6c1.6-0.7,2.3-2.6,1.6-4.2l0,0l-7.6-16.4L83.6,84.6z"/>
		<path id="Musical_note_3_" class="st2" d="M64.7,154.5l-2.3,10.9c-0.3-0.2-0.6-0.3-0.9-0.4c-1.6-0.3-3.1,0.7-3.5,2.3
			c-0.3,1.6,0.7,3.1,2.3,3.5c1.6,0.3,3.1-0.7,3.5-2.3l2.1-9.8l10.4-0.5l0,0l0,0l-2,9.7c-0.3-0.2-0.6-0.3-0.9-0.4
			c-1.6-0.3-3.1,0.7-3.5,2.3c-0.3,1.6,0.7,3.1,2.3,3.5c1.6,0.3,3.1-0.7,3.5-2.3l0,0l3.4-16.2L64.7,154.5z"/>
		<path id="Musical_note_5_" class="st2" d="M196.1,81.4c0.6-0.2,1.5-0.2,2.3-0.1c1,0.2,2,0.5,2.9,0.9c1.2,0.5,2.5,1.2,3.8,1.5
			c1.3,0.3,2.8,0.2,3.9-0.5c-0.8-0.1-1.6-0.3-2.2-0.8c-1.6-1-2.7-3.1-4-4.4c-2.1-2-4.4-2.3-7.4-2.2c-0.5,2.4-1,4.9-1.6,7.3
			c-0.4,1.9-0.8,3.8-1.2,5.7c0,0.2-0.6,2.6-0.6,2.6c-0.6-0.5-1.5-0.9-2-1c-2.3-0.5-4.5,1-5,3.2c-0.5,2.3,1,4.5,3.2,5
			c2.3,0.5,4.5-1,5-3.2L196.1,81.4z"/>
		<path id="Musical_note_2_" class="st2" d="M63.4,120.1c0.2-0.5,0.5-1,0.9-1.4c0.5-0.5,1.2-0.9,1.8-1.3c0.9-0.5,1.8-1,2.5-1.6
			c0.7-0.7,1.3-1.6,1.4-2.6c-0.4,0.4-0.9,0.8-1.4,1c-1.3,0.5-3,0.2-4.4,0.5c-2,0.4-3.3,1.6-4.5,3.5c1.2,1.3,2.5,2.7,3.7,4.1
			c1,1.1,1.9,2.1,2.9,3.2c0.1,0.1,1.3,1.5,1.3,1.5c-0.6,0.1-1.2,0.6-1.4,0.8c-1.3,1.1-1.3,3.1-0.2,4.3c1.1,1.3,3.1,1.3,4.3,0.2
			c1.3-1.1,1.3-3.1,0.2-4.3L63.4,120.1z"/>
	</g>
</g>
</svg>
